%TF.GenerationSoftware,KiCad,Pcbnew,9.0.7*%
%TF.CreationDate,2026-03-17T20:14:33-05:00*%
%TF.ProjectId,TrailCurrentBorealis,54726169-6c43-4757-9272-656e74426f72,rev?*%
%TF.SameCoordinates,Original*%
%TF.FileFunction,Legend,Bot*%
%TF.FilePolarity,Positive*%
%FSLAX46Y46*%
G04 Gerber Fmt 4.6, Leading zero omitted, Abs format (unit mm)*
G04 Created by KiCad (PCBNEW 9.0.7) date 2026-03-17 20:14:33*
%MOMM*%
%LPD*%
G01*
G04 APERTURE LIST*
%ADD10C,0.300000*%
%ADD11C,0.189973*%
%ADD12C,0.211081*%
%ADD13C,0.000000*%
%ADD14C,0.147757*%
%ADD15C,0.150000*%
G04 APERTURE END LIST*
D10*
X132561774Y-91648528D02*
X131704632Y-91648528D01*
X132133203Y-93148528D02*
X132133203Y-91648528D01*
X131204632Y-93148528D02*
X131204632Y-92148528D01*
X131204632Y-92434242D02*
X131133203Y-92291385D01*
X131133203Y-92291385D02*
X131061775Y-92219957D01*
X131061775Y-92219957D02*
X130918917Y-92148528D01*
X130918917Y-92148528D02*
X130776060Y-92148528D01*
X129633204Y-93148528D02*
X129633204Y-92362814D01*
X129633204Y-92362814D02*
X129704632Y-92219957D01*
X129704632Y-92219957D02*
X129847489Y-92148528D01*
X129847489Y-92148528D02*
X130133204Y-92148528D01*
X130133204Y-92148528D02*
X130276061Y-92219957D01*
X129633204Y-93077100D02*
X129776061Y-93148528D01*
X129776061Y-93148528D02*
X130133204Y-93148528D01*
X130133204Y-93148528D02*
X130276061Y-93077100D01*
X130276061Y-93077100D02*
X130347489Y-92934242D01*
X130347489Y-92934242D02*
X130347489Y-92791385D01*
X130347489Y-92791385D02*
X130276061Y-92648528D01*
X130276061Y-92648528D02*
X130133204Y-92577100D01*
X130133204Y-92577100D02*
X129776061Y-92577100D01*
X129776061Y-92577100D02*
X129633204Y-92505671D01*
X128918918Y-93148528D02*
X128918918Y-92148528D01*
X128918918Y-91648528D02*
X128990346Y-91719957D01*
X128990346Y-91719957D02*
X128918918Y-91791385D01*
X128918918Y-91791385D02*
X128847489Y-91719957D01*
X128847489Y-91719957D02*
X128918918Y-91648528D01*
X128918918Y-91648528D02*
X128918918Y-91791385D01*
X127990346Y-93148528D02*
X128133203Y-93077100D01*
X128133203Y-93077100D02*
X128204632Y-92934242D01*
X128204632Y-92934242D02*
X128204632Y-91648528D01*
X126561775Y-93005671D02*
X126633203Y-93077100D01*
X126633203Y-93077100D02*
X126847489Y-93148528D01*
X126847489Y-93148528D02*
X126990346Y-93148528D01*
X126990346Y-93148528D02*
X127204632Y-93077100D01*
X127204632Y-93077100D02*
X127347489Y-92934242D01*
X127347489Y-92934242D02*
X127418918Y-92791385D01*
X127418918Y-92791385D02*
X127490346Y-92505671D01*
X127490346Y-92505671D02*
X127490346Y-92291385D01*
X127490346Y-92291385D02*
X127418918Y-92005671D01*
X127418918Y-92005671D02*
X127347489Y-91862814D01*
X127347489Y-91862814D02*
X127204632Y-91719957D01*
X127204632Y-91719957D02*
X126990346Y-91648528D01*
X126990346Y-91648528D02*
X126847489Y-91648528D01*
X126847489Y-91648528D02*
X126633203Y-91719957D01*
X126633203Y-91719957D02*
X126561775Y-91791385D01*
X125276061Y-92148528D02*
X125276061Y-93148528D01*
X125918918Y-92148528D02*
X125918918Y-92934242D01*
X125918918Y-92934242D02*
X125847489Y-93077100D01*
X125847489Y-93077100D02*
X125704632Y-93148528D01*
X125704632Y-93148528D02*
X125490346Y-93148528D01*
X125490346Y-93148528D02*
X125347489Y-93077100D01*
X125347489Y-93077100D02*
X125276061Y-93005671D01*
X124561775Y-93148528D02*
X124561775Y-92148528D01*
X124561775Y-92434242D02*
X124490346Y-92291385D01*
X124490346Y-92291385D02*
X124418918Y-92219957D01*
X124418918Y-92219957D02*
X124276060Y-92148528D01*
X124276060Y-92148528D02*
X124133203Y-92148528D01*
X123633204Y-93148528D02*
X123633204Y-92148528D01*
X123633204Y-92434242D02*
X123561775Y-92291385D01*
X123561775Y-92291385D02*
X123490347Y-92219957D01*
X123490347Y-92219957D02*
X123347489Y-92148528D01*
X123347489Y-92148528D02*
X123204632Y-92148528D01*
X122133204Y-93077100D02*
X122276061Y-93148528D01*
X122276061Y-93148528D02*
X122561776Y-93148528D01*
X122561776Y-93148528D02*
X122704633Y-93077100D01*
X122704633Y-93077100D02*
X122776061Y-92934242D01*
X122776061Y-92934242D02*
X122776061Y-92362814D01*
X122776061Y-92362814D02*
X122704633Y-92219957D01*
X122704633Y-92219957D02*
X122561776Y-92148528D01*
X122561776Y-92148528D02*
X122276061Y-92148528D01*
X122276061Y-92148528D02*
X122133204Y-92219957D01*
X122133204Y-92219957D02*
X122061776Y-92362814D01*
X122061776Y-92362814D02*
X122061776Y-92505671D01*
X122061776Y-92505671D02*
X122776061Y-92648528D01*
X121418919Y-92148528D02*
X121418919Y-93148528D01*
X121418919Y-92291385D02*
X121347490Y-92219957D01*
X121347490Y-92219957D02*
X121204633Y-92148528D01*
X121204633Y-92148528D02*
X120990347Y-92148528D01*
X120990347Y-92148528D02*
X120847490Y-92219957D01*
X120847490Y-92219957D02*
X120776062Y-92362814D01*
X120776062Y-92362814D02*
X120776062Y-93148528D01*
X120276061Y-92148528D02*
X119704633Y-92148528D01*
X120061776Y-91648528D02*
X120061776Y-92934242D01*
X120061776Y-92934242D02*
X119990347Y-93077100D01*
X119990347Y-93077100D02*
X119847490Y-93148528D01*
X119847490Y-93148528D02*
X119704633Y-93148528D01*
X131485489Y-98199114D02*
X131271203Y-98270542D01*
X131271203Y-98270542D02*
X131199774Y-98341971D01*
X131199774Y-98341971D02*
X131128346Y-98484828D01*
X131128346Y-98484828D02*
X131128346Y-98699114D01*
X131128346Y-98699114D02*
X131199774Y-98841971D01*
X131199774Y-98841971D02*
X131271203Y-98913400D01*
X131271203Y-98913400D02*
X131414060Y-98984828D01*
X131414060Y-98984828D02*
X131985489Y-98984828D01*
X131985489Y-98984828D02*
X131985489Y-97484828D01*
X131985489Y-97484828D02*
X131485489Y-97484828D01*
X131485489Y-97484828D02*
X131342632Y-97556257D01*
X131342632Y-97556257D02*
X131271203Y-97627685D01*
X131271203Y-97627685D02*
X131199774Y-97770542D01*
X131199774Y-97770542D02*
X131199774Y-97913400D01*
X131199774Y-97913400D02*
X131271203Y-98056257D01*
X131271203Y-98056257D02*
X131342632Y-98127685D01*
X131342632Y-98127685D02*
X131485489Y-98199114D01*
X131485489Y-98199114D02*
X131985489Y-98199114D01*
X130271203Y-98984828D02*
X130414060Y-98913400D01*
X130414060Y-98913400D02*
X130485489Y-98841971D01*
X130485489Y-98841971D02*
X130556917Y-98699114D01*
X130556917Y-98699114D02*
X130556917Y-98270542D01*
X130556917Y-98270542D02*
X130485489Y-98127685D01*
X130485489Y-98127685D02*
X130414060Y-98056257D01*
X130414060Y-98056257D02*
X130271203Y-97984828D01*
X130271203Y-97984828D02*
X130056917Y-97984828D01*
X130056917Y-97984828D02*
X129914060Y-98056257D01*
X129914060Y-98056257D02*
X129842632Y-98127685D01*
X129842632Y-98127685D02*
X129771203Y-98270542D01*
X129771203Y-98270542D02*
X129771203Y-98699114D01*
X129771203Y-98699114D02*
X129842632Y-98841971D01*
X129842632Y-98841971D02*
X129914060Y-98913400D01*
X129914060Y-98913400D02*
X130056917Y-98984828D01*
X130056917Y-98984828D02*
X130271203Y-98984828D01*
X129128346Y-98984828D02*
X129128346Y-97984828D01*
X129128346Y-98270542D02*
X129056917Y-98127685D01*
X129056917Y-98127685D02*
X128985489Y-98056257D01*
X128985489Y-98056257D02*
X128842631Y-97984828D01*
X128842631Y-97984828D02*
X128699774Y-97984828D01*
X127628346Y-98913400D02*
X127771203Y-98984828D01*
X127771203Y-98984828D02*
X128056918Y-98984828D01*
X128056918Y-98984828D02*
X128199775Y-98913400D01*
X128199775Y-98913400D02*
X128271203Y-98770542D01*
X128271203Y-98770542D02*
X128271203Y-98199114D01*
X128271203Y-98199114D02*
X128199775Y-98056257D01*
X128199775Y-98056257D02*
X128056918Y-97984828D01*
X128056918Y-97984828D02*
X127771203Y-97984828D01*
X127771203Y-97984828D02*
X127628346Y-98056257D01*
X127628346Y-98056257D02*
X127556918Y-98199114D01*
X127556918Y-98199114D02*
X127556918Y-98341971D01*
X127556918Y-98341971D02*
X128271203Y-98484828D01*
X126271204Y-98984828D02*
X126271204Y-98199114D01*
X126271204Y-98199114D02*
X126342632Y-98056257D01*
X126342632Y-98056257D02*
X126485489Y-97984828D01*
X126485489Y-97984828D02*
X126771204Y-97984828D01*
X126771204Y-97984828D02*
X126914061Y-98056257D01*
X126271204Y-98913400D02*
X126414061Y-98984828D01*
X126414061Y-98984828D02*
X126771204Y-98984828D01*
X126771204Y-98984828D02*
X126914061Y-98913400D01*
X126914061Y-98913400D02*
X126985489Y-98770542D01*
X126985489Y-98770542D02*
X126985489Y-98627685D01*
X126985489Y-98627685D02*
X126914061Y-98484828D01*
X126914061Y-98484828D02*
X126771204Y-98413400D01*
X126771204Y-98413400D02*
X126414061Y-98413400D01*
X126414061Y-98413400D02*
X126271204Y-98341971D01*
X125342632Y-98984828D02*
X125485489Y-98913400D01*
X125485489Y-98913400D02*
X125556918Y-98770542D01*
X125556918Y-98770542D02*
X125556918Y-97484828D01*
X124771204Y-98984828D02*
X124771204Y-97984828D01*
X124771204Y-97484828D02*
X124842632Y-97556257D01*
X124842632Y-97556257D02*
X124771204Y-97627685D01*
X124771204Y-97627685D02*
X124699775Y-97556257D01*
X124699775Y-97556257D02*
X124771204Y-97484828D01*
X124771204Y-97484828D02*
X124771204Y-97627685D01*
X124128346Y-98913400D02*
X123985489Y-98984828D01*
X123985489Y-98984828D02*
X123699775Y-98984828D01*
X123699775Y-98984828D02*
X123556918Y-98913400D01*
X123556918Y-98913400D02*
X123485489Y-98770542D01*
X123485489Y-98770542D02*
X123485489Y-98699114D01*
X123485489Y-98699114D02*
X123556918Y-98556257D01*
X123556918Y-98556257D02*
X123699775Y-98484828D01*
X123699775Y-98484828D02*
X123914061Y-98484828D01*
X123914061Y-98484828D02*
X124056918Y-98413400D01*
X124056918Y-98413400D02*
X124128346Y-98270542D01*
X124128346Y-98270542D02*
X124128346Y-98199114D01*
X124128346Y-98199114D02*
X124056918Y-98056257D01*
X124056918Y-98056257D02*
X123914061Y-97984828D01*
X123914061Y-97984828D02*
X123699775Y-97984828D01*
X123699775Y-97984828D02*
X123556918Y-98056257D01*
X121842632Y-97984828D02*
X121485489Y-98984828D01*
X121485489Y-98984828D02*
X121128346Y-97984828D01*
X119771203Y-98984828D02*
X120628346Y-98984828D01*
X120199775Y-98984828D02*
X120199775Y-97484828D01*
X120199775Y-97484828D02*
X120342632Y-97699114D01*
X120342632Y-97699114D02*
X120485489Y-97841971D01*
X120485489Y-97841971D02*
X120628346Y-97913400D01*
X119128347Y-98841971D02*
X119056918Y-98913400D01*
X119056918Y-98913400D02*
X119128347Y-98984828D01*
X119128347Y-98984828D02*
X119199775Y-98913400D01*
X119199775Y-98913400D02*
X119128347Y-98841971D01*
X119128347Y-98841971D02*
X119128347Y-98984828D01*
X118128346Y-97484828D02*
X117985489Y-97484828D01*
X117985489Y-97484828D02*
X117842632Y-97556257D01*
X117842632Y-97556257D02*
X117771204Y-97627685D01*
X117771204Y-97627685D02*
X117699775Y-97770542D01*
X117699775Y-97770542D02*
X117628346Y-98056257D01*
X117628346Y-98056257D02*
X117628346Y-98413400D01*
X117628346Y-98413400D02*
X117699775Y-98699114D01*
X117699775Y-98699114D02*
X117771204Y-98841971D01*
X117771204Y-98841971D02*
X117842632Y-98913400D01*
X117842632Y-98913400D02*
X117985489Y-98984828D01*
X117985489Y-98984828D02*
X118128346Y-98984828D01*
X118128346Y-98984828D02*
X118271204Y-98913400D01*
X118271204Y-98913400D02*
X118342632Y-98841971D01*
X118342632Y-98841971D02*
X118414061Y-98699114D01*
X118414061Y-98699114D02*
X118485489Y-98413400D01*
X118485489Y-98413400D02*
X118485489Y-98056257D01*
X118485489Y-98056257D02*
X118414061Y-97770542D01*
X118414061Y-97770542D02*
X118342632Y-97627685D01*
X118342632Y-97627685D02*
X118271204Y-97556257D01*
X118271204Y-97556257D02*
X118128346Y-97484828D01*
X116985490Y-98841971D02*
X116914061Y-98913400D01*
X116914061Y-98913400D02*
X116985490Y-98984828D01*
X116985490Y-98984828D02*
X117056918Y-98913400D01*
X117056918Y-98913400D02*
X116985490Y-98841971D01*
X116985490Y-98841971D02*
X116985490Y-98984828D01*
X115985489Y-97484828D02*
X115842632Y-97484828D01*
X115842632Y-97484828D02*
X115699775Y-97556257D01*
X115699775Y-97556257D02*
X115628347Y-97627685D01*
X115628347Y-97627685D02*
X115556918Y-97770542D01*
X115556918Y-97770542D02*
X115485489Y-98056257D01*
X115485489Y-98056257D02*
X115485489Y-98413400D01*
X115485489Y-98413400D02*
X115556918Y-98699114D01*
X115556918Y-98699114D02*
X115628347Y-98841971D01*
X115628347Y-98841971D02*
X115699775Y-98913400D01*
X115699775Y-98913400D02*
X115842632Y-98984828D01*
X115842632Y-98984828D02*
X115985489Y-98984828D01*
X115985489Y-98984828D02*
X116128347Y-98913400D01*
X116128347Y-98913400D02*
X116199775Y-98841971D01*
X116199775Y-98841971D02*
X116271204Y-98699114D01*
X116271204Y-98699114D02*
X116342632Y-98413400D01*
X116342632Y-98413400D02*
X116342632Y-98056257D01*
X116342632Y-98056257D02*
X116271204Y-97770542D01*
X116271204Y-97770542D02*
X116199775Y-97627685D01*
X116199775Y-97627685D02*
X116128347Y-97556257D01*
X116128347Y-97556257D02*
X115985489Y-97484828D01*
D11*
X136405277Y-96667018D02*
X136194195Y-97247493D01*
D12*
X132901321Y-96033772D02*
X132816887Y-96614247D01*
D13*
G36*
X134400000Y-99200000D02*
G01*
X133027969Y-99200000D01*
X133872297Y-98355672D01*
X134400000Y-99200000D01*
G37*
D14*
X134505541Y-97247493D02*
X134499268Y-97249991D01*
X134492996Y-97252468D01*
X134486730Y-97254920D01*
X134480465Y-97257351D01*
X134474207Y-97259758D01*
X134467949Y-97262143D01*
X134461698Y-97264504D01*
X134455447Y-97266844D01*
X134449203Y-97269159D01*
X134442959Y-97271454D01*
X134436722Y-97273724D01*
X134430485Y-97275973D01*
X134424255Y-97278199D01*
X134418025Y-97280403D01*
X134411802Y-97282584D01*
X134405578Y-97284743D01*
X134399361Y-97286879D01*
X134393145Y-97288994D01*
X134386934Y-97291085D01*
X134380724Y-97293156D01*
X134374520Y-97295203D01*
X134368316Y-97297229D01*
X134362118Y-97299232D01*
X134355920Y-97301214D01*
X134349729Y-97303173D01*
X134343537Y-97305111D01*
X134337351Y-97307026D01*
X134331166Y-97308920D01*
X134324986Y-97310792D01*
X134318806Y-97312642D01*
X134312632Y-97314471D01*
X134306458Y-97316278D01*
X134300290Y-97318062D01*
X134294122Y-97319826D01*
X134287959Y-97321568D01*
X134281796Y-97323288D01*
X134275639Y-97324987D01*
X134269481Y-97326664D01*
X134263329Y-97328320D01*
X134257177Y-97329954D01*
X134251030Y-97331567D01*
X134244883Y-97333159D01*
X134238741Y-97334729D01*
X134232599Y-97336278D01*
X134226462Y-97337806D01*
X134220325Y-97339313D01*
X134214193Y-97340798D01*
X134208061Y-97342262D01*
X134201933Y-97343705D01*
X134195806Y-97345128D01*
X134189683Y-97346528D01*
X134183560Y-97347908D01*
X134177441Y-97349267D01*
X134171323Y-97350605D01*
X134165209Y-97351922D01*
X134159095Y-97353218D01*
X134152984Y-97354493D01*
X134146874Y-97355748D01*
X134140768Y-97356981D01*
X134134663Y-97358194D01*
X134128560Y-97359386D01*
X134122458Y-97360557D01*
X134116360Y-97361707D01*
X134110262Y-97362837D01*
X134104167Y-97363946D01*
X134098073Y-97365034D01*
X134091982Y-97366102D01*
X134085891Y-97367149D01*
X134079803Y-97368175D01*
X134073715Y-97369181D01*
X134067631Y-97370167D01*
X134061547Y-97371132D01*
X134055466Y-97372076D01*
X134049385Y-97373000D01*
X134043306Y-97373903D01*
X134037228Y-97374786D01*
X134031153Y-97375649D01*
X134025078Y-97376491D01*
X134019006Y-97377313D01*
X134012933Y-97378114D01*
X134006863Y-97378895D01*
X134000794Y-97379656D01*
X133994726Y-97380396D01*
X133988659Y-97381116D01*
X133982594Y-97381816D01*
X133976529Y-97382496D01*
X133970467Y-97383155D01*
X133964404Y-97383794D01*
X133958344Y-97384413D01*
X133952283Y-97385011D01*
X133946225Y-97385590D01*
X133940166Y-97386148D01*
X133934110Y-97386686D01*
X133928053Y-97387204D01*
X133921998Y-97387702D01*
X133915943Y-97388179D01*
X133909890Y-97388637D01*
X133903837Y-97389074D01*
X133897785Y-97389491D01*
X133891733Y-97389888D01*
X133885683Y-97390266D01*
X133879632Y-97390623D01*
X133873583Y-97390959D01*
X133867534Y-97391276D01*
X133861485Y-97391573D01*
X133855437Y-97391850D01*
X133849390Y-97392107D01*
X133843343Y-97392343D01*
X133837296Y-97392560D01*
X133831250Y-97392756D01*
X133825204Y-97392933D01*
X133819159Y-97393090D01*
X133813113Y-97393226D01*
X133807068Y-97393343D01*
X133801023Y-97393439D01*
X133794979Y-97393516D01*
X133788934Y-97393572D01*
X133782890Y-97393609D01*
X133776845Y-97393625D01*
X133770801Y-97393622D01*
X133758713Y-97393555D01*
X133746624Y-97393408D01*
X133734534Y-97393181D01*
X133722444Y-97392874D01*
X133710353Y-97392487D01*
X133698261Y-97392020D01*
X133686167Y-97391472D01*
X133674071Y-97390845D01*
X133661974Y-97390137D01*
X133649873Y-97389349D01*
X133637771Y-97388481D01*
X133625665Y-97387532D01*
X133613556Y-97386503D01*
X133601444Y-97385393D01*
X133589329Y-97384203D01*
X133577209Y-97382931D01*
X133565085Y-97381579D01*
X133552957Y-97380146D01*
X133540824Y-97378632D01*
X133528686Y-97377036D01*
X133516543Y-97375359D01*
X133504394Y-97373601D01*
X133492240Y-97371761D01*
X133480080Y-97369839D01*
X133467913Y-97367835D01*
X133455740Y-97365749D01*
X133443560Y-97363580D01*
X133431374Y-97361329D01*
X133419179Y-97358995D01*
X133406978Y-97356579D01*
X133394769Y-97354079D01*
X133382551Y-97351496D01*
X133370325Y-97348829D01*
X133358091Y-97346078D01*
X133345848Y-97343244D01*
X133333596Y-97340325D01*
X133321335Y-97337322D01*
X133309064Y-97334234D01*
X133296784Y-97331061D01*
X133284493Y-97327803D01*
X133272193Y-97324460D01*
X133259882Y-97321030D01*
X133247560Y-97317515D01*
X133235227Y-97313913D01*
X133222883Y-97310224D01*
X133210527Y-97306449D01*
X133198160Y-97302586D01*
X133185781Y-97298636D01*
X133173389Y-97294598D01*
X133160985Y-97290471D01*
X133148569Y-97286256D01*
X133136140Y-97281953D01*
X133123698Y-97277560D01*
X133111242Y-97273077D01*
X133098773Y-97268504D01*
X133086290Y-97263841D01*
X133073793Y-97259088D01*
X133061282Y-97254243D01*
X133048757Y-97249307D01*
X133036217Y-97244279D01*
X133023661Y-97239159D01*
X133011091Y-97233946D01*
X132998506Y-97228641D01*
X132985905Y-97223242D01*
X132973288Y-97217749D01*
X132960656Y-97212162D01*
X132948007Y-97206480D01*
X132935342Y-97200703D01*
X132922660Y-97194830D01*
X132922428Y-97194722D01*
X136194195Y-97247493D02*
X136187704Y-97244664D01*
X136181213Y-97241857D01*
X136174731Y-97239075D01*
X136168248Y-97236316D01*
X136161773Y-97233581D01*
X136155298Y-97230868D01*
X136148831Y-97228179D01*
X136142364Y-97225513D01*
X136135904Y-97222871D01*
X136129444Y-97220251D01*
X136122993Y-97217655D01*
X136116541Y-97215082D01*
X136110096Y-97212532D01*
X136103651Y-97210004D01*
X136097214Y-97207501D01*
X136090777Y-97205019D01*
X136084347Y-97202561D01*
X136077917Y-97200124D01*
X136071494Y-97197712D01*
X136065071Y-97195321D01*
X136058656Y-97192954D01*
X136052240Y-97190608D01*
X136045831Y-97188287D01*
X136039422Y-97185986D01*
X136033020Y-97183709D01*
X136026617Y-97181453D01*
X136020222Y-97179221D01*
X136013826Y-97177010D01*
X136007438Y-97174823D01*
X136001049Y-97172657D01*
X135994666Y-97170514D01*
X135988284Y-97168392D01*
X135981908Y-97166293D01*
X135975531Y-97164215D01*
X135969162Y-97162161D01*
X135962792Y-97160127D01*
X135956428Y-97158117D01*
X135950064Y-97156127D01*
X135943706Y-97154160D01*
X135937349Y-97152214D01*
X135930997Y-97150291D01*
X135924645Y-97148389D01*
X135918299Y-97146509D01*
X135911952Y-97144651D01*
X135905612Y-97142814D01*
X135899272Y-97140999D01*
X135892937Y-97139206D01*
X135886602Y-97137434D01*
X135880272Y-97135684D01*
X135873943Y-97133955D01*
X135867618Y-97132247D01*
X135861294Y-97130561D01*
X135854975Y-97128897D01*
X135848656Y-97127253D01*
X135842342Y-97125632D01*
X135836028Y-97124031D01*
X135829719Y-97122452D01*
X135823410Y-97120894D01*
X135817106Y-97119357D01*
X135810802Y-97117841D01*
X135804502Y-97116347D01*
X135798203Y-97114873D01*
X135791908Y-97113421D01*
X135785613Y-97111989D01*
X135779323Y-97110579D01*
X135773032Y-97109190D01*
X135766746Y-97107822D01*
X135760460Y-97106474D01*
X135754178Y-97105148D01*
X135747896Y-97103842D01*
X135741619Y-97102557D01*
X135735341Y-97101293D01*
X135729067Y-97100050D01*
X135722793Y-97098828D01*
X135716523Y-97097627D01*
X135710253Y-97096445D01*
X135703987Y-97095286D01*
X135697721Y-97094146D01*
X135691459Y-97093027D01*
X135685196Y-97091929D01*
X135678937Y-97090852D01*
X135672678Y-97089794D01*
X135666422Y-97088758D01*
X135660166Y-97087742D01*
X135653914Y-97086747D01*
X135647661Y-97085772D01*
X135641412Y-97084818D01*
X135635163Y-97083884D01*
X135628916Y-97082971D01*
X135622670Y-97082078D01*
X135616426Y-97081205D01*
X135610183Y-97080353D01*
X135603942Y-97079521D01*
X135597701Y-97078710D01*
X135591463Y-97077919D01*
X135585225Y-97077148D01*
X135578989Y-97076397D01*
X135572754Y-97075667D01*
X135566520Y-97074957D01*
X135560287Y-97074268D01*
X135554056Y-97073598D01*
X135547825Y-97072949D01*
X135541596Y-97072320D01*
X135535367Y-97071711D01*
X135529140Y-97071123D01*
X135522913Y-97070555D01*
X135516688Y-97070006D01*
X135510462Y-97069478D01*
X135504239Y-97068971D01*
X135498016Y-97068483D01*
X135491794Y-97068015D01*
X135485572Y-97067568D01*
X135479351Y-97067140D01*
X135473131Y-97066733D01*
X135466912Y-97066346D01*
X135460693Y-97065979D01*
X135454475Y-97065632D01*
X135448257Y-97065305D01*
X135442041Y-97064998D01*
X135435824Y-97064711D01*
X135429608Y-97064444D01*
X135423392Y-97064197D01*
X135417177Y-97063970D01*
X135410962Y-97063764D01*
X135404748Y-97063577D01*
X135398534Y-97063410D01*
X135392320Y-97063263D01*
X135386106Y-97063137D01*
X135379893Y-97063030D01*
X135373680Y-97062943D01*
X135367467Y-97062877D01*
X135361254Y-97062830D01*
X135355041Y-97062803D01*
X135348828Y-97062797D01*
X135336403Y-97062843D01*
X135323977Y-97062970D01*
X135311551Y-97063177D01*
X135299125Y-97063464D01*
X135286697Y-97063830D01*
X135274269Y-97064277D01*
X135261838Y-97064804D01*
X135249406Y-97065411D01*
X135236973Y-97066099D01*
X135224537Y-97066866D01*
X135212098Y-97067714D01*
X135199657Y-97068642D01*
X135187213Y-97069651D01*
X135174765Y-97070740D01*
X135162314Y-97071910D01*
X135149860Y-97073161D01*
X135137401Y-97074492D01*
X135124938Y-97075904D01*
X135112471Y-97077398D01*
X135099998Y-97078972D01*
X135087521Y-97080628D01*
X135075039Y-97082365D01*
X135062551Y-97084184D01*
X135050057Y-97086084D01*
X135037557Y-97088067D01*
X135025051Y-97090131D01*
X135012539Y-97092278D01*
X135000020Y-97094507D01*
X134987493Y-97096818D01*
X134974960Y-97099212D01*
X134962419Y-97101689D01*
X134949870Y-97104249D01*
X134937313Y-97106893D01*
X134924748Y-97109620D01*
X134912175Y-97112430D01*
X134899593Y-97115325D01*
X134887001Y-97118304D01*
X134874401Y-97121367D01*
X134861791Y-97124515D01*
X134849172Y-97127748D01*
X134836542Y-97131066D01*
X134823903Y-97134469D01*
X134811253Y-97137958D01*
X134798592Y-97141533D01*
X134785920Y-97145194D01*
X134773238Y-97148942D01*
X134760544Y-97152776D01*
X134747838Y-97156698D01*
X134735121Y-97160707D01*
X134722392Y-97164804D01*
X134709650Y-97168989D01*
X134696896Y-97173262D01*
X134684130Y-97177624D01*
X134671350Y-97182074D01*
X134658557Y-97186615D01*
X134645751Y-97191244D01*
X134632931Y-97195964D01*
X134620098Y-97200774D01*
X134607250Y-97205675D01*
X134594388Y-97210668D01*
X134581512Y-97215751D01*
X134568621Y-97220927D01*
X134555715Y-97226194D01*
X134542794Y-97231554D01*
X134529858Y-97237008D01*
X134516906Y-97242554D01*
X134505541Y-97247493D01*
D11*
X134547758Y-96667018D02*
X134541250Y-96670034D01*
X134534744Y-96673027D01*
X134528251Y-96675992D01*
X134521760Y-96678934D01*
X134515282Y-96681848D01*
X134508806Y-96684739D01*
X134502342Y-96687603D01*
X134495881Y-96690444D01*
X134489432Y-96693258D01*
X134482985Y-96696049D01*
X134476550Y-96698813D01*
X134470118Y-96701554D01*
X134463697Y-96704268D01*
X134457279Y-96706960D01*
X134450873Y-96709625D01*
X134444469Y-96712267D01*
X134438076Y-96714883D01*
X134431686Y-96717477D01*
X134425308Y-96720043D01*
X134418932Y-96722588D01*
X134412567Y-96725106D01*
X134406205Y-96727602D01*
X134399854Y-96730072D01*
X134393505Y-96732520D01*
X134387168Y-96734942D01*
X134380832Y-96737341D01*
X134374508Y-96739715D01*
X134368186Y-96742067D01*
X134361876Y-96744394D01*
X134355567Y-96746698D01*
X134349269Y-96748977D01*
X134342974Y-96751233D01*
X134336689Y-96753465D01*
X134330407Y-96755675D01*
X134324135Y-96757860D01*
X134317865Y-96760022D01*
X134311606Y-96762160D01*
X134305349Y-96764276D01*
X134299103Y-96766368D01*
X134292858Y-96768438D01*
X134286624Y-96770483D01*
X134280392Y-96772506D01*
X134274171Y-96774505D01*
X134267951Y-96776482D01*
X134261742Y-96778435D01*
X134255534Y-96780367D01*
X134249337Y-96782274D01*
X134243142Y-96784160D01*
X134236956Y-96786022D01*
X134230773Y-96787863D01*
X134224599Y-96789679D01*
X134218428Y-96791474D01*
X134212266Y-96793246D01*
X134206106Y-96794996D01*
X134199955Y-96796723D01*
X134193807Y-96798428D01*
X134187668Y-96800110D01*
X134181531Y-96801771D01*
X134175403Y-96803408D01*
X134169278Y-96805024D01*
X134163161Y-96806617D01*
X134157047Y-96808189D01*
X134150941Y-96809738D01*
X134144837Y-96811266D01*
X134138743Y-96812771D01*
X134132650Y-96814255D01*
X134126566Y-96815716D01*
X134120484Y-96817156D01*
X134114410Y-96818573D01*
X134108339Y-96819970D01*
X134102276Y-96821344D01*
X134096215Y-96822697D01*
X134090162Y-96824028D01*
X134084111Y-96825337D01*
X134078069Y-96826625D01*
X134072028Y-96827892D01*
X134065996Y-96829136D01*
X134059965Y-96830360D01*
X134053943Y-96831561D01*
X134047922Y-96832742D01*
X134041909Y-96833901D01*
X134035898Y-96835039D01*
X134029895Y-96836156D01*
X134023894Y-96837251D01*
X134017900Y-96838325D01*
X134011908Y-96839379D01*
X134005924Y-96840410D01*
X133999941Y-96841422D01*
X133993966Y-96842411D01*
X133987993Y-96843380D01*
X133982027Y-96844328D01*
X133976062Y-96845255D01*
X133970105Y-96846160D01*
X133964150Y-96847045D01*
X133958201Y-96847909D01*
X133952255Y-96848753D01*
X133946315Y-96849575D01*
X133940377Y-96850376D01*
X133934445Y-96851157D01*
X133928516Y-96851917D01*
X133922593Y-96852657D01*
X133916672Y-96853376D01*
X133910757Y-96854074D01*
X133904844Y-96854751D01*
X133898937Y-96855408D01*
X133893032Y-96856044D01*
X133887133Y-96856660D01*
X133881236Y-96857255D01*
X133875345Y-96857830D01*
X133869456Y-96858384D01*
X133863572Y-96858918D01*
X133857691Y-96859431D01*
X133851815Y-96859924D01*
X133845941Y-96860397D01*
X133840072Y-96860849D01*
X133834205Y-96861281D01*
X133828344Y-96861693D01*
X133822485Y-96862084D01*
X133816630Y-96862455D01*
X133810778Y-96862806D01*
X133804930Y-96863136D01*
X133799085Y-96863446D01*
X133793244Y-96863736D01*
X133787405Y-96864006D01*
X133781571Y-96864256D01*
X133775739Y-96864485D01*
X133769912Y-96864695D01*
X133764086Y-96864884D01*
X133758265Y-96865053D01*
X133752446Y-96865202D01*
X133746631Y-96865331D01*
X133740818Y-96865440D01*
X133735009Y-96865529D01*
X133729202Y-96865597D01*
X133723399Y-96865646D01*
X133717598Y-96865675D01*
X133711800Y-96865683D01*
X133706005Y-96865672D01*
X133700214Y-96865641D01*
X133694424Y-96865589D01*
X133688638Y-96865518D01*
X133682854Y-96865427D01*
X133677073Y-96865315D01*
X133671294Y-96865184D01*
X133665519Y-96865033D01*
X133659745Y-96864862D01*
X133653975Y-96864671D01*
X133648206Y-96864460D01*
X133642441Y-96864229D01*
X133636677Y-96863978D01*
X133630917Y-96863707D01*
X133625158Y-96863417D01*
X133619402Y-96863106D01*
X133613648Y-96862776D01*
X133607896Y-96862425D01*
X133602147Y-96862055D01*
X133596400Y-96861665D01*
X133590654Y-96861255D01*
X133584912Y-96860825D01*
X133579171Y-96860375D01*
X133573432Y-96859905D01*
X133567695Y-96859416D01*
X133561960Y-96858906D01*
X133556227Y-96858377D01*
X133544767Y-96857258D01*
X133533314Y-96856060D01*
X133521869Y-96854782D01*
X133510430Y-96853424D01*
X133498997Y-96851986D01*
X133487571Y-96850469D01*
X133476151Y-96848872D01*
X133464737Y-96847194D01*
X133453328Y-96845437D01*
X133441924Y-96843599D01*
X133430525Y-96841682D01*
X133419131Y-96839684D01*
X133407741Y-96837605D01*
X133396356Y-96835446D01*
X133384974Y-96833206D01*
X133373595Y-96830885D01*
X133362220Y-96828483D01*
X133350848Y-96826001D01*
X133339479Y-96823436D01*
X133328113Y-96820791D01*
X133316748Y-96818064D01*
X133305386Y-96815255D01*
X133294026Y-96812364D01*
X133282667Y-96809390D01*
X133271309Y-96806335D01*
X133259952Y-96803197D01*
X133248596Y-96799976D01*
X133237241Y-96796671D01*
X133225886Y-96793284D01*
X133214531Y-96789813D01*
X133203175Y-96786259D01*
X133191820Y-96782620D01*
X133180463Y-96778897D01*
X133169106Y-96775090D01*
X133157747Y-96771198D01*
X133146387Y-96767221D01*
X133135026Y-96763158D01*
X133123663Y-96759010D01*
X133112297Y-96754776D01*
X133100929Y-96750455D01*
X133089559Y-96746048D01*
X133078186Y-96741554D01*
X133066810Y-96736973D01*
X133055431Y-96732304D01*
X133044048Y-96727548D01*
X133032662Y-96722703D01*
X133021271Y-96717769D01*
X133009877Y-96712747D01*
X132998479Y-96707635D01*
X132987076Y-96702433D01*
X132975668Y-96697141D01*
X132964255Y-96691759D01*
X132952838Y-96686286D01*
X132941415Y-96680721D01*
X132929986Y-96675065D01*
X132918552Y-96669317D01*
X132907112Y-96663476D01*
X132895666Y-96657542D01*
X132884214Y-96651515D01*
X132872755Y-96645393D01*
X132861289Y-96639178D01*
X132849817Y-96632868D01*
X132838338Y-96626462D01*
X132826851Y-96619961D01*
X132816887Y-96614247D01*
X136405277Y-96667018D02*
X136398361Y-96663955D01*
X136391446Y-96660915D01*
X136384542Y-96657901D01*
X136377638Y-96654909D01*
X136370745Y-96651943D01*
X136363853Y-96649000D01*
X136356971Y-96646083D01*
X136350090Y-96643188D01*
X136343219Y-96640319D01*
X136336349Y-96637472D01*
X136329489Y-96634651D01*
X136322631Y-96631852D01*
X136315782Y-96629078D01*
X136308934Y-96626327D01*
X136302096Y-96623601D01*
X136295259Y-96620897D01*
X136288431Y-96618218D01*
X136281605Y-96615561D01*
X136274788Y-96612930D01*
X136267972Y-96610320D01*
X136261165Y-96607735D01*
X136254360Y-96605172D01*
X136247564Y-96602634D01*
X136240769Y-96600118D01*
X136233983Y-96597626D01*
X136227198Y-96595156D01*
X136220422Y-96592711D01*
X136213648Y-96590287D01*
X136206882Y-96587888D01*
X136200117Y-96585510D01*
X136193361Y-96583157D01*
X136186606Y-96580825D01*
X136179860Y-96578518D01*
X136173115Y-96576232D01*
X136166379Y-96573970D01*
X136159644Y-96571729D01*
X136152917Y-96569513D01*
X136146191Y-96567317D01*
X136139474Y-96565146D01*
X136132757Y-96562996D01*
X136126049Y-96560869D01*
X136119342Y-96558764D01*
X136112643Y-96556683D01*
X136105946Y-96554622D01*
X136099256Y-96552585D01*
X136092567Y-96550570D01*
X136085887Y-96548577D01*
X136079207Y-96546606D01*
X136072535Y-96544658D01*
X136065864Y-96542731D01*
X136059201Y-96540827D01*
X136052539Y-96538945D01*
X136045884Y-96537085D01*
X136039231Y-96535246D01*
X136032585Y-96533430D01*
X136025940Y-96531635D01*
X136019302Y-96529863D01*
X136012666Y-96528112D01*
X136006037Y-96526383D01*
X135999408Y-96524676D01*
X135992787Y-96522991D01*
X135986167Y-96521326D01*
X135979554Y-96519684D01*
X135972942Y-96518064D01*
X135966337Y-96516465D01*
X135959733Y-96514887D01*
X135953135Y-96513331D01*
X135946539Y-96511796D01*
X135939949Y-96510283D01*
X135933360Y-96508791D01*
X135926778Y-96507321D01*
X135920197Y-96505872D01*
X135913622Y-96504445D01*
X135907049Y-96503038D01*
X135900481Y-96501653D01*
X135893915Y-96500289D01*
X135887355Y-96498946D01*
X135880796Y-96497624D01*
X135874243Y-96496324D01*
X135867691Y-96495044D01*
X135861144Y-96493786D01*
X135854599Y-96492548D01*
X135848060Y-96491332D01*
X135841522Y-96490136D01*
X135834989Y-96488962D01*
X135828457Y-96487809D01*
X135821931Y-96486676D01*
X135815406Y-96485564D01*
X135808887Y-96484473D01*
X135802368Y-96483403D01*
X135795855Y-96482354D01*
X135789343Y-96481325D01*
X135782836Y-96480318D01*
X135776330Y-96479330D01*
X135769829Y-96478364D01*
X135763329Y-96477418D01*
X135756834Y-96476493D01*
X135750340Y-96475589D01*
X135743851Y-96474705D01*
X135737363Y-96473842D01*
X135730879Y-96472999D01*
X135724397Y-96472177D01*
X135717919Y-96471375D01*
X135711442Y-96470594D01*
X135704970Y-96469833D01*
X135698499Y-96469093D01*
X135692032Y-96468373D01*
X135685566Y-96467674D01*
X135679104Y-96466995D01*
X135672643Y-96466336D01*
X135666186Y-96465698D01*
X135659731Y-96465080D01*
X135653279Y-96464483D01*
X135646828Y-96463905D01*
X135640381Y-96463349D01*
X135633936Y-96462812D01*
X135627493Y-96462295D01*
X135621052Y-96461799D01*
X135614615Y-96461323D01*
X135608178Y-96460868D01*
X135601745Y-96460432D01*
X135595313Y-96460017D01*
X135588884Y-96459622D01*
X135582456Y-96459247D01*
X135576032Y-96458892D01*
X135569608Y-96458558D01*
X135563188Y-96458243D01*
X135556768Y-96457949D01*
X135550352Y-96457675D01*
X135543936Y-96457421D01*
X135537523Y-96457187D01*
X135531112Y-96456973D01*
X135524703Y-96456779D01*
X135518295Y-96456605D01*
X135511889Y-96456451D01*
X135505485Y-96456318D01*
X135499083Y-96456204D01*
X135492682Y-96456110D01*
X135486283Y-96456037D01*
X135479886Y-96455983D01*
X135473490Y-96455950D01*
X135467096Y-96455936D01*
X135460703Y-96455943D01*
X135454312Y-96455969D01*
X135447923Y-96456015D01*
X135441534Y-96456082D01*
X135435148Y-96456168D01*
X135428762Y-96456275D01*
X135422378Y-96456401D01*
X135415995Y-96456547D01*
X135409614Y-96456714D01*
X135403233Y-96456900D01*
X135396855Y-96457106D01*
X135390477Y-96457333D01*
X135384100Y-96457579D01*
X135377725Y-96457845D01*
X135371350Y-96458131D01*
X135364977Y-96458438D01*
X135352233Y-96459110D01*
X135339494Y-96459862D01*
X135326757Y-96460694D01*
X135314025Y-96461606D01*
X135301295Y-96462598D01*
X135288568Y-96463670D01*
X135275844Y-96464822D01*
X135263123Y-96466054D01*
X135250403Y-96467367D01*
X135237686Y-96468759D01*
X135224970Y-96470232D01*
X135212255Y-96471786D01*
X135199542Y-96473419D01*
X135186829Y-96475134D01*
X135174117Y-96476929D01*
X135161406Y-96478804D01*
X135148695Y-96480761D01*
X135135984Y-96482798D01*
X135123272Y-96484917D01*
X135110560Y-96487117D01*
X135097847Y-96489398D01*
X135085133Y-96491761D01*
X135072418Y-96494205D01*
X135059701Y-96496731D01*
X135046983Y-96499339D01*
X135034262Y-96502029D01*
X135021540Y-96504801D01*
X135008815Y-96507656D01*
X134996087Y-96510593D01*
X134983357Y-96513613D01*
X134970623Y-96516716D01*
X134957886Y-96519903D01*
X134945145Y-96523172D01*
X134932401Y-96526526D01*
X134919652Y-96529963D01*
X134906899Y-96533484D01*
X134894142Y-96537089D01*
X134881380Y-96540779D01*
X134868613Y-96544554D01*
X134855841Y-96548414D01*
X134843063Y-96552358D01*
X134830280Y-96556389D01*
X134817491Y-96560505D01*
X134804696Y-96564707D01*
X134791894Y-96568995D01*
X134779087Y-96573370D01*
X134766272Y-96577832D01*
X134753451Y-96582381D01*
X134740622Y-96587018D01*
X134727786Y-96591742D01*
X134714943Y-96596554D01*
X134702092Y-96601455D01*
X134689233Y-96606444D01*
X134676366Y-96611523D01*
X134663490Y-96616690D01*
X134650606Y-96621948D01*
X134637713Y-96627295D01*
X134624811Y-96632733D01*
X134611900Y-96638261D01*
X134598980Y-96643881D01*
X134586050Y-96649592D01*
X134573111Y-96655394D01*
X134560161Y-96661289D01*
X134547758Y-96667018D01*
D12*
X134758839Y-96033772D02*
X134752353Y-96036778D01*
X134745865Y-96039762D01*
X134739384Y-96042722D01*
X134732902Y-96045660D01*
X134726426Y-96048573D01*
X134719948Y-96051465D01*
X134713477Y-96054332D01*
X134707005Y-96057177D01*
X134700539Y-96059999D01*
X134694071Y-96062799D01*
X134687610Y-96065574D01*
X134681147Y-96068328D01*
X134674690Y-96071058D01*
X134668233Y-96073767D01*
X134661780Y-96076452D01*
X134655327Y-96079116D01*
X134648879Y-96081755D01*
X134642430Y-96084373D01*
X134635987Y-96086968D01*
X134629542Y-96089542D01*
X134623103Y-96092091D01*
X134616663Y-96094620D01*
X134610228Y-96097125D01*
X134603792Y-96099609D01*
X134597361Y-96102070D01*
X134590929Y-96104510D01*
X134584502Y-96106926D01*
X134578075Y-96109321D01*
X134571651Y-96111693D01*
X134565227Y-96114045D01*
X134558808Y-96116373D01*
X134552388Y-96118680D01*
X134545972Y-96120964D01*
X134539556Y-96123228D01*
X134533144Y-96125469D01*
X134526730Y-96127688D01*
X134520322Y-96129885D01*
X134513912Y-96132062D01*
X134507507Y-96134215D01*
X134501101Y-96136348D01*
X134494699Y-96138459D01*
X134488296Y-96140548D01*
X134481897Y-96142616D01*
X134475497Y-96144662D01*
X134469101Y-96146687D01*
X134462704Y-96148690D01*
X134456311Y-96150672D01*
X134449917Y-96152633D01*
X134443527Y-96154571D01*
X134437136Y-96156490D01*
X134430748Y-96158386D01*
X134424360Y-96160261D01*
X134417975Y-96162115D01*
X134411589Y-96163948D01*
X134405207Y-96165759D01*
X134398823Y-96167550D01*
X134392443Y-96169319D01*
X134386062Y-96171068D01*
X134379684Y-96172795D01*
X134373305Y-96174501D01*
X134366930Y-96176186D01*
X134360553Y-96177851D01*
X134354179Y-96179494D01*
X134347805Y-96181117D01*
X134341433Y-96182718D01*
X134335060Y-96184299D01*
X134328690Y-96185859D01*
X134322319Y-96187398D01*
X134315951Y-96188916D01*
X134309582Y-96190414D01*
X134303215Y-96191890D01*
X134296847Y-96193347D01*
X134290482Y-96194782D01*
X134284116Y-96196197D01*
X134277752Y-96197591D01*
X134271387Y-96198964D01*
X134265024Y-96200317D01*
X134258660Y-96201650D01*
X134252299Y-96202961D01*
X134245936Y-96204253D01*
X134239575Y-96205523D01*
X134233214Y-96206774D01*
X134226854Y-96208003D01*
X134220493Y-96209213D01*
X134214134Y-96210401D01*
X134207774Y-96211570D01*
X134201416Y-96212718D01*
X134195056Y-96213846D01*
X134188698Y-96214953D01*
X134182339Y-96216040D01*
X134175982Y-96217107D01*
X134169623Y-96218153D01*
X134163266Y-96219179D01*
X134156908Y-96220185D01*
X134150551Y-96221171D01*
X134144192Y-96222136D01*
X134137835Y-96223081D01*
X134131477Y-96224006D01*
X134125120Y-96224910D01*
X134118762Y-96225795D01*
X134112404Y-96226659D01*
X134106046Y-96227503D01*
X134099688Y-96228327D01*
X134093329Y-96229131D01*
X134086971Y-96229915D01*
X134080612Y-96230678D01*
X134074253Y-96231422D01*
X134067893Y-96232145D01*
X134061534Y-96232848D01*
X134055173Y-96233532D01*
X134048813Y-96234195D01*
X134042451Y-96234838D01*
X134036090Y-96235461D01*
X134029728Y-96236064D01*
X134023365Y-96236647D01*
X134017002Y-96237209D01*
X134010638Y-96237752D01*
X134004274Y-96238275D01*
X133997909Y-96238778D01*
X133991543Y-96239261D01*
X133985176Y-96239724D01*
X133978809Y-96240166D01*
X133972441Y-96240589D01*
X133966072Y-96240992D01*
X133959702Y-96241375D01*
X133953332Y-96241738D01*
X133946960Y-96242081D01*
X133940588Y-96242403D01*
X133927840Y-96242989D01*
X133915088Y-96243495D01*
X133902331Y-96243921D01*
X133889570Y-96244268D01*
X133876804Y-96244534D01*
X133864033Y-96244720D01*
X133851256Y-96244827D01*
X133838474Y-96244853D01*
X133825686Y-96244800D01*
X133812891Y-96244666D01*
X133800090Y-96244452D01*
X133787283Y-96244159D01*
X133774469Y-96243785D01*
X133761647Y-96243330D01*
X133748818Y-96242796D01*
X133735981Y-96242181D01*
X133723137Y-96241486D01*
X133710284Y-96240710D01*
X133697423Y-96239853D01*
X133684553Y-96238916D01*
X133671674Y-96237897D01*
X133658786Y-96236798D01*
X133645888Y-96235618D01*
X133632981Y-96234356D01*
X133620064Y-96233013D01*
X133607136Y-96231588D01*
X133594199Y-96230082D01*
X133581250Y-96228494D01*
X133568291Y-96226824D01*
X133555320Y-96225072D01*
X133542338Y-96223238D01*
X133529344Y-96221321D01*
X133516338Y-96219321D01*
X133503320Y-96217239D01*
X133490290Y-96215074D01*
X133477247Y-96212825D01*
X133464191Y-96210493D01*
X133451122Y-96208077D01*
X133438039Y-96205578D01*
X133424943Y-96202994D01*
X133411832Y-96200326D01*
X133398708Y-96197573D01*
X133385569Y-96194736D01*
X133372416Y-96191814D01*
X133359248Y-96188806D01*
X133346064Y-96185713D01*
X133332865Y-96182534D01*
X133319651Y-96179269D01*
X133306421Y-96175917D01*
X133293174Y-96172479D01*
X133279912Y-96168954D01*
X133266632Y-96165342D01*
X133253336Y-96161642D01*
X133240023Y-96157855D01*
X133226693Y-96153979D01*
X133213345Y-96150015D01*
X133199979Y-96145962D01*
X133186596Y-96141820D01*
X133173194Y-96137588D01*
X133159774Y-96133267D01*
X133146335Y-96128856D01*
X133132877Y-96124354D01*
X133119400Y-96119762D01*
X133105904Y-96115078D01*
X133092388Y-96110303D01*
X133078853Y-96105436D01*
X133065297Y-96100476D01*
X133051721Y-96095424D01*
X133038125Y-96090279D01*
X133024508Y-96085041D01*
X133010870Y-96079708D01*
X132997211Y-96074282D01*
X132983531Y-96068761D01*
X132969829Y-96063145D01*
X132956105Y-96057433D01*
X132942360Y-96051626D01*
X132928592Y-96045722D01*
X132914801Y-96039722D01*
X132901321Y-96033772D01*
X136616360Y-96033772D02*
X136609444Y-96030709D01*
X136602529Y-96027669D01*
X136595625Y-96024655D01*
X136588721Y-96021663D01*
X136581828Y-96018697D01*
X136574936Y-96015754D01*
X136568054Y-96012837D01*
X136561173Y-96009942D01*
X136554302Y-96007073D01*
X136547432Y-96004226D01*
X136540572Y-96001405D01*
X136533713Y-95998606D01*
X136526864Y-95995832D01*
X136520016Y-95993081D01*
X136513178Y-95990355D01*
X136506341Y-95987651D01*
X136499514Y-95984972D01*
X136492687Y-95982315D01*
X136485870Y-95979684D01*
X136479054Y-95977074D01*
X136472248Y-95974489D01*
X136465442Y-95971926D01*
X136458646Y-95969388D01*
X136451851Y-95966872D01*
X136445065Y-95964380D01*
X136438280Y-95961910D01*
X136431505Y-95959465D01*
X136424730Y-95957041D01*
X136417964Y-95954642D01*
X136411199Y-95952265D01*
X136404444Y-95949911D01*
X136397689Y-95947580D01*
X136390943Y-95945272D01*
X136384198Y-95942986D01*
X136377461Y-95940724D01*
X136370726Y-95938483D01*
X136363999Y-95936267D01*
X136357273Y-95934071D01*
X136350556Y-95931900D01*
X136343839Y-95929750D01*
X136337131Y-95927624D01*
X136330424Y-95925518D01*
X136323725Y-95923437D01*
X136317028Y-95921377D01*
X136310338Y-95919340D01*
X136303649Y-95917324D01*
X136296968Y-95915332D01*
X136290289Y-95913360D01*
X136283617Y-95911412D01*
X136276946Y-95909486D01*
X136270283Y-95907582D01*
X136263621Y-95905699D01*
X136256966Y-95903839D01*
X136250313Y-95902000D01*
X136243667Y-95900185D01*
X136237022Y-95898390D01*
X136230384Y-95896618D01*
X136223748Y-95894866D01*
X136217118Y-95893138D01*
X136210490Y-95891430D01*
X136203869Y-95889745D01*
X136197249Y-95888081D01*
X136190636Y-95886439D01*
X136184023Y-95884818D01*
X136177418Y-95883219D01*
X136170814Y-95881641D01*
X136164217Y-95880086D01*
X136157620Y-95878551D01*
X136151031Y-95877038D01*
X136144442Y-95875546D01*
X136137860Y-95874076D01*
X136131279Y-95872626D01*
X136124704Y-95871199D01*
X136118130Y-95869792D01*
X136111563Y-95868407D01*
X136104996Y-95867043D01*
X136098436Y-95865700D01*
X136091877Y-95864379D01*
X136085324Y-95863078D01*
X136078772Y-95861798D01*
X136072226Y-95860540D01*
X136065681Y-95859303D01*
X136059141Y-95858087D01*
X136052603Y-95856891D01*
X136046070Y-95855717D01*
X136039539Y-95854563D01*
X136033013Y-95853431D01*
X136026488Y-95852319D01*
X136019968Y-95851228D01*
X136013449Y-95850158D01*
X136006936Y-95849108D01*
X136000424Y-95848080D01*
X135993917Y-95847072D01*
X135987411Y-95846085D01*
X135980910Y-95845119D01*
X135974410Y-95844173D01*
X135967915Y-95843248D01*
X135961421Y-95842343D01*
X135954932Y-95841459D01*
X135948444Y-95840596D01*
X135941960Y-95839753D01*
X135935478Y-95838931D01*
X135929000Y-95838130D01*
X135922523Y-95837348D01*
X135916051Y-95836588D01*
X135909580Y-95835847D01*
X135903113Y-95835128D01*
X135896647Y-95834428D01*
X135890185Y-95833749D01*
X135883724Y-95833091D01*
X135877267Y-95832453D01*
X135870812Y-95831835D01*
X135864360Y-95831237D01*
X135857909Y-95830660D01*
X135851462Y-95830103D01*
X135845016Y-95829566D01*
X135838574Y-95829050D01*
X135832133Y-95828554D01*
X135825695Y-95828078D01*
X135819259Y-95827622D01*
X135812826Y-95827187D01*
X135806393Y-95826772D01*
X135799965Y-95826377D01*
X135793537Y-95826002D01*
X135787112Y-95825647D01*
X135780689Y-95825312D01*
X135774268Y-95824998D01*
X135767849Y-95824704D01*
X135761432Y-95824429D01*
X135755016Y-95824175D01*
X135748604Y-95823941D01*
X135742192Y-95823727D01*
X135735783Y-95823534D01*
X135729375Y-95823360D01*
X135722970Y-95823206D01*
X135716565Y-95823072D01*
X135710163Y-95822959D01*
X135703762Y-95822865D01*
X135697364Y-95822791D01*
X135690966Y-95822738D01*
X135684570Y-95822704D01*
X135678176Y-95822691D01*
X135671784Y-95822697D01*
X135665392Y-95822724D01*
X135659003Y-95822770D01*
X135652614Y-95822837D01*
X135646228Y-95822923D01*
X135639842Y-95823030D01*
X135633458Y-95823156D01*
X135627075Y-95823302D01*
X135620694Y-95823469D01*
X135614314Y-95823655D01*
X135607935Y-95823861D01*
X135601557Y-95824088D01*
X135595180Y-95824334D01*
X135588805Y-95824600D01*
X135582430Y-95824886D01*
X135576057Y-95825192D01*
X135563313Y-95825865D01*
X135550573Y-95826617D01*
X135537837Y-95827449D01*
X135525105Y-95828361D01*
X135512375Y-95829353D01*
X135499648Y-95830425D01*
X135486924Y-95831577D01*
X135474203Y-95832809D01*
X135461483Y-95834122D01*
X135448765Y-95835514D01*
X135436049Y-95836987D01*
X135423335Y-95838541D01*
X135410621Y-95840174D01*
X135397909Y-95841889D01*
X135385197Y-95843684D01*
X135372486Y-95845559D01*
X135359774Y-95847516D01*
X135347063Y-95849553D01*
X135334351Y-95851672D01*
X135321639Y-95853872D01*
X135308926Y-95856153D01*
X135296212Y-95858516D01*
X135283497Y-95860960D01*
X135270780Y-95863486D01*
X135258062Y-95866094D01*
X135245342Y-95868784D01*
X135232619Y-95871556D01*
X135219894Y-95874411D01*
X135207166Y-95877348D01*
X135194436Y-95880369D01*
X135181702Y-95883472D01*
X135168965Y-95886658D01*
X135156224Y-95889928D01*
X135143479Y-95893281D01*
X135130731Y-95896718D01*
X135117978Y-95900239D01*
X135105221Y-95903845D01*
X135092458Y-95907535D01*
X135079691Y-95911309D01*
X135066919Y-95915169D01*
X135054141Y-95919114D01*
X135041358Y-95923144D01*
X135028569Y-95927260D01*
X135015774Y-95931462D01*
X135002973Y-95935751D01*
X134990165Y-95940126D01*
X134977350Y-95944588D01*
X134964529Y-95949137D01*
X134951700Y-95953773D01*
X134938864Y-95958497D01*
X134926021Y-95963310D01*
X134913170Y-95968210D01*
X134900311Y-95973200D01*
X134887444Y-95978278D01*
X134874568Y-95983446D01*
X134861684Y-95988703D01*
X134848791Y-95994050D01*
X134835889Y-95999488D01*
X134822978Y-96005017D01*
X134810058Y-96010636D01*
X134797128Y-96016347D01*
X134784188Y-96022150D01*
X134771239Y-96028045D01*
X134758839Y-96033772D01*
D13*
G36*
X136067545Y-99200000D02*
G01*
X133450132Y-99200000D01*
X134758839Y-97722426D01*
X136067545Y-99200000D01*
G37*
D15*
%TO.C,LOGO*%
X138902000Y-93347700D02*
X138807300Y-93189800D01*
X138807300Y-93189800D02*
X138712500Y-93031900D01*
X138712500Y-93031900D02*
X138617800Y-92874100D01*
X138617800Y-92874100D02*
X138523100Y-92716200D01*
X138523100Y-92716200D02*
X138428300Y-92558300D01*
X138428300Y-92558300D02*
X138333600Y-92400400D01*
X138333600Y-92400400D02*
X138238800Y-92242500D01*
X138238800Y-92242500D02*
X138144100Y-92084600D01*
X138144100Y-92084600D02*
X138049400Y-91926700D01*
X138049400Y-91926700D02*
X137954600Y-91768800D01*
X137954600Y-91768800D02*
X137859900Y-91610900D01*
X137859900Y-91610900D02*
X137765200Y-91453000D01*
X137765200Y-91453000D02*
X137670400Y-91295100D01*
X137670400Y-91295100D02*
X137575700Y-91137200D01*
X137575700Y-91137200D02*
X137480900Y-90979300D01*
X137480900Y-90979300D02*
X137386200Y-90821400D01*
X137386200Y-90821400D02*
X137291500Y-90663500D01*
X137291500Y-90663500D02*
X137196700Y-90505600D01*
X137196700Y-90505600D02*
X137102000Y-90347700D01*
X137102000Y-90347700D02*
X137007300Y-90189800D01*
X137007300Y-90189800D02*
X137007300Y-90189800D01*
X137007300Y-90189800D02*
X136959900Y-90253000D01*
X136959900Y-90253000D02*
X136912500Y-90316200D01*
X136912500Y-90316200D02*
X136865200Y-90379300D01*
X136865200Y-90379300D02*
X136817800Y-90442500D01*
X136817800Y-90442500D02*
X136770400Y-90505600D01*
X136770400Y-90505600D02*
X136723100Y-90568800D01*
X136723100Y-90568800D02*
X136675700Y-90631900D01*
X136675700Y-90631900D02*
X136628300Y-90695100D01*
X136628300Y-90695100D02*
X136580900Y-90758300D01*
X136580900Y-90758300D02*
X136533600Y-90821400D01*
X136533600Y-90821400D02*
X136486200Y-90884600D01*
X136486200Y-90884600D02*
X136438800Y-90947700D01*
X136438800Y-90947700D02*
X136391500Y-91010900D01*
X136391500Y-91010900D02*
X136344100Y-91074100D01*
X136344100Y-91074100D02*
X136296700Y-91137200D01*
X136296700Y-91137200D02*
X136249400Y-91200400D01*
X136249400Y-91200400D02*
X136202000Y-91263500D01*
X136202000Y-91263500D02*
X136154600Y-91326700D01*
X136154600Y-91326700D02*
X136107300Y-91389800D01*
X136107300Y-91389800D02*
X136059900Y-91453000D01*
X136059900Y-91453000D02*
X136059900Y-91453000D01*
X136059900Y-91453000D02*
X135980900Y-91358300D01*
X135980900Y-91358300D02*
X135902000Y-91263500D01*
X135902000Y-91263500D02*
X135823100Y-91168800D01*
X135823100Y-91168800D02*
X135744100Y-91074100D01*
X135744100Y-91074100D02*
X135665200Y-90979300D01*
X135665200Y-90979300D02*
X135586200Y-90884600D01*
X135586200Y-90884600D02*
X135507300Y-90789800D01*
X135507300Y-90789800D02*
X135428300Y-90695100D01*
X135428300Y-90695100D02*
X135349400Y-90600400D01*
X135349400Y-90600400D02*
X135270400Y-90505600D01*
X135270400Y-90505600D02*
X135191500Y-90410900D01*
X135191500Y-90410900D02*
X135112500Y-90316200D01*
X135112500Y-90316200D02*
X135033600Y-90221400D01*
X135033600Y-90221400D02*
X134954600Y-90126700D01*
X134954600Y-90126700D02*
X134875700Y-90031900D01*
X134875700Y-90031900D02*
X134796700Y-89937200D01*
X134796700Y-89937200D02*
X134717800Y-89842500D01*
X134717800Y-89842500D02*
X134638800Y-89747700D01*
X134638800Y-89747700D02*
X134559900Y-89653000D01*
X134559900Y-89653000D02*
X134480900Y-89558300D01*
X134480900Y-89558300D02*
X134480900Y-89558300D01*
X134480900Y-89558300D02*
X134402000Y-89747700D01*
X134402000Y-89747700D02*
X134323100Y-89937200D01*
X134323100Y-89937200D02*
X134244100Y-90126700D01*
X133296700Y-92400400D02*
X133217800Y-92589800D01*
X133217800Y-92589800D02*
X133138800Y-92779300D01*
X133138800Y-92779300D02*
X133059900Y-92968800D01*
X133059900Y-92968800D02*
X132980900Y-93158300D01*
X132980900Y-93158300D02*
X132902000Y-93347700D01*
X132902000Y-93347700D02*
X132902000Y-93347700D01*
X132902000Y-93347700D02*
X133202000Y-93347700D01*
X133202000Y-93347700D02*
X133502000Y-93347700D01*
X133502000Y-93347700D02*
X133802000Y-93347700D01*
X133802000Y-93347700D02*
X134102000Y-93347700D01*
X134102000Y-93347700D02*
X134402000Y-93347700D01*
X134402000Y-93347700D02*
X134702000Y-93347700D01*
X134702000Y-93347700D02*
X135002000Y-93347700D01*
X135002000Y-93347700D02*
X135302000Y-93347700D01*
X135302000Y-93347700D02*
X135602000Y-93347700D01*
X135602000Y-93347700D02*
X135902000Y-93347700D01*
X135902000Y-93347700D02*
X136202000Y-93347700D01*
X136202000Y-93347700D02*
X136502000Y-93347700D01*
X136502000Y-93347700D02*
X136802000Y-93347700D01*
X136802000Y-93347700D02*
X137102000Y-93347700D01*
X137102000Y-93347700D02*
X137402000Y-93347700D01*
X137402000Y-93347700D02*
X137702000Y-93347700D01*
X137702000Y-93347700D02*
X138002000Y-93347700D01*
X138602000Y-93347700D02*
X138902000Y-93347700D01*
D13*
G36*
X134325200Y-91675600D02*
G01*
X134448600Y-91693900D01*
X134569200Y-91724400D01*
X134686500Y-91767000D01*
X134799700Y-91821400D01*
X134908500Y-91887000D01*
X135012600Y-91963300D01*
X135112100Y-92049900D01*
X135207000Y-92146200D01*
X135292500Y-92246400D01*
X135367400Y-92333700D01*
X135437800Y-92405100D01*
X135508500Y-92466600D01*
X135579600Y-92518600D01*
X135650900Y-92561500D01*
X135722700Y-92596000D01*
X135795400Y-92622400D01*
X135869600Y-92641200D01*
X135946100Y-92652600D01*
X136025500Y-92656400D01*
X136108400Y-92652500D01*
X136195300Y-92640600D01*
X136286400Y-92620100D01*
X136381800Y-92590800D01*
X136481600Y-92552200D01*
X136593400Y-92500500D01*
X136684700Y-92459600D01*
X136787300Y-92424300D01*
X136892800Y-92398400D01*
X137000700Y-92381700D01*
X137110500Y-92374200D01*
X137221900Y-92375700D01*
X137334600Y-92385900D01*
X137448400Y-92404700D01*
X137563200Y-92431600D01*
X137679100Y-92466600D01*
X137796200Y-92509300D01*
X137914400Y-92559600D01*
X138034000Y-92617400D01*
X138155000Y-92682500D01*
X138277600Y-92755000D01*
X138398400Y-92832700D01*
X138480900Y-92923300D01*
X138507000Y-93043100D01*
X138469700Y-93159900D01*
X138379000Y-93242400D01*
X138259200Y-93268500D01*
X138142500Y-93231200D01*
X138028900Y-93158400D01*
X137922000Y-93095200D01*
X137818500Y-93039500D01*
X137718500Y-92991200D01*
X137622100Y-92950200D01*
X137529500Y-92916400D01*
X137440600Y-92889700D01*
X137355600Y-92869700D01*
X137274500Y-92856400D01*
X137197200Y-92849400D01*
X137123600Y-92848500D01*
X137053300Y-92853300D01*
X136986000Y-92863700D01*
X136921300Y-92879700D01*
X136858600Y-92901200D01*
X136789500Y-92931800D01*
X136666900Y-92988700D01*
X136537300Y-93038900D01*
X136408200Y-93078600D01*
X136279800Y-93107500D01*
X136152000Y-93125200D01*
X136025200Y-93131200D01*
X135899800Y-93125100D01*
X135776500Y-93106900D01*
X135655800Y-93076300D01*
X135538600Y-93033700D01*
X135425300Y-92979300D01*
X135316600Y-92913700D01*
X135212400Y-92837400D01*
X135112900Y-92750900D01*
X135018000Y-92654500D01*
X134932500Y-92554300D01*
X134857700Y-92467000D01*
X134787300Y-92395600D01*
X134716500Y-92334100D01*
X134645500Y-92282100D01*
X134574200Y-92239200D01*
X134502400Y-92204700D01*
X134429700Y-92178300D01*
X134355400Y-92159500D01*
X134278900Y-92148200D01*
X134199600Y-92144300D01*
X134116700Y-92148200D01*
X134029800Y-92160200D01*
X133938700Y-92180600D01*
X133843200Y-92209900D01*
X133743400Y-92248500D01*
X133633100Y-92299500D01*
X133512300Y-92320500D01*
X133397200Y-92278200D01*
X133318700Y-92184100D01*
X133297700Y-92063300D01*
X133339900Y-91948200D01*
X133434000Y-91869700D01*
X133558100Y-91812100D01*
X133687800Y-91761900D01*
X133816800Y-91722100D01*
X133945300Y-91693200D01*
X134073000Y-91675600D01*
X134199800Y-91669600D01*
X134325200Y-91675600D01*
G37*
G36*
X134235800Y-90364400D02*
G01*
X134296900Y-90418600D01*
X134322800Y-90496200D01*
X134306400Y-90576200D01*
X133946950Y-91295100D01*
X134323100Y-91295100D01*
X134396300Y-91313100D01*
X134452800Y-91363100D01*
X134479700Y-91433500D01*
X134470900Y-91508400D01*
X133997200Y-92771600D01*
X133949700Y-92838100D01*
X133875300Y-92871900D01*
X133793900Y-92864000D01*
X133727400Y-92816500D01*
X133693600Y-92742100D01*
X133701500Y-92660700D01*
X134095206Y-91610900D01*
X133691500Y-91610900D01*
X133614600Y-91590900D01*
X133557200Y-91536000D01*
X133533700Y-91460100D01*
X133550200Y-91382400D01*
X134023900Y-90435000D01*
X134078200Y-90373900D01*
X134155700Y-90348000D01*
X134235800Y-90364400D01*
G37*
%TD*%
M02*
