%TF.GenerationSoftware,KiCad,Pcbnew,9.0.7*%
%TF.CreationDate,2026-03-17T20:14:32-05:00*%
%TF.ProjectId,TrailCurrentBorealis,54726169-6c43-4757-9272-656e74426f72,rev?*%
%TF.SameCoordinates,Original*%
%TF.FileFunction,Copper,L1,Top*%
%TF.FilePolarity,Positive*%
%FSLAX46Y46*%
G04 Gerber Fmt 4.6, Leading zero omitted, Abs format (unit mm)*
G04 Created by KiCad (PCBNEW 9.0.7) date 2026-03-17 20:14:32*
%MOMM*%
%LPD*%
G01*
G04 APERTURE LIST*
G04 Aperture macros list*
%AMRoundRect*
0 Rectangle with rounded corners*
0 $1 Rounding radius*
0 $2 $3 $4 $5 $6 $7 $8 $9 X,Y pos of 4 corners*
0 Add a 4 corners polygon primitive as box body*
4,1,4,$2,$3,$4,$5,$6,$7,$8,$9,$2,$3,0*
0 Add four circle primitives for the rounded corners*
1,1,$1+$1,$2,$3*
1,1,$1+$1,$4,$5*
1,1,$1+$1,$6,$7*
1,1,$1+$1,$8,$9*
0 Add four rect primitives between the rounded corners*
20,1,$1+$1,$2,$3,$4,$5,0*
20,1,$1+$1,$4,$5,$6,$7,0*
20,1,$1+$1,$6,$7,$8,$9,0*
20,1,$1+$1,$8,$9,$2,$3,0*%
G04 Aperture macros list end*
%TA.AperFunction,ComponentPad*%
%ADD10RoundRect,0.250000X0.600000X0.600000X-0.600000X0.600000X-0.600000X-0.600000X0.600000X-0.600000X0*%
%TD*%
%TA.AperFunction,ComponentPad*%
%ADD11O,1.700000X1.700000*%
%TD*%
%TA.AperFunction,SMDPad,CuDef*%
%ADD12R,2.000000X1.500000*%
%TD*%
%TA.AperFunction,SMDPad,CuDef*%
%ADD13R,1.500000X2.000000*%
%TD*%
%TA.AperFunction,ComponentPad*%
%ADD14RoundRect,0.250000X-0.600000X0.600000X-0.600000X-0.600000X0.600000X-0.600000X0.600000X0.600000X0*%
%TD*%
%TA.AperFunction,SMDPad,CuDef*%
%ADD15R,1.750000X0.600000*%
%TD*%
%TA.AperFunction,SMDPad,CuDef*%
%ADD16RoundRect,0.250000X0.625000X-0.400000X0.625000X0.400000X-0.625000X0.400000X-0.625000X-0.400000X0*%
%TD*%
%TA.AperFunction,SMDPad,CuDef*%
%ADD17R,1.300000X4.500000*%
%TD*%
%TA.AperFunction,SMDPad,CuDef*%
%ADD18R,1.800000X3.900000*%
%TD*%
%TA.AperFunction,SMDPad,CuDef*%
%ADD19RoundRect,0.250000X-0.750000X-0.250000X0.750000X-0.250000X0.750000X0.250000X-0.750000X0.250000X0*%
%TD*%
%TA.AperFunction,SMDPad,CuDef*%
%ADD20R,2.000000X1.000000*%
%TD*%
%TA.AperFunction,SMDPad,CuDef*%
%ADD21C,1.250000*%
%TD*%
%TA.AperFunction,ViaPad*%
%ADD22C,0.600000*%
%TD*%
%TA.AperFunction,Conductor*%
%ADD23C,0.800000*%
%TD*%
%TA.AperFunction,Conductor*%
%ADD24C,0.600000*%
%TD*%
%TA.AperFunction,Conductor*%
%ADD25C,1.000000*%
%TD*%
%TA.AperFunction,Conductor*%
%ADD26C,0.200000*%
%TD*%
%TA.AperFunction,Conductor*%
%ADD27C,0.400000*%
%TD*%
%TA.AperFunction,Conductor*%
%ADD28C,0.300000*%
%TD*%
G04 APERTURE END LIST*
D10*
%TO.P,U3,1,VIN+*%
%TO.N,+12V*%
X142748000Y-121920000D03*
D11*
%TO.P,U3,2,VIN+*%
X142748000Y-119380000D03*
%TO.P,U3,3,GND*%
%TO.N,GND*%
X142748000Y-110460000D03*
%TO.P,U3,4,GND*%
X142748000Y-107920000D03*
%TO.P,U3,5*%
%TO.N,N/C*%
X133358000Y-105920000D03*
%TO.P,U3,6,GND*%
%TO.N,GND*%
X115748000Y-107920000D03*
%TO.P,U3,7,GND*%
X115748000Y-110460000D03*
%TO.P,U3,8,VOUT+*%
%TO.N,+5V*%
X115748000Y-119380000D03*
%TO.P,U3,9,VOUT+*%
X115748000Y-121920000D03*
D12*
%TO.P,U3,1,VIN+*%
%TO.N,+12V*%
X144248000Y-121920000D03*
%TO.P,U3,2,VIN+*%
X144248000Y-119380000D03*
%TO.P,U3,3,GND*%
%TO.N,GND*%
X144248000Y-110460000D03*
%TO.P,U3,4,GND*%
X144248000Y-107920000D03*
D13*
%TO.P,U3,5*%
%TO.N,N/C*%
X133358000Y-105920000D03*
D12*
%TO.P,U3,6,GND*%
%TO.N,GND*%
X114248000Y-107920000D03*
%TO.P,U3,7,GND*%
X114248000Y-110460000D03*
%TO.P,U3,8,VOUT+*%
%TO.N,+5V*%
X114248000Y-119380000D03*
%TO.P,U3,9,VOUT+*%
X114248000Y-121920000D03*
%TD*%
D14*
%TO.P,U4,1,VIN*%
%TO.N,+3.3V*%
X105664000Y-87884000D03*
D11*
%TO.P,U4,2,GND*%
%TO.N,GND*%
X103124000Y-87884000D03*
%TO.P,U4,3,SCL*%
%TO.N,SCL*%
X100584000Y-87884000D03*
%TO.P,U4,4,SDA*%
%TO.N,SDA*%
X98044000Y-87884000D03*
%TD*%
D15*
%TO.P,IC1,1,D*%
%TO.N,CAN_TX*%
X140400000Y-95810000D03*
%TO.P,IC1,2,GND*%
%TO.N,GND*%
X140400000Y-94540000D03*
%TO.P,IC1,3,VCC*%
%TO.N,+3.3V*%
X140400000Y-93270000D03*
%TO.P,IC1,4,R*%
%TO.N,CAN_RX*%
X140400000Y-92000000D03*
%TO.P,IC1,5,VREF*%
%TO.N,unconnected-(IC1-VREF-Pad5)*%
X135300000Y-92000000D03*
%TO.P,IC1,6,CANL*%
%TO.N,CANL*%
X135300000Y-93270000D03*
%TO.P,IC1,7,CANH*%
%TO.N,CANH*%
X135300000Y-94540000D03*
%TO.P,IC1,8,RS*%
%TO.N,Net-(IC1-RS)*%
X135300000Y-95810000D03*
%TD*%
D16*
%TO.P,R1,1*%
%TO.N,GND*%
X135200000Y-102350000D03*
%TO.P,R1,2*%
%TO.N,Net-(IC1-RS)*%
X135200000Y-99250000D03*
%TD*%
D17*
%TO.P,J2,1,1*%
%TO.N,+12V*%
X143350000Y-86000000D03*
%TO.P,J2,2,2*%
%TO.N,GND*%
X140850000Y-86000000D03*
%TO.P,J2,3,3*%
%TO.N,CANH*%
X138350000Y-86000000D03*
%TO.P,J2,4,4*%
%TO.N,CANL*%
X135850000Y-86000000D03*
D18*
%TO.P,J2,SH1*%
%TO.N,N/C*%
X146550000Y-79200000D03*
%TO.P,J2,SH2*%
X132650000Y-79200000D03*
%TD*%
D11*
%TO.P,U2,4,SDA*%
%TO.N,SDA*%
X99822000Y-108046000D03*
%TO.P,U2,3,SCL*%
%TO.N,SCL*%
X102362000Y-108046000D03*
%TO.P,U2,2,GND*%
%TO.N,GND*%
X104902000Y-108046000D03*
D10*
%TO.P,U2,1,VIN*%
%TO.N,+3.3V*%
X107442000Y-108046000D03*
%TD*%
D19*
%TO.P,U1,1,5V*%
%TO.N,+5V*%
X111180000Y-79000000D03*
D20*
%TO.P,U1,2,GND*%
%TO.N,GND*%
X111180000Y-81540000D03*
%TO.P,U1,3,3V3*%
%TO.N,+3.3V*%
X111180000Y-84080000D03*
%TO.P,U1,4,GPIO1*%
%TO.N,unconnected-(U1-GPIO1-Pad4)*%
X111180000Y-86620000D03*
%TO.P,U1,5,GPIO2*%
%TO.N,DHT_READING*%
X111180000Y-89160000D03*
%TO.P,U1,6,GPIO3*%
%TO.N,unconnected-(U1-GPIO3-Pad6)*%
X111180000Y-91700000D03*
%TO.P,U1,7,GPIO4*%
%TO.N,unconnected-(U1-GPIO4-Pad7)*%
X111180000Y-94240000D03*
%TO.P,U1,8,GPIO5*%
%TO.N,SDA*%
X111180000Y-96780000D03*
%TO.P,U1,9,GPIO6*%
%TO.N,SCL*%
X111180000Y-99320000D03*
%TO.P,U1,10,GPIO7*%
%TO.N,CAN_TX*%
X129180000Y-99320000D03*
%TO.P,U1,11,GPIO8*%
%TO.N,CAN_RX*%
X129180000Y-96780000D03*
%TO.P,U1,12,GPIO9*%
%TO.N,unconnected-(U1-GPIO9-Pad12)*%
X129180000Y-94240000D03*
%TO.P,U1,13,GPIO10*%
%TO.N,unconnected-(U1-GPIO10-Pad13)*%
X129180000Y-91700000D03*
%TO.P,U1,14,GPIO11*%
%TO.N,unconnected-(U1-GPIO11-Pad14)*%
X129180000Y-89160000D03*
%TO.P,U1,15,GPIO12*%
%TO.N,unconnected-(U1-GPIO12-Pad15)*%
X129180000Y-86620000D03*
%TO.P,U1,16,GPIO13*%
%TO.N,unconnected-(U1-GPIO13-Pad16)*%
X129180000Y-84080000D03*
%TO.P,U1,17,RX*%
%TO.N,unconnected-(U1-RX-Pad17)*%
X129180000Y-81540000D03*
%TO.P,U1,18,TX*%
%TO.N,unconnected-(U1-TX-Pad18)*%
X129180000Y-79000000D03*
D21*
%TO.P,U1,19,GPIO45*%
%TO.N,unconnected-(U1-GPIO45-Pad19)*%
X124870000Y-86200000D03*
%TO.P,U1,20,GPIO42*%
%TO.N,unconnected-(U1-GPIO42-Pad20)*%
X124870000Y-87790000D03*
%TO.P,U1,21,GPIO41*%
%TO.N,unconnected-(U1-GPIO41-Pad21)*%
X124870000Y-89380000D03*
%TO.P,U1,22,GPIO40*%
%TO.N,unconnected-(U1-GPIO40-Pad22)*%
X124870000Y-90970000D03*
%TO.P,U1,23,GPIO39*%
%TO.N,unconnected-(U1-GPIO39-Pad23)*%
X124870000Y-92560000D03*
%TO.P,U1,24,GPIO38*%
%TO.N,unconnected-(U1-GPIO38-Pad24)*%
X124870000Y-94150000D03*
%TO.P,U1,25,GPIO18*%
%TO.N,unconnected-(U1-GPIO18-Pad25)*%
X124870000Y-95740000D03*
%TO.P,U1,26,GPIO17*%
%TO.N,unconnected-(U1-GPIO17-Pad26)*%
X124870000Y-97330000D03*
%TD*%
D22*
%TO.N,GND*%
X143081000Y-90294000D03*
X143716000Y-96263000D03*
X138001000Y-102994000D03*
X105743000Y-82039000D03*
%TD*%
D23*
%TO.N,SDA*%
X111180000Y-96780000D02*
X117354000Y-96780000D01*
X117354000Y-96780000D02*
X122507000Y-101933000D01*
X122507000Y-101933000D02*
X122507000Y-112697000D01*
X122507000Y-112697000D02*
X119002000Y-116202000D01*
X119002000Y-116202000D02*
X103248000Y-116202000D01*
X103248000Y-116202000D02*
X99822000Y-112776000D01*
X99822000Y-112776000D02*
X99822000Y-108046000D01*
%TO.N,SCL*%
X111180000Y-99320000D02*
X115658000Y-99320000D01*
X102362000Y-112014000D02*
X102362000Y-108046000D01*
X115658000Y-99320000D02*
X119967000Y-103629000D01*
X119967000Y-103629000D02*
X119967000Y-111808000D01*
X104391000Y-114043000D02*
X102362000Y-112014000D01*
X119967000Y-111808000D02*
X117732000Y-114043000D01*
X117732000Y-114043000D02*
X104391000Y-114043000D01*
D24*
%TO.N,+3.3V*%
X140400000Y-93270000D02*
X144279000Y-93270000D01*
X144279000Y-93270000D02*
X148796000Y-97787000D01*
X148796000Y-97787000D02*
X148796000Y-98676000D01*
D25*
%TO.N,+5V*%
X115748000Y-119380000D02*
X115748000Y-121920000D01*
D23*
%TO.N,+12V*%
X142748000Y-119380000D02*
X142748000Y-121920000D01*
D26*
%TO.N,GND*%
X140850000Y-86000000D02*
X140850000Y-89587000D01*
X140850000Y-89587000D02*
X141557000Y-90294000D01*
X141557000Y-90294000D02*
X143081000Y-90294000D01*
D27*
X141993000Y-94540000D02*
X143716000Y-96263000D01*
X140400000Y-94540000D02*
X141993000Y-94540000D01*
X137357000Y-102350000D02*
X138001000Y-102994000D01*
X135200000Y-102350000D02*
X137357000Y-102350000D01*
D24*
X106242000Y-81540000D02*
X105743000Y-82039000D01*
X111180000Y-81540000D02*
X106242000Y-81540000D01*
D23*
X142718000Y-107950000D02*
X142748000Y-107920000D01*
D27*
%TO.N,CANL*%
X134091000Y-86000000D02*
X135850000Y-86000000D01*
X132461000Y-91821000D02*
X132461000Y-87630000D01*
X135300000Y-93270000D02*
X133910000Y-93270000D01*
X133910000Y-93270000D02*
X132461000Y-91821000D01*
X132461000Y-87630000D02*
X134091000Y-86000000D01*
D24*
%TO.N,Net-(IC1-RS)*%
X135300000Y-95810000D02*
X135300000Y-99150000D01*
D26*
X135300000Y-99150000D02*
X135200000Y-99250000D01*
D27*
%TO.N,CANH*%
X137287000Y-94107000D02*
X137287000Y-90932000D01*
X138350000Y-89869000D02*
X138350000Y-86000000D01*
X135300000Y-94540000D02*
X136854000Y-94540000D01*
X136854000Y-94540000D02*
X137287000Y-94107000D01*
X137287000Y-90932000D02*
X138350000Y-89869000D01*
%TO.N,CAN_TX*%
X140400000Y-95810000D02*
X140400000Y-98614000D01*
D28*
X137795000Y-101219000D02*
X133223000Y-101219000D01*
D27*
X131318000Y-99314000D02*
X129174000Y-99314000D01*
X133223000Y-101219000D02*
X131318000Y-99314000D01*
D26*
X129174000Y-99314000D02*
X129180000Y-99320000D01*
D27*
X140400000Y-98614000D02*
X137795000Y-101219000D01*
%TO.N,CAN_RX*%
X132207000Y-97663000D02*
X131324000Y-96780000D01*
X131324000Y-96780000D02*
X129180000Y-96780000D01*
D28*
X136271000Y-100457000D02*
X137795000Y-98933000D01*
X132207000Y-98552000D02*
X134112000Y-100457000D01*
D27*
X138886000Y-92000000D02*
X140400000Y-92000000D01*
D28*
X134112000Y-100457000D02*
X136271000Y-100457000D01*
D27*
X138303000Y-98425000D02*
X138303000Y-92583000D01*
X138303000Y-92583000D02*
X138886000Y-92000000D01*
X137795000Y-98933000D02*
X138303000Y-98425000D01*
X132207000Y-98552000D02*
X132207000Y-97663000D01*
D23*
%TO.N,+12V*%
X143350000Y-86000000D02*
X148103000Y-86000000D01*
X148103000Y-86000000D02*
X152908000Y-90805000D01*
X145923000Y-116205000D02*
X142748000Y-119380000D01*
X148717000Y-116205000D02*
X145923000Y-116205000D01*
X152908000Y-90805000D02*
X152908000Y-112014000D01*
X152908000Y-112014000D02*
X148717000Y-116205000D01*
%TO.N,SDA*%
X98044000Y-106268000D02*
X99822000Y-108046000D01*
X98044000Y-87884000D02*
X98044000Y-106268000D01*
X99695000Y-108173000D02*
X99822000Y-108046000D01*
%TO.N,SCL*%
X102362000Y-105791000D02*
X102362000Y-108046000D01*
X100584000Y-104013000D02*
X102362000Y-105791000D01*
X100584000Y-87884000D02*
X100584000Y-104013000D01*
%TO.N,+5V*%
X111180000Y-79000000D02*
X101721000Y-79000000D01*
X101346000Y-119380000D02*
X114248000Y-119380000D01*
X93726000Y-86995000D02*
X93726000Y-111760000D01*
X101721000Y-79000000D02*
X93726000Y-86995000D01*
X93726000Y-111760000D02*
X101346000Y-119380000D01*
%TD*%
%TA.AperFunction,Conductor*%
%TO.N,+3.3V*%
G36*
X131199633Y-77025185D02*
G01*
X131245388Y-77077989D01*
X131255883Y-77142752D01*
X131249500Y-77202127D01*
X131249500Y-77202134D01*
X131249500Y-77202135D01*
X131249500Y-81197870D01*
X131249501Y-81197876D01*
X131255908Y-81257483D01*
X131306202Y-81392328D01*
X131306206Y-81392335D01*
X131392452Y-81507544D01*
X131392455Y-81507547D01*
X131507664Y-81593793D01*
X131507671Y-81593797D01*
X131642517Y-81644091D01*
X131642516Y-81644091D01*
X131649444Y-81644835D01*
X131702127Y-81650500D01*
X133597872Y-81650499D01*
X133657483Y-81644091D01*
X133792331Y-81593796D01*
X133907546Y-81507546D01*
X133993796Y-81392331D01*
X134044091Y-81257483D01*
X134050500Y-81197873D01*
X134050499Y-77202128D01*
X134044116Y-77142752D01*
X134056522Y-77073995D01*
X134104133Y-77022858D01*
X134167406Y-77005500D01*
X145032594Y-77005500D01*
X145099633Y-77025185D01*
X145145388Y-77077989D01*
X145155883Y-77142752D01*
X145149500Y-77202127D01*
X145149500Y-77202134D01*
X145149500Y-77202135D01*
X145149500Y-81197870D01*
X145149501Y-81197876D01*
X145155908Y-81257483D01*
X145206202Y-81392328D01*
X145206206Y-81392335D01*
X145292452Y-81507544D01*
X145292455Y-81507547D01*
X145407664Y-81593793D01*
X145407671Y-81593797D01*
X145542517Y-81644091D01*
X145542516Y-81644091D01*
X145549444Y-81644835D01*
X145602127Y-81650500D01*
X147497872Y-81650499D01*
X147557483Y-81644091D01*
X147692331Y-81593796D01*
X147807546Y-81507546D01*
X147893796Y-81392331D01*
X147944091Y-81257483D01*
X147950500Y-81197873D01*
X147950500Y-80881902D01*
X150499500Y-80881902D01*
X150499500Y-81118097D01*
X150536446Y-81351368D01*
X150609433Y-81575996D01*
X150716657Y-81786433D01*
X150855483Y-81977510D01*
X151022490Y-82144517D01*
X151213567Y-82283343D01*
X151312991Y-82334002D01*
X151424003Y-82390566D01*
X151424005Y-82390566D01*
X151424008Y-82390568D01*
X151508964Y-82418172D01*
X151648631Y-82463553D01*
X151881903Y-82500500D01*
X151881908Y-82500500D01*
X152118097Y-82500500D01*
X152351368Y-82463553D01*
X152575992Y-82390568D01*
X152786433Y-82283343D01*
X152977510Y-82144517D01*
X153144517Y-81977510D01*
X153283343Y-81786433D01*
X153390568Y-81575992D01*
X153463553Y-81351368D01*
X153478423Y-81257482D01*
X153500500Y-81118097D01*
X153500500Y-80881902D01*
X153463553Y-80648631D01*
X153390566Y-80424003D01*
X153283342Y-80213566D01*
X153144517Y-80022490D01*
X152977510Y-79855483D01*
X152786433Y-79716657D01*
X152575996Y-79609433D01*
X152351368Y-79536446D01*
X152118097Y-79499500D01*
X152118092Y-79499500D01*
X151881908Y-79499500D01*
X151881903Y-79499500D01*
X151648631Y-79536446D01*
X151424003Y-79609433D01*
X151213566Y-79716657D01*
X151178224Y-79742335D01*
X151022490Y-79855483D01*
X151022488Y-79855485D01*
X151022487Y-79855485D01*
X150855485Y-80022487D01*
X150855485Y-80022488D01*
X150855483Y-80022490D01*
X150795862Y-80104550D01*
X150716657Y-80213566D01*
X150609433Y-80424003D01*
X150536446Y-80648631D01*
X150499500Y-80881902D01*
X147950500Y-80881902D01*
X147950499Y-77202128D01*
X147944116Y-77142752D01*
X147956522Y-77073995D01*
X148004133Y-77022858D01*
X148067406Y-77005500D01*
X155575500Y-77005500D01*
X155642539Y-77025185D01*
X155688294Y-77077989D01*
X155699500Y-77129500D01*
X155699500Y-124975500D01*
X155679815Y-125042539D01*
X155627011Y-125088294D01*
X155575500Y-125099500D01*
X88333500Y-125099500D01*
X88266461Y-125079815D01*
X88220706Y-125027011D01*
X88209500Y-124975500D01*
X88209500Y-119881902D01*
X90499500Y-119881902D01*
X90499500Y-120118097D01*
X90536446Y-120351368D01*
X90609433Y-120575996D01*
X90691817Y-120737682D01*
X90716657Y-120786433D01*
X90855483Y-120977510D01*
X91022490Y-121144517D01*
X91213567Y-121283343D01*
X91312991Y-121334002D01*
X91424003Y-121390566D01*
X91424005Y-121390566D01*
X91424008Y-121390568D01*
X91544412Y-121429689D01*
X91648631Y-121463553D01*
X91881903Y-121500500D01*
X91881908Y-121500500D01*
X92118097Y-121500500D01*
X92351368Y-121463553D01*
X92575992Y-121390568D01*
X92786433Y-121283343D01*
X92977510Y-121144517D01*
X93144517Y-120977510D01*
X93283343Y-120786433D01*
X93390568Y-120575992D01*
X93463553Y-120351368D01*
X93471660Y-120300185D01*
X93500500Y-120118097D01*
X93500500Y-119881902D01*
X93463553Y-119648631D01*
X93390566Y-119424003D01*
X93283342Y-119213566D01*
X93144517Y-119022490D01*
X92977510Y-118855483D01*
X92786433Y-118716657D01*
X92575996Y-118609433D01*
X92351368Y-118536446D01*
X92118097Y-118499500D01*
X92118092Y-118499500D01*
X91881908Y-118499500D01*
X91881903Y-118499500D01*
X91648631Y-118536446D01*
X91424003Y-118609433D01*
X91213566Y-118716657D01*
X91104550Y-118795862D01*
X91022490Y-118855483D01*
X91022488Y-118855485D01*
X91022487Y-118855485D01*
X90855485Y-119022487D01*
X90855485Y-119022488D01*
X90855483Y-119022490D01*
X90795862Y-119104550D01*
X90716657Y-119213566D01*
X90609433Y-119424003D01*
X90536446Y-119648631D01*
X90499500Y-119881902D01*
X88209500Y-119881902D01*
X88209500Y-86906310D01*
X92825500Y-86906310D01*
X92825500Y-111848696D01*
X92860103Y-112022659D01*
X92860104Y-112022663D01*
X92860105Y-112022666D01*
X92879988Y-112070666D01*
X92927987Y-112186547D01*
X92960060Y-112234547D01*
X93026536Y-112334036D01*
X93026537Y-112334037D01*
X93026537Y-112334038D01*
X100646536Y-119954035D01*
X100771965Y-120079464D01*
X100771966Y-120079465D01*
X100919446Y-120178009D01*
X100919453Y-120178013D01*
X101063028Y-120237483D01*
X101083334Y-120245894D01*
X101083338Y-120245894D01*
X101083339Y-120245895D01*
X101257305Y-120280500D01*
X101257308Y-120280500D01*
X101257309Y-120280500D01*
X112683859Y-120280500D01*
X112750898Y-120300185D01*
X112796653Y-120352989D01*
X112800030Y-120361140D01*
X112804204Y-120372331D01*
X112804205Y-120372332D01*
X112804206Y-120372335D01*
X112890452Y-120487544D01*
X112890455Y-120487547D01*
X112974861Y-120550734D01*
X113016732Y-120606668D01*
X113021716Y-120676359D01*
X112988230Y-120737682D01*
X112974861Y-120749266D01*
X112890455Y-120812452D01*
X112890452Y-120812455D01*
X112804206Y-120927664D01*
X112804202Y-120927671D01*
X112753908Y-121062517D01*
X112747501Y-121122116D01*
X112747501Y-121122123D01*
X112747500Y-121122135D01*
X112747500Y-122717870D01*
X112747501Y-122717876D01*
X112753908Y-122777483D01*
X112804202Y-122912328D01*
X112804206Y-122912335D01*
X112890452Y-123027544D01*
X112890455Y-123027547D01*
X113005664Y-123113793D01*
X113005671Y-123113797D01*
X113140517Y-123164091D01*
X113140516Y-123164091D01*
X113147444Y-123164835D01*
X113200127Y-123170500D01*
X115206693Y-123170499D01*
X115245009Y-123176567D01*
X115431757Y-123237246D01*
X115641713Y-123270500D01*
X115641714Y-123270500D01*
X115854286Y-123270500D01*
X115854287Y-123270500D01*
X116064243Y-123237246D01*
X116266412Y-123171557D01*
X116455816Y-123075051D01*
X116521200Y-123027547D01*
X116627786Y-122950109D01*
X116627788Y-122950106D01*
X116627792Y-122950104D01*
X116778104Y-122799792D01*
X116778106Y-122799788D01*
X116778109Y-122799786D01*
X116903048Y-122627820D01*
X116903047Y-122627820D01*
X116903051Y-122627816D01*
X116999557Y-122438412D01*
X117065246Y-122236243D01*
X117098500Y-122026287D01*
X117098500Y-121813713D01*
X117065246Y-121603757D01*
X116999557Y-121401588D01*
X116903051Y-121212184D01*
X116903049Y-121212181D01*
X116903048Y-121212179D01*
X116775241Y-121036266D01*
X116776108Y-121035635D01*
X116749641Y-120976581D01*
X116748500Y-120959800D01*
X116748500Y-120340199D01*
X116768185Y-120273160D01*
X116777471Y-120260664D01*
X116903048Y-120087820D01*
X116903047Y-120087820D01*
X116903051Y-120087816D01*
X116999557Y-119898412D01*
X117065246Y-119696243D01*
X117098500Y-119486287D01*
X117098500Y-119273713D01*
X117065246Y-119063757D01*
X116999557Y-118861588D01*
X116903051Y-118672184D01*
X116903049Y-118672181D01*
X116903048Y-118672179D01*
X116778109Y-118500213D01*
X116627786Y-118349890D01*
X116455820Y-118224951D01*
X116266414Y-118128444D01*
X116266413Y-118128443D01*
X116266412Y-118128443D01*
X116064243Y-118062754D01*
X116064241Y-118062753D01*
X116064240Y-118062753D01*
X115902957Y-118037208D01*
X115854287Y-118029500D01*
X115641713Y-118029500D01*
X115593042Y-118037208D01*
X115431760Y-118062753D01*
X115431757Y-118062754D01*
X115245012Y-118123431D01*
X115206696Y-118129500D01*
X113200129Y-118129500D01*
X113200123Y-118129501D01*
X113140516Y-118135908D01*
X113005671Y-118186202D01*
X113005664Y-118186206D01*
X112890455Y-118272452D01*
X112890452Y-118272455D01*
X112804206Y-118387664D01*
X112804204Y-118387668D01*
X112804204Y-118387669D01*
X112800039Y-118398834D01*
X112758171Y-118454766D01*
X112692707Y-118479184D01*
X112683859Y-118479500D01*
X101770361Y-118479500D01*
X101703322Y-118459815D01*
X101682680Y-118443181D01*
X94662819Y-111423319D01*
X94629334Y-111361996D01*
X94626500Y-111335638D01*
X94626500Y-87777713D01*
X96693500Y-87777713D01*
X96693500Y-87990287D01*
X96726754Y-88200243D01*
X96786794Y-88385027D01*
X96792444Y-88402414D01*
X96888951Y-88591820D01*
X97013890Y-88763786D01*
X97107181Y-88857077D01*
X97140666Y-88918400D01*
X97143500Y-88944758D01*
X97143500Y-106356696D01*
X97178103Y-106530658D01*
X97178105Y-106530666D01*
X97212046Y-106612606D01*
X97212046Y-106612607D01*
X97245984Y-106694542D01*
X97245985Y-106694544D01*
X97305063Y-106782960D01*
X97344537Y-106842038D01*
X97344540Y-106842041D01*
X98435181Y-107932680D01*
X98468666Y-107994003D01*
X98471500Y-108020361D01*
X98471500Y-108152286D01*
X98504753Y-108362239D01*
X98570444Y-108564414D01*
X98666951Y-108753820D01*
X98791890Y-108925786D01*
X98885181Y-109019077D01*
X98918666Y-109080400D01*
X98921500Y-109106758D01*
X98921500Y-112864696D01*
X98940391Y-112959666D01*
X98956105Y-113038666D01*
X98990046Y-113120606D01*
X99023987Y-113202547D01*
X99052345Y-113244987D01*
X99056508Y-113251217D01*
X99122537Y-113350038D01*
X99122538Y-113350039D01*
X102548536Y-116776035D01*
X102673962Y-116901461D01*
X102673966Y-116901465D01*
X102728389Y-116937829D01*
X102821453Y-117000013D01*
X102821454Y-117000013D01*
X102821455Y-117000014D01*
X102869452Y-117019895D01*
X102985334Y-117067895D01*
X103159304Y-117102499D01*
X103159308Y-117102500D01*
X103159309Y-117102500D01*
X119090693Y-117102500D01*
X119090694Y-117102499D01*
X119264666Y-117067895D01*
X119346606Y-117033953D01*
X119428547Y-117000013D01*
X119516959Y-116940936D01*
X119576036Y-116901464D01*
X121391248Y-115086250D01*
X123206458Y-113271042D01*
X123206458Y-113271040D01*
X123206464Y-113271035D01*
X123223869Y-113244987D01*
X123305013Y-113123547D01*
X123324895Y-113075547D01*
X123372895Y-112959666D01*
X123407500Y-112785691D01*
X123407500Y-112608308D01*
X123407500Y-107813713D01*
X141397500Y-107813713D01*
X141397500Y-108026286D01*
X141417456Y-108152287D01*
X141430754Y-108236243D01*
X141450170Y-108296000D01*
X141496444Y-108438414D01*
X141592951Y-108627820D01*
X141717890Y-108799786D01*
X141868213Y-108950109D01*
X142040182Y-109075050D01*
X142048946Y-109079516D01*
X142099742Y-109127491D01*
X142116536Y-109195312D01*
X142093998Y-109261447D01*
X142048946Y-109300484D01*
X142040182Y-109304949D01*
X141868213Y-109429890D01*
X141717890Y-109580213D01*
X141592951Y-109752179D01*
X141496444Y-109941585D01*
X141430753Y-110143760D01*
X141397500Y-110353713D01*
X141397500Y-110566286D01*
X141430753Y-110776239D01*
X141496444Y-110978414D01*
X141592951Y-111167820D01*
X141717890Y-111339786D01*
X141868213Y-111490109D01*
X142040179Y-111615048D01*
X142040181Y-111615049D01*
X142040184Y-111615051D01*
X142229588Y-111711557D01*
X142431757Y-111777246D01*
X142641713Y-111810500D01*
X142641714Y-111810500D01*
X142854286Y-111810500D01*
X142854287Y-111810500D01*
X143064243Y-111777246D01*
X143250990Y-111716568D01*
X143289308Y-111710499D01*
X145295871Y-111710499D01*
X145295872Y-111710499D01*
X145355483Y-111704091D01*
X145490331Y-111653796D01*
X145605546Y-111567546D01*
X145691796Y-111452331D01*
X145742091Y-111317483D01*
X145748500Y-111257873D01*
X145748499Y-109662128D01*
X145742091Y-109602517D01*
X145733772Y-109580213D01*
X145691797Y-109467671D01*
X145691793Y-109467664D01*
X145605547Y-109352456D01*
X145605548Y-109352456D01*
X145605546Y-109352454D01*
X145521136Y-109289265D01*
X145479267Y-109233333D01*
X145474283Y-109163641D01*
X145507768Y-109102318D01*
X145521130Y-109090739D01*
X145605546Y-109027546D01*
X145691796Y-108912331D01*
X145742091Y-108777483D01*
X145748500Y-108717873D01*
X145748499Y-107122128D01*
X145742091Y-107062517D01*
X145738273Y-107052281D01*
X145691797Y-106927671D01*
X145691793Y-106927664D01*
X145605547Y-106812455D01*
X145605544Y-106812452D01*
X145490335Y-106726206D01*
X145490328Y-106726202D01*
X145355482Y-106675908D01*
X145355483Y-106675908D01*
X145295883Y-106669501D01*
X145295881Y-106669500D01*
X145295873Y-106669500D01*
X145295865Y-106669500D01*
X143289304Y-106669500D01*
X143250987Y-106663431D01*
X143064243Y-106602754D01*
X143064241Y-106602753D01*
X143064240Y-106602753D01*
X142902957Y-106577208D01*
X142854287Y-106569500D01*
X142641713Y-106569500D01*
X142593042Y-106577208D01*
X142431760Y-106602753D01*
X142229585Y-106668444D01*
X142040179Y-106764951D01*
X141868213Y-106889890D01*
X141717890Y-107040213D01*
X141592951Y-107212179D01*
X141496444Y-107401585D01*
X141430753Y-107603760D01*
X141397500Y-107813713D01*
X123407500Y-107813713D01*
X123407500Y-105813713D01*
X132007500Y-105813713D01*
X132007500Y-106026286D01*
X132040753Y-106236239D01*
X132040753Y-106236241D01*
X132040754Y-106236243D01*
X132101431Y-106422988D01*
X132107500Y-106461303D01*
X132107500Y-106967870D01*
X132107501Y-106967876D01*
X132113908Y-107027483D01*
X132164202Y-107162328D01*
X132164206Y-107162335D01*
X132250452Y-107277544D01*
X132250455Y-107277547D01*
X132365664Y-107363793D01*
X132365671Y-107363797D01*
X132500517Y-107414091D01*
X132500516Y-107414091D01*
X132504656Y-107414536D01*
X132560127Y-107420500D01*
X134155872Y-107420499D01*
X134215483Y-107414091D01*
X134350331Y-107363796D01*
X134465546Y-107277546D01*
X134551796Y-107162331D01*
X134602091Y-107027483D01*
X134608500Y-106967873D01*
X134608499Y-106461307D01*
X134614568Y-106422990D01*
X134636108Y-106356696D01*
X134675246Y-106236243D01*
X134708500Y-106026287D01*
X134708500Y-105813713D01*
X134675246Y-105603757D01*
X134637315Y-105487019D01*
X134614568Y-105417009D01*
X134608499Y-105378691D01*
X134608499Y-104872129D01*
X134608498Y-104872123D01*
X134608497Y-104872116D01*
X134602091Y-104812517D01*
X134551796Y-104677669D01*
X134551795Y-104677668D01*
X134551793Y-104677664D01*
X134465547Y-104562455D01*
X134465544Y-104562452D01*
X134350335Y-104476206D01*
X134350328Y-104476202D01*
X134215482Y-104425908D01*
X134215483Y-104425908D01*
X134155883Y-104419501D01*
X134155881Y-104419500D01*
X134155873Y-104419500D01*
X134155864Y-104419500D01*
X132560129Y-104419500D01*
X132560123Y-104419501D01*
X132500516Y-104425908D01*
X132365671Y-104476202D01*
X132365664Y-104476206D01*
X132250455Y-104562452D01*
X132250452Y-104562455D01*
X132164206Y-104677664D01*
X132164202Y-104677671D01*
X132113908Y-104812517D01*
X132107501Y-104872116D01*
X132107501Y-104872123D01*
X132107500Y-104872135D01*
X132107500Y-105378696D01*
X132101431Y-105417014D01*
X132040753Y-105603760D01*
X132007500Y-105813713D01*
X123407500Y-105813713D01*
X123407500Y-101844309D01*
X123407500Y-101844306D01*
X123407499Y-101844304D01*
X123372896Y-101670341D01*
X123372893Y-101670332D01*
X123305016Y-101506459D01*
X123305009Y-101506446D01*
X123206465Y-101358966D01*
X123206464Y-101358965D01*
X123081035Y-101233536D01*
X121861999Y-100014500D01*
X117928041Y-96080540D01*
X117928038Y-96080537D01*
X117851658Y-96029502D01*
X117780544Y-95981985D01*
X117780542Y-95981984D01*
X117698607Y-95948046D01*
X117698606Y-95948046D01*
X117616666Y-95914105D01*
X117616658Y-95914103D01*
X117442696Y-95879500D01*
X117442692Y-95879500D01*
X117442691Y-95879500D01*
X112521439Y-95879500D01*
X112454400Y-95859815D01*
X112447128Y-95854767D01*
X112422331Y-95836204D01*
X112422328Y-95836202D01*
X112287482Y-95785908D01*
X112287483Y-95785908D01*
X112227883Y-95779501D01*
X112227881Y-95779500D01*
X112227873Y-95779500D01*
X112227864Y-95779500D01*
X110132129Y-95779500D01*
X110132123Y-95779501D01*
X110072516Y-95785908D01*
X109937671Y-95836202D01*
X109937664Y-95836206D01*
X109822455Y-95922452D01*
X109822452Y-95922455D01*
X109736206Y-96037664D01*
X109736202Y-96037671D01*
X109685908Y-96172517D01*
X109679501Y-96232116D01*
X109679500Y-96232135D01*
X109679500Y-97327870D01*
X109679501Y-97327876D01*
X109685908Y-97387483D01*
X109736202Y-97522328D01*
X109736206Y-97522335D01*
X109822452Y-97637544D01*
X109822455Y-97637547D01*
X109937664Y-97723793D01*
X109937671Y-97723797D01*
X110072517Y-97774091D01*
X110072516Y-97774091D01*
X110079444Y-97774835D01*
X110132127Y-97780500D01*
X112227872Y-97780499D01*
X112287483Y-97774091D01*
X112422331Y-97723796D01*
X112447128Y-97705233D01*
X112512592Y-97680816D01*
X112521439Y-97680500D01*
X116929638Y-97680500D01*
X116996677Y-97700185D01*
X117017319Y-97716819D01*
X121570181Y-102269680D01*
X121603666Y-102331003D01*
X121606500Y-102357361D01*
X121606500Y-112272638D01*
X121586815Y-112339677D01*
X121570181Y-112360319D01*
X118665319Y-115265181D01*
X118603996Y-115298666D01*
X118577638Y-115301500D01*
X103672361Y-115301500D01*
X103605322Y-115281815D01*
X103584680Y-115265181D01*
X100758819Y-112439319D01*
X100725334Y-112377996D01*
X100722500Y-112351638D01*
X100722500Y-109106758D01*
X100742185Y-109039719D01*
X100758819Y-109019077D01*
X100852104Y-108925792D01*
X100852106Y-108925788D01*
X100852109Y-108925786D01*
X100977048Y-108753820D01*
X100977047Y-108753820D01*
X100977051Y-108753816D01*
X100981514Y-108745054D01*
X101029488Y-108694259D01*
X101097308Y-108677463D01*
X101163444Y-108699999D01*
X101202486Y-108745056D01*
X101206951Y-108753820D01*
X101331890Y-108925786D01*
X101425181Y-109019077D01*
X101458666Y-109080400D01*
X101461500Y-109106758D01*
X101461500Y-112102696D01*
X101496103Y-112276658D01*
X101496105Y-112276666D01*
X101519869Y-112334036D01*
X101563987Y-112440547D01*
X101608700Y-112507464D01*
X101612623Y-112513335D01*
X101612624Y-112513337D01*
X101662537Y-112588038D01*
X101662540Y-112588041D01*
X103691536Y-114617035D01*
X103816962Y-114742461D01*
X103816966Y-114742465D01*
X103964446Y-114841009D01*
X103964459Y-114841016D01*
X104046392Y-114874953D01*
X104128334Y-114908894D01*
X104170935Y-114917368D01*
X104302305Y-114943500D01*
X104302308Y-114943500D01*
X117820693Y-114943500D01*
X117820694Y-114943499D01*
X117994666Y-114908895D01*
X118076606Y-114874953D01*
X118158547Y-114841013D01*
X118246959Y-114781936D01*
X118306036Y-114742464D01*
X120666463Y-112382036D01*
X120666464Y-112382035D01*
X120765013Y-112234547D01*
X120832894Y-112070666D01*
X120867500Y-111896691D01*
X120867500Y-103540309D01*
X120867500Y-103540308D01*
X120832895Y-103366334D01*
X120771724Y-103218656D01*
X120765013Y-103202453D01*
X120678412Y-103072846D01*
X120666465Y-103054966D01*
X120661999Y-103050500D01*
X120541035Y-102929536D01*
X119465012Y-101853513D01*
X116232041Y-98620540D01*
X116232038Y-98620537D01*
X116172768Y-98580935D01*
X116172767Y-98580934D01*
X116167880Y-98577669D01*
X116084547Y-98521987D01*
X115998769Y-98486457D01*
X115992955Y-98484048D01*
X115992950Y-98484046D01*
X115920666Y-98454105D01*
X115920658Y-98454103D01*
X115746696Y-98419500D01*
X115746692Y-98419500D01*
X115746691Y-98419500D01*
X112521439Y-98419500D01*
X112454400Y-98399815D01*
X112447128Y-98394767D01*
X112422331Y-98376204D01*
X112422328Y-98376202D01*
X112287482Y-98325908D01*
X112287483Y-98325908D01*
X112227883Y-98319501D01*
X112227881Y-98319500D01*
X112227873Y-98319500D01*
X112227864Y-98319500D01*
X110132129Y-98319500D01*
X110132123Y-98319501D01*
X110072516Y-98325908D01*
X109937671Y-98376202D01*
X109937664Y-98376206D01*
X109822455Y-98462452D01*
X109822452Y-98462455D01*
X109736206Y-98577664D01*
X109736202Y-98577671D01*
X109685908Y-98712517D01*
X109679501Y-98772116D01*
X109679500Y-98772135D01*
X109679500Y-99867870D01*
X109679501Y-99867876D01*
X109685908Y-99927483D01*
X109736202Y-100062328D01*
X109736206Y-100062335D01*
X109822452Y-100177544D01*
X109822455Y-100177547D01*
X109937664Y-100263793D01*
X109937671Y-100263797D01*
X110072517Y-100314091D01*
X110072516Y-100314091D01*
X110079444Y-100314835D01*
X110132127Y-100320500D01*
X112227872Y-100320499D01*
X112287483Y-100314091D01*
X112422331Y-100263796D01*
X112447128Y-100245233D01*
X112512592Y-100220816D01*
X112521439Y-100220500D01*
X115233638Y-100220500D01*
X115300677Y-100240185D01*
X115321319Y-100256819D01*
X119030181Y-103965680D01*
X119063666Y-104027003D01*
X119066500Y-104053361D01*
X119066500Y-111383638D01*
X119046815Y-111450677D01*
X119030181Y-111471319D01*
X117395319Y-113106181D01*
X117333996Y-113139666D01*
X117307638Y-113142500D01*
X104815361Y-113142500D01*
X104748322Y-113122815D01*
X104727680Y-113106181D01*
X103298819Y-111677319D01*
X103265334Y-111615996D01*
X103262500Y-111589638D01*
X103262500Y-109106758D01*
X103282185Y-109039719D01*
X103298819Y-109019077D01*
X103392104Y-108925792D01*
X103392106Y-108925788D01*
X103392109Y-108925786D01*
X103517048Y-108753820D01*
X103517047Y-108753820D01*
X103517051Y-108753816D01*
X103521514Y-108745054D01*
X103569488Y-108694259D01*
X103637308Y-108677463D01*
X103703444Y-108699999D01*
X103742486Y-108745056D01*
X103746951Y-108753820D01*
X103871890Y-108925786D01*
X104022213Y-109076109D01*
X104194179Y-109201048D01*
X104194181Y-109201049D01*
X104194184Y-109201051D01*
X104383588Y-109297557D01*
X104585757Y-109363246D01*
X104795713Y-109396500D01*
X104795714Y-109396500D01*
X105008286Y-109396500D01*
X105008287Y-109396500D01*
X105218243Y-109363246D01*
X105420412Y-109297557D01*
X105609816Y-109201051D01*
X105651868Y-109170499D01*
X105781786Y-109076109D01*
X105781788Y-109076106D01*
X105781792Y-109076104D01*
X105932104Y-108925792D01*
X105936018Y-108920404D01*
X105991342Y-108877734D01*
X106060955Y-108871748D01*
X106122753Y-108904348D01*
X106154046Y-108954272D01*
X106157639Y-108965114D01*
X106157643Y-108965124D01*
X106249684Y-109114345D01*
X106373654Y-109238315D01*
X106522875Y-109330356D01*
X106522880Y-109330358D01*
X106689302Y-109385505D01*
X106689309Y-109385506D01*
X106792019Y-109395999D01*
X107191999Y-109395999D01*
X107192000Y-109395998D01*
X107192000Y-108479012D01*
X107249007Y-108511925D01*
X107376174Y-108546000D01*
X107507826Y-108546000D01*
X107634993Y-108511925D01*
X107692000Y-108479012D01*
X107692000Y-109395999D01*
X108091972Y-109395999D01*
X108091986Y-109395998D01*
X108194697Y-109385505D01*
X108361119Y-109330358D01*
X108361124Y-109330356D01*
X108510345Y-109238315D01*
X108634315Y-109114345D01*
X108726356Y-108965124D01*
X108726358Y-108965119D01*
X108781505Y-108798697D01*
X108781506Y-108798690D01*
X108791999Y-108695986D01*
X108792000Y-108695973D01*
X108792000Y-108296000D01*
X107875012Y-108296000D01*
X107907925Y-108238993D01*
X107942000Y-108111826D01*
X107942000Y-107980174D01*
X107907925Y-107853007D01*
X107875012Y-107796000D01*
X108791999Y-107796000D01*
X108791999Y-107396028D01*
X108791998Y-107396013D01*
X108781505Y-107293302D01*
X108736608Y-107157810D01*
X108736607Y-107157808D01*
X108726359Y-107126883D01*
X108726356Y-107126875D01*
X108723432Y-107122135D01*
X112747500Y-107122135D01*
X112747500Y-108717870D01*
X112747501Y-108717876D01*
X112753908Y-108777483D01*
X112804202Y-108912328D01*
X112804206Y-108912335D01*
X112890452Y-109027544D01*
X112890455Y-109027547D01*
X112974861Y-109090734D01*
X113016732Y-109146668D01*
X113021716Y-109216359D01*
X112988230Y-109277682D01*
X112974861Y-109289266D01*
X112890455Y-109352452D01*
X112890452Y-109352455D01*
X112804206Y-109467664D01*
X112804202Y-109467671D01*
X112753908Y-109602517D01*
X112747501Y-109662116D01*
X112747501Y-109662123D01*
X112747500Y-109662135D01*
X112747500Y-111257870D01*
X112747501Y-111257876D01*
X112753908Y-111317483D01*
X112804202Y-111452328D01*
X112804206Y-111452335D01*
X112890452Y-111567544D01*
X112890455Y-111567547D01*
X113005664Y-111653793D01*
X113005671Y-111653797D01*
X113140517Y-111704091D01*
X113140516Y-111704091D01*
X113147444Y-111704835D01*
X113200127Y-111710500D01*
X115206693Y-111710499D01*
X115245009Y-111716567D01*
X115431757Y-111777246D01*
X115641713Y-111810500D01*
X115641714Y-111810500D01*
X115854286Y-111810500D01*
X115854287Y-111810500D01*
X116064243Y-111777246D01*
X116266412Y-111711557D01*
X116455816Y-111615051D01*
X116521200Y-111567547D01*
X116627786Y-111490109D01*
X116627788Y-111490106D01*
X116627792Y-111490104D01*
X116778104Y-111339792D01*
X116778106Y-111339788D01*
X116778109Y-111339786D01*
X116903048Y-111167820D01*
X116903047Y-111167820D01*
X116903051Y-111167816D01*
X116999557Y-110978412D01*
X117065246Y-110776243D01*
X117098500Y-110566287D01*
X117098500Y-110353713D01*
X117065246Y-110143757D01*
X116999557Y-109941588D01*
X116903051Y-109752184D01*
X116903049Y-109752181D01*
X116903048Y-109752179D01*
X116778109Y-109580213D01*
X116627786Y-109429890D01*
X116455820Y-109304951D01*
X116455115Y-109304591D01*
X116447054Y-109300485D01*
X116396259Y-109252512D01*
X116379463Y-109184692D01*
X116401999Y-109118556D01*
X116447054Y-109079515D01*
X116455816Y-109075051D01*
X116521200Y-109027547D01*
X116627786Y-108950109D01*
X116627788Y-108950106D01*
X116627792Y-108950104D01*
X116778104Y-108799792D01*
X116778106Y-108799788D01*
X116778109Y-108799786D01*
X116903048Y-108627820D01*
X116903047Y-108627820D01*
X116903051Y-108627816D01*
X116999557Y-108438412D01*
X117065246Y-108236243D01*
X117098500Y-108026287D01*
X117098500Y-107813713D01*
X117065246Y-107603757D01*
X116999557Y-107401588D01*
X116903051Y-107212184D01*
X116903049Y-107212181D01*
X116903048Y-107212179D01*
X116778109Y-107040213D01*
X116627786Y-106889890D01*
X116455820Y-106764951D01*
X116266414Y-106668444D01*
X116266413Y-106668443D01*
X116266412Y-106668443D01*
X116064243Y-106602754D01*
X116064241Y-106602753D01*
X116064240Y-106602753D01*
X115902957Y-106577208D01*
X115854287Y-106569500D01*
X115641713Y-106569500D01*
X115593042Y-106577208D01*
X115431760Y-106602753D01*
X115431757Y-106602754D01*
X115245012Y-106663431D01*
X115206696Y-106669500D01*
X113200129Y-106669500D01*
X113200123Y-106669501D01*
X113140516Y-106675908D01*
X113005671Y-106726202D01*
X113005664Y-106726206D01*
X112890455Y-106812452D01*
X112890452Y-106812455D01*
X112804206Y-106927664D01*
X112804202Y-106927671D01*
X112753908Y-107062517D01*
X112747501Y-107122116D01*
X112747501Y-107122123D01*
X112747500Y-107122135D01*
X108723432Y-107122135D01*
X108634315Y-106977654D01*
X108510345Y-106853684D01*
X108361124Y-106761643D01*
X108361119Y-106761641D01*
X108194697Y-106706494D01*
X108194690Y-106706493D01*
X108091986Y-106696000D01*
X107692000Y-106696000D01*
X107692000Y-107612988D01*
X107634993Y-107580075D01*
X107507826Y-107546000D01*
X107376174Y-107546000D01*
X107249007Y-107580075D01*
X107192000Y-107612988D01*
X107192000Y-106696000D01*
X106792028Y-106696000D01*
X106792012Y-106696001D01*
X106689302Y-106706494D01*
X106522880Y-106761641D01*
X106522875Y-106761643D01*
X106373654Y-106853684D01*
X106249684Y-106977654D01*
X106157643Y-107126875D01*
X106157641Y-107126881D01*
X106154046Y-107137729D01*
X106114270Y-107195171D01*
X106049753Y-107221991D01*
X105980977Y-107209672D01*
X105936020Y-107171598D01*
X105932105Y-107166209D01*
X105781786Y-107015890D01*
X105609820Y-106890951D01*
X105420414Y-106794444D01*
X105420413Y-106794443D01*
X105420412Y-106794443D01*
X105218243Y-106728754D01*
X105218241Y-106728753D01*
X105218240Y-106728753D01*
X105056957Y-106703208D01*
X105008287Y-106695500D01*
X104795713Y-106695500D01*
X104747042Y-106703208D01*
X104585760Y-106728753D01*
X104383585Y-106794444D01*
X104194179Y-106890951D01*
X104022213Y-107015890D01*
X103871890Y-107166213D01*
X103746949Y-107338182D01*
X103742484Y-107346946D01*
X103694509Y-107397742D01*
X103626688Y-107414536D01*
X103560553Y-107391998D01*
X103521516Y-107346946D01*
X103517050Y-107338182D01*
X103392109Y-107166213D01*
X103298819Y-107072923D01*
X103265334Y-107011600D01*
X103262500Y-106985242D01*
X103262500Y-105702308D01*
X103262499Y-105702307D01*
X103235891Y-105568536D01*
X103227895Y-105528334D01*
X103161295Y-105367551D01*
X103160367Y-105364996D01*
X103160366Y-105364981D01*
X103061465Y-105216966D01*
X103061464Y-105216965D01*
X102936035Y-105091536D01*
X101520819Y-103676319D01*
X101487334Y-103614996D01*
X101484500Y-103588638D01*
X101484500Y-93692135D01*
X109679500Y-93692135D01*
X109679500Y-94787870D01*
X109679501Y-94787876D01*
X109685908Y-94847483D01*
X109736202Y-94982328D01*
X109736206Y-94982335D01*
X109822452Y-95097544D01*
X109822455Y-95097547D01*
X109937664Y-95183793D01*
X109937671Y-95183797D01*
X110072517Y-95234091D01*
X110072516Y-95234091D01*
X110079444Y-95234835D01*
X110132127Y-95240500D01*
X112227872Y-95240499D01*
X112287483Y-95234091D01*
X112422331Y-95183796D01*
X112537546Y-95097546D01*
X112623796Y-94982331D01*
X112674091Y-94847483D01*
X112680500Y-94787873D01*
X112680499Y-93692128D01*
X112674091Y-93632517D01*
X112668618Y-93617844D01*
X112623797Y-93497671D01*
X112623793Y-93497664D01*
X112537547Y-93382455D01*
X112537544Y-93382452D01*
X112422335Y-93296206D01*
X112422328Y-93296202D01*
X112287482Y-93245908D01*
X112287483Y-93245908D01*
X112227883Y-93239501D01*
X112227881Y-93239500D01*
X112227873Y-93239500D01*
X112227864Y-93239500D01*
X110132129Y-93239500D01*
X110132123Y-93239501D01*
X110072516Y-93245908D01*
X109937671Y-93296202D01*
X109937664Y-93296206D01*
X109822455Y-93382452D01*
X109822452Y-93382455D01*
X109736206Y-93497664D01*
X109736202Y-93497671D01*
X109685908Y-93632517D01*
X109679501Y-93692116D01*
X109679501Y-93692123D01*
X109679500Y-93692135D01*
X101484500Y-93692135D01*
X101484500Y-91152135D01*
X109679500Y-91152135D01*
X109679500Y-92247870D01*
X109679501Y-92247876D01*
X109685908Y-92307483D01*
X109736202Y-92442328D01*
X109736206Y-92442335D01*
X109822452Y-92557544D01*
X109822455Y-92557547D01*
X109937664Y-92643793D01*
X109937671Y-92643797D01*
X110072517Y-92694091D01*
X110072516Y-92694091D01*
X110079444Y-92694835D01*
X110132127Y-92700500D01*
X112227872Y-92700499D01*
X112287483Y-92694091D01*
X112422331Y-92643796D01*
X112537546Y-92557546D01*
X112623796Y-92442331D01*
X112674091Y-92307483D01*
X112680500Y-92247873D01*
X112680499Y-91152128D01*
X112674091Y-91092517D01*
X112640851Y-91003397D01*
X112623797Y-90957671D01*
X112623793Y-90957664D01*
X112537547Y-90842455D01*
X112537544Y-90842452D01*
X112422335Y-90756206D01*
X112422328Y-90756202D01*
X112287482Y-90705908D01*
X112287483Y-90705908D01*
X112227883Y-90699501D01*
X112227881Y-90699500D01*
X112227873Y-90699500D01*
X112227864Y-90699500D01*
X110132129Y-90699500D01*
X110132123Y-90699501D01*
X110072516Y-90705908D01*
X109937671Y-90756202D01*
X109937664Y-90756206D01*
X109822455Y-90842452D01*
X109822452Y-90842455D01*
X109736206Y-90957664D01*
X109736202Y-90957671D01*
X109685908Y-91092517D01*
X109680728Y-91140706D01*
X109679501Y-91152123D01*
X109679500Y-91152135D01*
X101484500Y-91152135D01*
X101484500Y-88944758D01*
X101504185Y-88877719D01*
X101520819Y-88857077D01*
X101544702Y-88833194D01*
X101614104Y-88763792D01*
X101614106Y-88763788D01*
X101614109Y-88763786D01*
X101739048Y-88591820D01*
X101739047Y-88591820D01*
X101739051Y-88591816D01*
X101743514Y-88583054D01*
X101791488Y-88532259D01*
X101859308Y-88515463D01*
X101925444Y-88537999D01*
X101964486Y-88583056D01*
X101968951Y-88591820D01*
X102093890Y-88763786D01*
X102244213Y-88914109D01*
X102416179Y-89039048D01*
X102416181Y-89039049D01*
X102416184Y-89039051D01*
X102605588Y-89135557D01*
X102807757Y-89201246D01*
X103017713Y-89234500D01*
X103017714Y-89234500D01*
X103230286Y-89234500D01*
X103230287Y-89234500D01*
X103440243Y-89201246D01*
X103642412Y-89135557D01*
X103831816Y-89039051D01*
X103853789Y-89023086D01*
X104003786Y-88914109D01*
X104003788Y-88914106D01*
X104003792Y-88914104D01*
X104154104Y-88763792D01*
X104158018Y-88758404D01*
X104213342Y-88715734D01*
X104282955Y-88709748D01*
X104344753Y-88742348D01*
X104376046Y-88792272D01*
X104379639Y-88803114D01*
X104379643Y-88803124D01*
X104471684Y-88952345D01*
X104595654Y-89076315D01*
X104744875Y-89168356D01*
X104744880Y-89168358D01*
X104911302Y-89223505D01*
X104911309Y-89223506D01*
X105014019Y-89233999D01*
X105413999Y-89233999D01*
X105414000Y-89233998D01*
X105414000Y-88317012D01*
X105471007Y-88349925D01*
X105598174Y-88384000D01*
X105729826Y-88384000D01*
X105856993Y-88349925D01*
X105914000Y-88317012D01*
X105914000Y-89233999D01*
X106313972Y-89233999D01*
X106313986Y-89233998D01*
X106416697Y-89223505D01*
X106583119Y-89168358D01*
X106583124Y-89168356D01*
X106732345Y-89076315D01*
X106856315Y-88952345D01*
X106948356Y-88803124D01*
X106948358Y-88803119D01*
X107003505Y-88636697D01*
X107003506Y-88636690D01*
X107006015Y-88612135D01*
X109679500Y-88612135D01*
X109679500Y-89707870D01*
X109679501Y-89707876D01*
X109685908Y-89767483D01*
X109736202Y-89902328D01*
X109736206Y-89902335D01*
X109822452Y-90017544D01*
X109822455Y-90017547D01*
X109937664Y-90103793D01*
X109937671Y-90103797D01*
X110072517Y-90154091D01*
X110072516Y-90154091D01*
X110079444Y-90154835D01*
X110132127Y-90160500D01*
X112227872Y-90160499D01*
X112287483Y-90154091D01*
X112422331Y-90103796D01*
X112537546Y-90017546D01*
X112623796Y-89902331D01*
X112674091Y-89767483D01*
X112680500Y-89707873D01*
X112680499Y-88612128D01*
X112674091Y-88552517D01*
X112668676Y-88537999D01*
X112623797Y-88417671D01*
X112623793Y-88417664D01*
X112537547Y-88302455D01*
X112537544Y-88302452D01*
X112422335Y-88216206D01*
X112422328Y-88216202D01*
X112287482Y-88165908D01*
X112287483Y-88165908D01*
X112227883Y-88159501D01*
X112227881Y-88159500D01*
X112227873Y-88159500D01*
X112227864Y-88159500D01*
X110132129Y-88159500D01*
X110132123Y-88159501D01*
X110072516Y-88165908D01*
X109937671Y-88216202D01*
X109937664Y-88216206D01*
X109822455Y-88302452D01*
X109822452Y-88302455D01*
X109736206Y-88417664D01*
X109736202Y-88417671D01*
X109685908Y-88552517D01*
X109679992Y-88607547D01*
X109679501Y-88612123D01*
X109679500Y-88612135D01*
X107006015Y-88612135D01*
X107007643Y-88596203D01*
X107013999Y-88533986D01*
X107014000Y-88533973D01*
X107014000Y-88134000D01*
X106097012Y-88134000D01*
X106129925Y-88076993D01*
X106164000Y-87949826D01*
X106164000Y-87818174D01*
X106129925Y-87691007D01*
X106097012Y-87634000D01*
X107013999Y-87634000D01*
X107013999Y-87234028D01*
X107013998Y-87234013D01*
X107003505Y-87131302D01*
X106948358Y-86964880D01*
X106948356Y-86964875D01*
X106856315Y-86815654D01*
X106732345Y-86691684D01*
X106583124Y-86599643D01*
X106583119Y-86599641D01*
X106416697Y-86544494D01*
X106416690Y-86544493D01*
X106313986Y-86534000D01*
X105914000Y-86534000D01*
X105914000Y-87450988D01*
X105856993Y-87418075D01*
X105729826Y-87384000D01*
X105598174Y-87384000D01*
X105471007Y-87418075D01*
X105414000Y-87450988D01*
X105414000Y-86534000D01*
X105014028Y-86534000D01*
X105014012Y-86534001D01*
X104911302Y-86544494D01*
X104744880Y-86599641D01*
X104744875Y-86599643D01*
X104595654Y-86691684D01*
X104471684Y-86815654D01*
X104379643Y-86964875D01*
X104379641Y-86964881D01*
X104376046Y-86975729D01*
X104336270Y-87033171D01*
X104271753Y-87059991D01*
X104202977Y-87047672D01*
X104158020Y-87009598D01*
X104154105Y-87004209D01*
X104003786Y-86853890D01*
X103831820Y-86728951D01*
X103642414Y-86632444D01*
X103642413Y-86632443D01*
X103642412Y-86632443D01*
X103440243Y-86566754D01*
X103440241Y-86566753D01*
X103440240Y-86566753D01*
X103278957Y-86541208D01*
X103230287Y-86533500D01*
X103017713Y-86533500D01*
X102969042Y-86541208D01*
X102807760Y-86566753D01*
X102605585Y-86632444D01*
X102416179Y-86728951D01*
X102244213Y-86853890D01*
X102093890Y-87004213D01*
X101968949Y-87176182D01*
X101964484Y-87184946D01*
X101916509Y-87235742D01*
X101848688Y-87252536D01*
X101782553Y-87229998D01*
X101743516Y-87184946D01*
X101739050Y-87176182D01*
X101614109Y-87004213D01*
X101463786Y-86853890D01*
X101291820Y-86728951D01*
X101102414Y-86632444D01*
X101102413Y-86632443D01*
X101102412Y-86632443D01*
X100900243Y-86566754D01*
X100900241Y-86566753D01*
X100900240Y-86566753D01*
X100738957Y-86541208D01*
X100690287Y-86533500D01*
X100477713Y-86533500D01*
X100429042Y-86541208D01*
X100267760Y-86566753D01*
X100065585Y-86632444D01*
X99876179Y-86728951D01*
X99704213Y-86853890D01*
X99553890Y-87004213D01*
X99428949Y-87176182D01*
X99424484Y-87184946D01*
X99376509Y-87235742D01*
X99308688Y-87252536D01*
X99242553Y-87229998D01*
X99203516Y-87184946D01*
X99199050Y-87176182D01*
X99074109Y-87004213D01*
X98923786Y-86853890D01*
X98751820Y-86728951D01*
X98562414Y-86632444D01*
X98562413Y-86632443D01*
X98562412Y-86632443D01*
X98360243Y-86566754D01*
X98360241Y-86566753D01*
X98360240Y-86566753D01*
X98198957Y-86541208D01*
X98150287Y-86533500D01*
X97937713Y-86533500D01*
X97889042Y-86541208D01*
X97727760Y-86566753D01*
X97525585Y-86632444D01*
X97336179Y-86728951D01*
X97164213Y-86853890D01*
X97013890Y-87004213D01*
X96888951Y-87176179D01*
X96792444Y-87365585D01*
X96726753Y-87567760D01*
X96693500Y-87777713D01*
X94626500Y-87777713D01*
X94626500Y-87419361D01*
X94646185Y-87352322D01*
X94662819Y-87331680D01*
X95922364Y-86072135D01*
X109679500Y-86072135D01*
X109679500Y-87167870D01*
X109679501Y-87167876D01*
X109685908Y-87227483D01*
X109736202Y-87362328D01*
X109736206Y-87362335D01*
X109822452Y-87477544D01*
X109822455Y-87477547D01*
X109937664Y-87563793D01*
X109937671Y-87563797D01*
X110072517Y-87614091D01*
X110072516Y-87614091D01*
X110079444Y-87614835D01*
X110132127Y-87620500D01*
X112227872Y-87620499D01*
X112287483Y-87614091D01*
X112422331Y-87563796D01*
X112537546Y-87477546D01*
X112623796Y-87362331D01*
X112674091Y-87227483D01*
X112680500Y-87167873D01*
X112680499Y-86111421D01*
X123744500Y-86111421D01*
X123744500Y-86288578D01*
X123772214Y-86463556D01*
X123826956Y-86632039D01*
X123826957Y-86632042D01*
X123898774Y-86772989D01*
X123907386Y-86789890D01*
X124003453Y-86922115D01*
X124026933Y-86987921D01*
X124011108Y-87055975D01*
X124003457Y-87067878D01*
X123959085Y-87128952D01*
X123907386Y-87200109D01*
X123826957Y-87357957D01*
X123826956Y-87357960D01*
X123772214Y-87526443D01*
X123765670Y-87567760D01*
X123744500Y-87701421D01*
X123744500Y-87878579D01*
X123755785Y-87949826D01*
X123772214Y-88053556D01*
X123826956Y-88222039D01*
X123826957Y-88222042D01*
X123869062Y-88304676D01*
X123907386Y-88379890D01*
X124003453Y-88512115D01*
X124026933Y-88577921D01*
X124011108Y-88645975D01*
X124003457Y-88657878D01*
X123961423Y-88715734D01*
X123907386Y-88790109D01*
X123826957Y-88947957D01*
X123826956Y-88947960D01*
X123772214Y-89116443D01*
X123744500Y-89291421D01*
X123744500Y-89468578D01*
X123772214Y-89643556D01*
X123826956Y-89812039D01*
X123826957Y-89812042D01*
X123879330Y-89914827D01*
X123907386Y-89969890D01*
X124003453Y-90102115D01*
X124026933Y-90167921D01*
X124011108Y-90235975D01*
X124003457Y-90247878D01*
X123997848Y-90255600D01*
X123907386Y-90380109D01*
X123826957Y-90537957D01*
X123826956Y-90537960D01*
X123772214Y-90706443D01*
X123753493Y-90824641D01*
X123744500Y-90881421D01*
X123744500Y-91058579D01*
X123755718Y-91129405D01*
X123772214Y-91233556D01*
X123826956Y-91402039D01*
X123826957Y-91402042D01*
X123866415Y-91479481D01*
X123907386Y-91559890D01*
X124003453Y-91692115D01*
X124026933Y-91757921D01*
X124011108Y-91825975D01*
X124003457Y-91837878D01*
X123965594Y-91889994D01*
X123907386Y-91970109D01*
X123826957Y-92127957D01*
X123826956Y-92127960D01*
X123772214Y-92296443D01*
X123764070Y-92347864D01*
X123744500Y-92471421D01*
X123744500Y-92648579D01*
X123752724Y-92700500D01*
X123772214Y-92823556D01*
X123826956Y-92992039D01*
X123826957Y-92992042D01*
X123904385Y-93144000D01*
X123907386Y-93149890D01*
X124003453Y-93282115D01*
X124026933Y-93347921D01*
X124011108Y-93415975D01*
X124003457Y-93427878D01*
X123989194Y-93447511D01*
X123907386Y-93560109D01*
X123826957Y-93717957D01*
X123826956Y-93717960D01*
X123772214Y-93886443D01*
X123744500Y-94061421D01*
X123744500Y-94238578D01*
X123772214Y-94413556D01*
X123826956Y-94582039D01*
X123826957Y-94582042D01*
X123907386Y-94739890D01*
X124003453Y-94872115D01*
X124026933Y-94937921D01*
X124011108Y-95005975D01*
X124003457Y-95017878D01*
X123963648Y-95072672D01*
X123907386Y-95150109D01*
X123826957Y-95307957D01*
X123826956Y-95307960D01*
X123772214Y-95476443D01*
X123759992Y-95553609D01*
X123744500Y-95651421D01*
X123744500Y-95828579D01*
X123745708Y-95836204D01*
X123772214Y-96003556D01*
X123826956Y-96172039D01*
X123826957Y-96172042D01*
X123859489Y-96235888D01*
X123907386Y-96329890D01*
X124003453Y-96462115D01*
X124026933Y-96527921D01*
X124011108Y-96595975D01*
X124003457Y-96607878D01*
X123987281Y-96630144D01*
X123907386Y-96740109D01*
X123826957Y-96897957D01*
X123826956Y-96897960D01*
X123772214Y-97066443D01*
X123772214Y-97066445D01*
X123744500Y-97241421D01*
X123744500Y-97418579D01*
X123750850Y-97458672D01*
X123772214Y-97593556D01*
X123826956Y-97762039D01*
X123826957Y-97762042D01*
X123905831Y-97916838D01*
X123907386Y-97919890D01*
X124011517Y-98063214D01*
X124136786Y-98188483D01*
X124280110Y-98292614D01*
X124341400Y-98323843D01*
X124437957Y-98373042D01*
X124437960Y-98373043D01*
X124520358Y-98399815D01*
X124606445Y-98427786D01*
X124781421Y-98455500D01*
X124781422Y-98455500D01*
X124958578Y-98455500D01*
X124958579Y-98455500D01*
X125133555Y-98427786D01*
X125302042Y-98373042D01*
X125459890Y-98292614D01*
X125603214Y-98188483D01*
X125728483Y-98063214D01*
X125832614Y-97919890D01*
X125913042Y-97762042D01*
X125967786Y-97593555D01*
X125995500Y-97418579D01*
X125995500Y-97241421D01*
X125967786Y-97066445D01*
X125913042Y-96897958D01*
X125913042Y-96897957D01*
X125849521Y-96773292D01*
X125832614Y-96740110D01*
X125736544Y-96607881D01*
X125713066Y-96542080D01*
X125728891Y-96474026D01*
X125736533Y-96462133D01*
X125832614Y-96329890D01*
X125882423Y-96232135D01*
X127679500Y-96232135D01*
X127679500Y-97327870D01*
X127679501Y-97327876D01*
X127685908Y-97387483D01*
X127736202Y-97522328D01*
X127736206Y-97522335D01*
X127822452Y-97637544D01*
X127822455Y-97637547D01*
X127937664Y-97723793D01*
X127937671Y-97723797D01*
X128072517Y-97774091D01*
X128072516Y-97774091D01*
X128079444Y-97774835D01*
X128132127Y-97780500D01*
X130227872Y-97780499D01*
X130287483Y-97774091D01*
X130422331Y-97723796D01*
X130537546Y-97637546D01*
X130617914Y-97530188D01*
X130673847Y-97488318D01*
X130717180Y-97480500D01*
X130982481Y-97480500D01*
X131049520Y-97500185D01*
X131070162Y-97516819D01*
X131470181Y-97916838D01*
X131503666Y-97978161D01*
X131506500Y-98004519D01*
X131506500Y-98489500D01*
X131486815Y-98556539D01*
X131434011Y-98602294D01*
X131382500Y-98613500D01*
X130712689Y-98613500D01*
X130645650Y-98593815D01*
X130613423Y-98563812D01*
X130581951Y-98521771D01*
X130537546Y-98462454D01*
X130537544Y-98462453D01*
X130537544Y-98462452D01*
X130422335Y-98376206D01*
X130422328Y-98376202D01*
X130287482Y-98325908D01*
X130287483Y-98325908D01*
X130227883Y-98319501D01*
X130227881Y-98319500D01*
X130227873Y-98319500D01*
X130227864Y-98319500D01*
X128132129Y-98319500D01*
X128132123Y-98319501D01*
X128072516Y-98325908D01*
X127937671Y-98376202D01*
X127937664Y-98376206D01*
X127822455Y-98462452D01*
X127822452Y-98462455D01*
X127736206Y-98577664D01*
X127736202Y-98577671D01*
X127685908Y-98712517D01*
X127679501Y-98772116D01*
X127679500Y-98772135D01*
X127679500Y-99867870D01*
X127679501Y-99867876D01*
X127685908Y-99927483D01*
X127736202Y-100062328D01*
X127736206Y-100062335D01*
X127822452Y-100177544D01*
X127822455Y-100177547D01*
X127937664Y-100263793D01*
X127937671Y-100263797D01*
X128072517Y-100314091D01*
X128072516Y-100314091D01*
X128079444Y-100314835D01*
X128132127Y-100320500D01*
X130227872Y-100320499D01*
X130287483Y-100314091D01*
X130422331Y-100263796D01*
X130537546Y-100177546D01*
X130567752Y-100137195D01*
X130622406Y-100064189D01*
X130678340Y-100022318D01*
X130721672Y-100014500D01*
X130976481Y-100014500D01*
X131043520Y-100034185D01*
X131064162Y-100050819D01*
X132776453Y-101763111D01*
X132776454Y-101763112D01*
X132891192Y-101839777D01*
X133018667Y-101892578D01*
X133018672Y-101892580D01*
X133018676Y-101892580D01*
X133018677Y-101892581D01*
X133154003Y-101919500D01*
X133154006Y-101919500D01*
X133291996Y-101919500D01*
X133390072Y-101899991D01*
X133427329Y-101892580D01*
X133460261Y-101878938D01*
X133468438Y-101877312D01*
X133472779Y-101874523D01*
X133507714Y-101869500D01*
X133700500Y-101869500D01*
X133767539Y-101889185D01*
X133813294Y-101941989D01*
X133824500Y-101993500D01*
X133824500Y-102800001D01*
X133824501Y-102800019D01*
X133835000Y-102902796D01*
X133835001Y-102902799D01*
X133883945Y-103050500D01*
X133890186Y-103069334D01*
X133982288Y-103218656D01*
X134106344Y-103342712D01*
X134255666Y-103434814D01*
X134422203Y-103489999D01*
X134524991Y-103500500D01*
X135875008Y-103500499D01*
X135977797Y-103489999D01*
X136144334Y-103434814D01*
X136293656Y-103342712D01*
X136417712Y-103218656D01*
X136485099Y-103109402D01*
X136537047Y-103062679D01*
X136590638Y-103050500D01*
X137015481Y-103050500D01*
X137044921Y-103059144D01*
X137074908Y-103065668D01*
X137079923Y-103069422D01*
X137082520Y-103070185D01*
X137103162Y-103086819D01*
X137204928Y-103188585D01*
X137231808Y-103228814D01*
X137291602Y-103373172D01*
X137291609Y-103373185D01*
X137379210Y-103504288D01*
X137379213Y-103504292D01*
X137490707Y-103615786D01*
X137490711Y-103615789D01*
X137621814Y-103703390D01*
X137621827Y-103703397D01*
X137767498Y-103763735D01*
X137767503Y-103763737D01*
X137922153Y-103794499D01*
X137922156Y-103794500D01*
X137922158Y-103794500D01*
X138079844Y-103794500D01*
X138079845Y-103794499D01*
X138234497Y-103763737D01*
X138380179Y-103703394D01*
X138511289Y-103615789D01*
X138622789Y-103504289D01*
X138710394Y-103373179D01*
X138770737Y-103227497D01*
X138801500Y-103072842D01*
X138801500Y-102915158D01*
X138801500Y-102915155D01*
X138801499Y-102915153D01*
X138778595Y-102800008D01*
X138770737Y-102760503D01*
X138770735Y-102760498D01*
X138710397Y-102614827D01*
X138710390Y-102614814D01*
X138622789Y-102483711D01*
X138622786Y-102483707D01*
X138511292Y-102372213D01*
X138511288Y-102372210D01*
X138380185Y-102284609D01*
X138380172Y-102284602D01*
X138235814Y-102224808D01*
X138228881Y-102220175D01*
X138223839Y-102219079D01*
X138195585Y-102197928D01*
X138053413Y-102055756D01*
X138019928Y-101994433D01*
X138024912Y-101924741D01*
X138066784Y-101868808D01*
X138093639Y-101853515D01*
X138126811Y-101839775D01*
X138241543Y-101763114D01*
X140944113Y-99060543D01*
X140946258Y-99057334D01*
X141020775Y-98945811D01*
X141056266Y-98860127D01*
X141073580Y-98818329D01*
X141078934Y-98791409D01*
X141100500Y-98682993D01*
X141100500Y-96734499D01*
X141120185Y-96667460D01*
X141172989Y-96621705D01*
X141224500Y-96610499D01*
X141322871Y-96610499D01*
X141322872Y-96610499D01*
X141382483Y-96604091D01*
X141517331Y-96553796D01*
X141632546Y-96467546D01*
X141718796Y-96352331D01*
X141769091Y-96217483D01*
X141775500Y-96157873D01*
X141775499Y-95612517D01*
X141795183Y-95545479D01*
X141847987Y-95499724D01*
X141917146Y-95489780D01*
X141980702Y-95518805D01*
X141987180Y-95524837D01*
X142919928Y-96457585D01*
X142946808Y-96497814D01*
X143006602Y-96642172D01*
X143006609Y-96642185D01*
X143094210Y-96773288D01*
X143094213Y-96773292D01*
X143205707Y-96884786D01*
X143205711Y-96884789D01*
X143336814Y-96972390D01*
X143336827Y-96972397D01*
X143482498Y-97032735D01*
X143482503Y-97032737D01*
X143637153Y-97063499D01*
X143637156Y-97063500D01*
X143637158Y-97063500D01*
X143794844Y-97063500D01*
X143794845Y-97063499D01*
X143949497Y-97032737D01*
X144095179Y-96972394D01*
X144226289Y-96884789D01*
X144337789Y-96773289D01*
X144425394Y-96642179D01*
X144485737Y-96496497D01*
X144516500Y-96341842D01*
X144516500Y-96184158D01*
X144516500Y-96184155D01*
X144516499Y-96184153D01*
X144511272Y-96157876D01*
X144485737Y-96029503D01*
X144485735Y-96029498D01*
X144425397Y-95883827D01*
X144425390Y-95883814D01*
X144337789Y-95752711D01*
X144337786Y-95752707D01*
X144226292Y-95641213D01*
X144226288Y-95641210D01*
X144095185Y-95553609D01*
X144095172Y-95553602D01*
X143950814Y-95493808D01*
X143910585Y-95466928D01*
X142439546Y-93995888D01*
X142439545Y-93995887D01*
X142324807Y-93919222D01*
X142197332Y-93866421D01*
X142197322Y-93866418D01*
X142061996Y-93839500D01*
X142061994Y-93839500D01*
X142061993Y-93839500D01*
X141886723Y-93839500D01*
X141819684Y-93819815D01*
X141773929Y-93767011D01*
X141763985Y-93697853D01*
X141767256Y-93685034D01*
X141766813Y-93684930D01*
X141768598Y-93677372D01*
X141774999Y-93617844D01*
X141775000Y-93617827D01*
X141775000Y-93520000D01*
X140524000Y-93520000D01*
X140456961Y-93500315D01*
X140411206Y-93447511D01*
X140400000Y-93396000D01*
X140400000Y-93144000D01*
X140419685Y-93076961D01*
X140472489Y-93031206D01*
X140524000Y-93020000D01*
X141775000Y-93020000D01*
X141775000Y-92922172D01*
X141774999Y-92922155D01*
X141768598Y-92862627D01*
X141768597Y-92862623D01*
X141718351Y-92727908D01*
X141704741Y-92709728D01*
X141680323Y-92644264D01*
X141695174Y-92575991D01*
X141704732Y-92561117D01*
X141718796Y-92542331D01*
X141769091Y-92407483D01*
X141775500Y-92347873D01*
X141775499Y-91652128D01*
X141769091Y-91592517D01*
X141759634Y-91567162D01*
X141718797Y-91457671D01*
X141718793Y-91457664D01*
X141632547Y-91342455D01*
X141632544Y-91342452D01*
X141517335Y-91256206D01*
X141517328Y-91256202D01*
X141382482Y-91205908D01*
X141382483Y-91205908D01*
X141322883Y-91199501D01*
X141322881Y-91199500D01*
X141322873Y-91199500D01*
X141322864Y-91199500D01*
X139477129Y-91199500D01*
X139477123Y-91199501D01*
X139417516Y-91205908D01*
X139282671Y-91256202D01*
X139282668Y-91256204D01*
X139257872Y-91274767D01*
X139192408Y-91299184D01*
X139183561Y-91299500D01*
X138817005Y-91299500D01*
X138681677Y-91326418D01*
X138681667Y-91326421D01*
X138554192Y-91379222D01*
X138439454Y-91455887D01*
X138439453Y-91455888D01*
X138199181Y-91696161D01*
X138137858Y-91729646D01*
X138068166Y-91724662D01*
X138012233Y-91682790D01*
X137987816Y-91617326D01*
X137987500Y-91608480D01*
X137987500Y-91273519D01*
X138007185Y-91206480D01*
X138023819Y-91185838D01*
X138894112Y-90315545D01*
X138894114Y-90315543D01*
X138970775Y-90200811D01*
X138984399Y-90167921D01*
X139023578Y-90073332D01*
X139023580Y-90073328D01*
X139034676Y-90017544D01*
X139050500Y-89937996D01*
X139050500Y-88851439D01*
X139070185Y-88784400D01*
X139122989Y-88738645D01*
X139131168Y-88735257D01*
X139242326Y-88693798D01*
X139242326Y-88693797D01*
X139242331Y-88693796D01*
X139357546Y-88607546D01*
X139443796Y-88492331D01*
X139483818Y-88385027D01*
X139525689Y-88329093D01*
X139591153Y-88304676D01*
X139659426Y-88319527D01*
X139708832Y-88368932D01*
X139716182Y-88385027D01*
X139756202Y-88492328D01*
X139756206Y-88492335D01*
X139842452Y-88607544D01*
X139842455Y-88607547D01*
X139957664Y-88693793D01*
X139957671Y-88693797D01*
X140092516Y-88744091D01*
X140138757Y-88749063D01*
X140203307Y-88775801D01*
X140243155Y-88833194D01*
X140249500Y-88872352D01*
X140249500Y-89500330D01*
X140249499Y-89500348D01*
X140249499Y-89666054D01*
X140249498Y-89666054D01*
X140290423Y-89818786D01*
X140305268Y-89844496D01*
X140305269Y-89844501D01*
X140305271Y-89844501D01*
X140369479Y-89955714D01*
X140369481Y-89955717D01*
X140488349Y-90074585D01*
X140488355Y-90074590D01*
X141072139Y-90658374D01*
X141072149Y-90658385D01*
X141076479Y-90662715D01*
X141076480Y-90662716D01*
X141188284Y-90774520D01*
X141239845Y-90804288D01*
X141275095Y-90824639D01*
X141275097Y-90824641D01*
X141305950Y-90842454D01*
X141325215Y-90853577D01*
X141477943Y-90894501D01*
X141477946Y-90894501D01*
X141643653Y-90894501D01*
X141643669Y-90894500D01*
X142501234Y-90894500D01*
X142568273Y-90914185D01*
X142570125Y-90915398D01*
X142701814Y-91003390D01*
X142701827Y-91003397D01*
X142835048Y-91058578D01*
X142847503Y-91063737D01*
X142992184Y-91092516D01*
X143002153Y-91094499D01*
X143002156Y-91094500D01*
X143002158Y-91094500D01*
X143159844Y-91094500D01*
X143159845Y-91094499D01*
X143314497Y-91063737D01*
X143460179Y-91003394D01*
X143591289Y-90915789D01*
X143702789Y-90804289D01*
X143790394Y-90673179D01*
X143850737Y-90527497D01*
X143881500Y-90372842D01*
X143881500Y-90215158D01*
X143881500Y-90215155D01*
X143881499Y-90215153D01*
X143870628Y-90160500D01*
X143850737Y-90060503D01*
X143807334Y-89955717D01*
X143790397Y-89914827D01*
X143790390Y-89914814D01*
X143702789Y-89783711D01*
X143702786Y-89783707D01*
X143591292Y-89672213D01*
X143591288Y-89672210D01*
X143460185Y-89584609D01*
X143460172Y-89584602D01*
X143314501Y-89524264D01*
X143314489Y-89524261D01*
X143159845Y-89493500D01*
X143159842Y-89493500D01*
X143002158Y-89493500D01*
X143002155Y-89493500D01*
X142847510Y-89524261D01*
X142847498Y-89524264D01*
X142701827Y-89584602D01*
X142701814Y-89584609D01*
X142570125Y-89672602D01*
X142503447Y-89693480D01*
X142501234Y-89693500D01*
X141857097Y-89693500D01*
X141790058Y-89673815D01*
X141769416Y-89657181D01*
X141486819Y-89374584D01*
X141453334Y-89313261D01*
X141450500Y-89286903D01*
X141450500Y-88872351D01*
X141470185Y-88805312D01*
X141522989Y-88759557D01*
X141561247Y-88749061D01*
X141607483Y-88744091D01*
X141742331Y-88693796D01*
X141857546Y-88607546D01*
X141943796Y-88492331D01*
X141983818Y-88385027D01*
X142025689Y-88329093D01*
X142091153Y-88304676D01*
X142159426Y-88319527D01*
X142208832Y-88368932D01*
X142216182Y-88385027D01*
X142256202Y-88492328D01*
X142256206Y-88492335D01*
X142342452Y-88607544D01*
X142342455Y-88607547D01*
X142457664Y-88693793D01*
X142457671Y-88693797D01*
X142592517Y-88744091D01*
X142592516Y-88744091D01*
X142599444Y-88744835D01*
X142652127Y-88750500D01*
X144047872Y-88750499D01*
X144107483Y-88744091D01*
X144242331Y-88693796D01*
X144357546Y-88607546D01*
X144443796Y-88492331D01*
X144494091Y-88357483D01*
X144500500Y-88297873D01*
X144500500Y-87024500D01*
X144520185Y-86957461D01*
X144572989Y-86911706D01*
X144624500Y-86900500D01*
X147678638Y-86900500D01*
X147745677Y-86920185D01*
X147766319Y-86936819D01*
X151971181Y-91141681D01*
X152004666Y-91203004D01*
X152007500Y-91229362D01*
X152007500Y-111589638D01*
X151987815Y-111656677D01*
X151971181Y-111677319D01*
X148380319Y-115268181D01*
X148318996Y-115301666D01*
X148292638Y-115304500D01*
X145834303Y-115304500D01*
X145660341Y-115339103D01*
X145660329Y-115339106D01*
X145578392Y-115373045D01*
X145578393Y-115373046D01*
X145496455Y-115406985D01*
X145408040Y-115466063D01*
X145408039Y-115466064D01*
X145348961Y-115505537D01*
X145348960Y-115505538D01*
X142861319Y-117993181D01*
X142799996Y-118026666D01*
X142773638Y-118029500D01*
X142641713Y-118029500D01*
X142593042Y-118037208D01*
X142431760Y-118062753D01*
X142229585Y-118128444D01*
X142040179Y-118224951D01*
X141868213Y-118349890D01*
X141717890Y-118500213D01*
X141592951Y-118672179D01*
X141496444Y-118861585D01*
X141430753Y-119063760D01*
X141407026Y-119213566D01*
X141397500Y-119273713D01*
X141397500Y-119486287D01*
X141430754Y-119696243D01*
X141489497Y-119877036D01*
X141496444Y-119898414D01*
X141592951Y-120087820D01*
X141717890Y-120259786D01*
X141811181Y-120353077D01*
X141825884Y-120380004D01*
X141842477Y-120405823D01*
X141843368Y-120412023D01*
X141844666Y-120414400D01*
X141847500Y-120440758D01*
X141847500Y-120554362D01*
X141827815Y-120621401D01*
X141788598Y-120659899D01*
X141761914Y-120676359D01*
X141679342Y-120727289D01*
X141555289Y-120851342D01*
X141463187Y-121000663D01*
X141463185Y-121000668D01*
X141435349Y-121084670D01*
X141408001Y-121167203D01*
X141408001Y-121167204D01*
X141408000Y-121167204D01*
X141397500Y-121269983D01*
X141397500Y-122570001D01*
X141397501Y-122570018D01*
X141408000Y-122672796D01*
X141408001Y-122672799D01*
X141450081Y-122799786D01*
X141463186Y-122839334D01*
X141555288Y-122988656D01*
X141679344Y-123112712D01*
X141828666Y-123204814D01*
X141995203Y-123259999D01*
X142097991Y-123270500D01*
X143398008Y-123270499D01*
X143500797Y-123259999D01*
X143667334Y-123204814D01*
X143667339Y-123204810D01*
X143667341Y-123204810D01*
X143693034Y-123188962D01*
X143758133Y-123170499D01*
X145295871Y-123170499D01*
X145295872Y-123170499D01*
X145355483Y-123164091D01*
X145490331Y-123113796D01*
X145605546Y-123027546D01*
X145691796Y-122912331D01*
X145742091Y-122777483D01*
X145748500Y-122717873D01*
X145748499Y-121122128D01*
X145742091Y-121062517D01*
X145733770Y-121040208D01*
X145691797Y-120927671D01*
X145691793Y-120927664D01*
X145634659Y-120851344D01*
X145605546Y-120812454D01*
X145521136Y-120749265D01*
X145479267Y-120693333D01*
X145474283Y-120623641D01*
X145507768Y-120562318D01*
X145521130Y-120550739D01*
X145605546Y-120487546D01*
X145691796Y-120372331D01*
X145742091Y-120237483D01*
X145748500Y-120177873D01*
X145748500Y-119881902D01*
X150499500Y-119881902D01*
X150499500Y-120118097D01*
X150536446Y-120351368D01*
X150609433Y-120575996D01*
X150691817Y-120737682D01*
X150716657Y-120786433D01*
X150855483Y-120977510D01*
X151022490Y-121144517D01*
X151213567Y-121283343D01*
X151312991Y-121334002D01*
X151424003Y-121390566D01*
X151424005Y-121390566D01*
X151424008Y-121390568D01*
X151544412Y-121429689D01*
X151648631Y-121463553D01*
X151881903Y-121500500D01*
X151881908Y-121500500D01*
X152118097Y-121500500D01*
X152351368Y-121463553D01*
X152575992Y-121390568D01*
X152786433Y-121283343D01*
X152977510Y-121144517D01*
X153144517Y-120977510D01*
X153283343Y-120786433D01*
X153390568Y-120575992D01*
X153463553Y-120351368D01*
X153471660Y-120300185D01*
X153500500Y-120118097D01*
X153500500Y-119881902D01*
X153463553Y-119648631D01*
X153390566Y-119424003D01*
X153283342Y-119213566D01*
X153144517Y-119022490D01*
X152977510Y-118855483D01*
X152786433Y-118716657D01*
X152575996Y-118609433D01*
X152351368Y-118536446D01*
X152118097Y-118499500D01*
X152118092Y-118499500D01*
X151881908Y-118499500D01*
X151881903Y-118499500D01*
X151648631Y-118536446D01*
X151424003Y-118609433D01*
X151213566Y-118716657D01*
X151104550Y-118795862D01*
X151022490Y-118855483D01*
X151022488Y-118855485D01*
X151022487Y-118855485D01*
X150855485Y-119022487D01*
X150855485Y-119022488D01*
X150855483Y-119022490D01*
X150795862Y-119104550D01*
X150716657Y-119213566D01*
X150609433Y-119424003D01*
X150536446Y-119648631D01*
X150499500Y-119881902D01*
X145748500Y-119881902D01*
X145748499Y-119273713D01*
X145748499Y-118582129D01*
X145748498Y-118582123D01*
X145742091Y-118522516D01*
X145691797Y-118387671D01*
X145691793Y-118387664D01*
X145605547Y-118272455D01*
X145605544Y-118272452D01*
X145490335Y-118186206D01*
X145490323Y-118186200D01*
X145470792Y-118178915D01*
X145414858Y-118137044D01*
X145390442Y-118071579D01*
X145405294Y-118003306D01*
X145426441Y-117975057D01*
X146259681Y-117141819D01*
X146321004Y-117108334D01*
X146347362Y-117105500D01*
X148805693Y-117105500D01*
X148805694Y-117105499D01*
X148979666Y-117070895D01*
X149061606Y-117036953D01*
X149143547Y-117003013D01*
X149231959Y-116943936D01*
X149291036Y-116904464D01*
X153607464Y-112588036D01*
X153661300Y-112507464D01*
X153706013Y-112440547D01*
X153750131Y-112334036D01*
X153773895Y-112276666D01*
X153808500Y-112102692D01*
X153808500Y-111925308D01*
X153808500Y-90716309D01*
X153808500Y-90716308D01*
X153773895Y-90542334D01*
X153724482Y-90423042D01*
X153706013Y-90378453D01*
X153625809Y-90258420D01*
X153618771Y-90247886D01*
X153607466Y-90230966D01*
X148677035Y-85300535D01*
X148677030Y-85300531D01*
X148622622Y-85264178D01*
X148622616Y-85264175D01*
X148617959Y-85261063D01*
X148529547Y-85201987D01*
X148447606Y-85168046D01*
X148420837Y-85156958D01*
X148365666Y-85134105D01*
X148365658Y-85134103D01*
X148191696Y-85099500D01*
X148191692Y-85099500D01*
X148191691Y-85099500D01*
X144624499Y-85099500D01*
X144557460Y-85079815D01*
X144511705Y-85027011D01*
X144500499Y-84975500D01*
X144500499Y-83702129D01*
X144500498Y-83702123D01*
X144500497Y-83702116D01*
X144494091Y-83642517D01*
X144483817Y-83614972D01*
X144443797Y-83507671D01*
X144443793Y-83507664D01*
X144357547Y-83392455D01*
X144357544Y-83392452D01*
X144242335Y-83306206D01*
X144242328Y-83306202D01*
X144107482Y-83255908D01*
X144107483Y-83255908D01*
X144047883Y-83249501D01*
X144047881Y-83249500D01*
X144047873Y-83249500D01*
X144047864Y-83249500D01*
X142652129Y-83249500D01*
X142652123Y-83249501D01*
X142592516Y-83255908D01*
X142457671Y-83306202D01*
X142457664Y-83306206D01*
X142342455Y-83392452D01*
X142342452Y-83392455D01*
X142256206Y-83507664D01*
X142256202Y-83507671D01*
X142216182Y-83614972D01*
X142174311Y-83670906D01*
X142108846Y-83695323D01*
X142040573Y-83680471D01*
X141991168Y-83631066D01*
X141983818Y-83614972D01*
X141943797Y-83507671D01*
X141943793Y-83507664D01*
X141857547Y-83392455D01*
X141857544Y-83392452D01*
X141742335Y-83306206D01*
X141742328Y-83306202D01*
X141607482Y-83255908D01*
X141607483Y-83255908D01*
X141547883Y-83249501D01*
X141547881Y-83249500D01*
X141547873Y-83249500D01*
X141547864Y-83249500D01*
X140152129Y-83249500D01*
X140152123Y-83249501D01*
X140092516Y-83255908D01*
X139957671Y-83306202D01*
X139957664Y-83306206D01*
X139842455Y-83392452D01*
X139842452Y-83392455D01*
X139756206Y-83507664D01*
X139756202Y-83507671D01*
X139716182Y-83614972D01*
X139674311Y-83670906D01*
X139608846Y-83695323D01*
X139540573Y-83680471D01*
X139491168Y-83631066D01*
X139483818Y-83614972D01*
X139443797Y-83507671D01*
X139443793Y-83507664D01*
X139357547Y-83392455D01*
X139357544Y-83392452D01*
X139242335Y-83306206D01*
X139242328Y-83306202D01*
X139107482Y-83255908D01*
X139107483Y-83255908D01*
X139047883Y-83249501D01*
X139047881Y-83249500D01*
X139047873Y-83249500D01*
X139047864Y-83249500D01*
X137652129Y-83249500D01*
X137652123Y-83249501D01*
X137592516Y-83255908D01*
X137457671Y-83306202D01*
X137457664Y-83306206D01*
X137342455Y-83392452D01*
X137342452Y-83392455D01*
X137256206Y-83507664D01*
X137256202Y-83507671D01*
X137216182Y-83614972D01*
X137174311Y-83670906D01*
X137108846Y-83695323D01*
X137040573Y-83680471D01*
X136991168Y-83631066D01*
X136983818Y-83614972D01*
X136943797Y-83507671D01*
X136943793Y-83507664D01*
X136857547Y-83392455D01*
X136857544Y-83392452D01*
X136742335Y-83306206D01*
X136742328Y-83306202D01*
X136607482Y-83255908D01*
X136607483Y-83255908D01*
X136547883Y-83249501D01*
X136547881Y-83249500D01*
X136547873Y-83249500D01*
X136547864Y-83249500D01*
X135152129Y-83249500D01*
X135152123Y-83249501D01*
X135092516Y-83255908D01*
X134957671Y-83306202D01*
X134957664Y-83306206D01*
X134842455Y-83392452D01*
X134842452Y-83392455D01*
X134756206Y-83507664D01*
X134756202Y-83507671D01*
X134705908Y-83642517D01*
X134699501Y-83702116D01*
X134699501Y-83702123D01*
X134699500Y-83702135D01*
X134699500Y-85175500D01*
X134679815Y-85242539D01*
X134627011Y-85288294D01*
X134575500Y-85299500D01*
X134022005Y-85299500D01*
X133886677Y-85326418D01*
X133886667Y-85326421D01*
X133759192Y-85379222D01*
X133644454Y-85455887D01*
X131916887Y-87183454D01*
X131840223Y-87298192D01*
X131787421Y-87425668D01*
X131787418Y-87425680D01*
X131777101Y-87477547D01*
X131777101Y-87477548D01*
X131760500Y-87561004D01*
X131760500Y-87561007D01*
X131760500Y-91752006D01*
X131760500Y-91889994D01*
X131760500Y-91889996D01*
X131760499Y-91889996D01*
X131787418Y-92025322D01*
X131787421Y-92025332D01*
X131840222Y-92152807D01*
X131916887Y-92267545D01*
X131916888Y-92267546D01*
X133365886Y-93716542D01*
X133416355Y-93767011D01*
X133463459Y-93814115D01*
X133578182Y-93890771D01*
X133578189Y-93890775D01*
X133646874Y-93919225D01*
X133705671Y-93943580D01*
X133732591Y-93948934D01*
X133823217Y-93966961D01*
X133838045Y-93969911D01*
X133899956Y-94002297D01*
X133934529Y-94063013D01*
X133931225Y-94124618D01*
X133932693Y-94124965D01*
X133930910Y-94132508D01*
X133930909Y-94132516D01*
X133930909Y-94132517D01*
X133924500Y-94192127D01*
X133924500Y-94192134D01*
X133924500Y-94192135D01*
X133924500Y-94887870D01*
X133924501Y-94887876D01*
X133930908Y-94947483D01*
X133981202Y-95082328D01*
X133981205Y-95082334D01*
X133994947Y-95100691D01*
X134019363Y-95166156D01*
X134004510Y-95234429D01*
X133994947Y-95249309D01*
X133981205Y-95267665D01*
X133981202Y-95267671D01*
X133930910Y-95402513D01*
X133930909Y-95402517D01*
X133924500Y-95462127D01*
X133924500Y-95462134D01*
X133924500Y-95462135D01*
X133924500Y-96157870D01*
X133924501Y-96157876D01*
X133930908Y-96217483D01*
X133981202Y-96352328D01*
X133981206Y-96352335D01*
X134067452Y-96467544D01*
X134067455Y-96467547D01*
X134182664Y-96553793D01*
X134182671Y-96553797D01*
X134317516Y-96604091D01*
X134377113Y-96610499D01*
X134377122Y-96610499D01*
X134377127Y-96610500D01*
X134377131Y-96610499D01*
X134380434Y-96610677D01*
X134380424Y-96610855D01*
X134380431Y-96610856D01*
X134380417Y-96610977D01*
X134380366Y-96611946D01*
X134442478Y-96630144D01*
X134488264Y-96682921D01*
X134499500Y-96734499D01*
X134499500Y-97994845D01*
X134479815Y-98061884D01*
X134427011Y-98107639D01*
X134414505Y-98112551D01*
X134255666Y-98165186D01*
X134255663Y-98165187D01*
X134106342Y-98257289D01*
X133982289Y-98381342D01*
X133890187Y-98530663D01*
X133890185Y-98530668D01*
X133879202Y-98563812D01*
X133835001Y-98697203D01*
X133835001Y-98697204D01*
X133835000Y-98697204D01*
X133824500Y-98799983D01*
X133824500Y-98950192D01*
X133804815Y-99017231D01*
X133752011Y-99062986D01*
X133682853Y-99072930D01*
X133619297Y-99043905D01*
X133612819Y-99037873D01*
X132943819Y-98368873D01*
X132910334Y-98307550D01*
X132907500Y-98281192D01*
X132907500Y-97594004D01*
X132880581Y-97458677D01*
X132880580Y-97458676D01*
X132880580Y-97458672D01*
X132827775Y-97331189D01*
X132757853Y-97226543D01*
X132751114Y-97216457D01*
X132269156Y-96734499D01*
X131770546Y-96235888D01*
X131770545Y-96235887D01*
X131655807Y-96159222D01*
X131528332Y-96106421D01*
X131528322Y-96106418D01*
X131392996Y-96079500D01*
X131392994Y-96079500D01*
X131392993Y-96079500D01*
X130717180Y-96079500D01*
X130650141Y-96059815D01*
X130617913Y-96029811D01*
X130617688Y-96029510D01*
X130537546Y-95922454D01*
X130480167Y-95879500D01*
X130422335Y-95836206D01*
X130422328Y-95836202D01*
X130287482Y-95785908D01*
X130287483Y-95785908D01*
X130227883Y-95779501D01*
X130227881Y-95779500D01*
X130227873Y-95779500D01*
X130227864Y-95779500D01*
X128132129Y-95779500D01*
X128132123Y-95779501D01*
X128072516Y-95785908D01*
X127937671Y-95836202D01*
X127937664Y-95836206D01*
X127822455Y-95922452D01*
X127822452Y-95922455D01*
X127736206Y-96037664D01*
X127736202Y-96037671D01*
X127685908Y-96172517D01*
X127679501Y-96232116D01*
X127679500Y-96232135D01*
X125882423Y-96232135D01*
X125913042Y-96172042D01*
X125967786Y-96003555D01*
X125995500Y-95828579D01*
X125995500Y-95651421D01*
X125967786Y-95476445D01*
X125913042Y-95307958D01*
X125913042Y-95307957D01*
X125845296Y-95175000D01*
X125832614Y-95150110D01*
X125736544Y-95017881D01*
X125713066Y-94952080D01*
X125728891Y-94884026D01*
X125736533Y-94872133D01*
X125832614Y-94739890D01*
X125913042Y-94582042D01*
X125967786Y-94413555D01*
X125995500Y-94238579D01*
X125995500Y-94061421D01*
X125967786Y-93886445D01*
X125967785Y-93886441D01*
X125916021Y-93727123D01*
X125913043Y-93717962D01*
X125913042Y-93717957D01*
X125899885Y-93692135D01*
X127679500Y-93692135D01*
X127679500Y-94787870D01*
X127679501Y-94787876D01*
X127685908Y-94847483D01*
X127736202Y-94982328D01*
X127736206Y-94982335D01*
X127822452Y-95097544D01*
X127822455Y-95097547D01*
X127937664Y-95183793D01*
X127937671Y-95183797D01*
X128072517Y-95234091D01*
X128072516Y-95234091D01*
X128079444Y-95234835D01*
X128132127Y-95240500D01*
X130227872Y-95240499D01*
X130287483Y-95234091D01*
X130422331Y-95183796D01*
X130537546Y-95097546D01*
X130623796Y-94982331D01*
X130674091Y-94847483D01*
X130680500Y-94787873D01*
X130680499Y-93692128D01*
X130674091Y-93632517D01*
X130668618Y-93617844D01*
X130623797Y-93497671D01*
X130623793Y-93497664D01*
X130537547Y-93382455D01*
X130537544Y-93382452D01*
X130422335Y-93296206D01*
X130422328Y-93296202D01*
X130287482Y-93245908D01*
X130287483Y-93245908D01*
X130227883Y-93239501D01*
X130227881Y-93239500D01*
X130227873Y-93239500D01*
X130227864Y-93239500D01*
X128132129Y-93239500D01*
X128132123Y-93239501D01*
X128072516Y-93245908D01*
X127937671Y-93296202D01*
X127937664Y-93296206D01*
X127822455Y-93382452D01*
X127822452Y-93382455D01*
X127736206Y-93497664D01*
X127736202Y-93497671D01*
X127685908Y-93632517D01*
X127679501Y-93692116D01*
X127679501Y-93692123D01*
X127679500Y-93692135D01*
X125899885Y-93692135D01*
X125832613Y-93560109D01*
X125803472Y-93520000D01*
X125736544Y-93427881D01*
X125713066Y-93362080D01*
X125728891Y-93294026D01*
X125736533Y-93282133D01*
X125832614Y-93149890D01*
X125913042Y-92992042D01*
X125967786Y-92823555D01*
X125995500Y-92648579D01*
X125995500Y-92471421D01*
X125967786Y-92296445D01*
X125913042Y-92127958D01*
X125913042Y-92127957D01*
X125860746Y-92025322D01*
X125832614Y-91970110D01*
X125736544Y-91837881D01*
X125713066Y-91772080D01*
X125728891Y-91704026D01*
X125736533Y-91692133D01*
X125832614Y-91559890D01*
X125913042Y-91402042D01*
X125967786Y-91233555D01*
X125980682Y-91152135D01*
X127679500Y-91152135D01*
X127679500Y-92247870D01*
X127679501Y-92247876D01*
X127685908Y-92307483D01*
X127736202Y-92442328D01*
X127736206Y-92442335D01*
X127822452Y-92557544D01*
X127822455Y-92557547D01*
X127937664Y-92643793D01*
X127937671Y-92643797D01*
X128072517Y-92694091D01*
X128072516Y-92694091D01*
X128079444Y-92694835D01*
X128132127Y-92700500D01*
X130227872Y-92700499D01*
X130287483Y-92694091D01*
X130422331Y-92643796D01*
X130537546Y-92557546D01*
X130623796Y-92442331D01*
X130674091Y-92307483D01*
X130680500Y-92247873D01*
X130680499Y-91152128D01*
X130674091Y-91092517D01*
X130640851Y-91003397D01*
X130623797Y-90957671D01*
X130623793Y-90957664D01*
X130537547Y-90842455D01*
X130537544Y-90842452D01*
X130422335Y-90756206D01*
X130422328Y-90756202D01*
X130287482Y-90705908D01*
X130287483Y-90705908D01*
X130227883Y-90699501D01*
X130227881Y-90699500D01*
X130227873Y-90699500D01*
X130227864Y-90699500D01*
X128132129Y-90699500D01*
X128132123Y-90699501D01*
X128072516Y-90705908D01*
X127937671Y-90756202D01*
X127937664Y-90756206D01*
X127822455Y-90842452D01*
X127822452Y-90842455D01*
X127736206Y-90957664D01*
X127736202Y-90957671D01*
X127685908Y-91092517D01*
X127680728Y-91140706D01*
X127679501Y-91152123D01*
X127679500Y-91152135D01*
X125980682Y-91152135D01*
X125995500Y-91058579D01*
X125995500Y-90881421D01*
X125967786Y-90706445D01*
X125940414Y-90622201D01*
X125913043Y-90537960D01*
X125913042Y-90537957D01*
X125872061Y-90457529D01*
X125832614Y-90380110D01*
X125736544Y-90247881D01*
X125713066Y-90182080D01*
X125728891Y-90114026D01*
X125736533Y-90102133D01*
X125832614Y-89969890D01*
X125913042Y-89812042D01*
X125967786Y-89643555D01*
X125995500Y-89468579D01*
X125995500Y-89291421D01*
X125967786Y-89116445D01*
X125940414Y-89032201D01*
X125913043Y-88947960D01*
X125913042Y-88947957D01*
X125859355Y-88842592D01*
X125832614Y-88790110D01*
X125832612Y-88790107D01*
X125832611Y-88790105D01*
X125792761Y-88735257D01*
X125736545Y-88657882D01*
X125720222Y-88612135D01*
X127679500Y-88612135D01*
X127679500Y-89707870D01*
X127679501Y-89707876D01*
X127685908Y-89767483D01*
X127736202Y-89902328D01*
X127736206Y-89902335D01*
X127822452Y-90017544D01*
X127822455Y-90017547D01*
X127937664Y-90103793D01*
X127937671Y-90103797D01*
X128072517Y-90154091D01*
X128072516Y-90154091D01*
X128079444Y-90154835D01*
X128132127Y-90160500D01*
X130227872Y-90160499D01*
X130287483Y-90154091D01*
X130422331Y-90103796D01*
X130537546Y-90017546D01*
X130623796Y-89902331D01*
X130674091Y-89767483D01*
X130680500Y-89707873D01*
X130680499Y-88612128D01*
X130674091Y-88552517D01*
X130668676Y-88537999D01*
X130623797Y-88417671D01*
X130623793Y-88417664D01*
X130537547Y-88302455D01*
X130537544Y-88302452D01*
X130422335Y-88216206D01*
X130422328Y-88216202D01*
X130287482Y-88165908D01*
X130287483Y-88165908D01*
X130227883Y-88159501D01*
X130227881Y-88159500D01*
X130227873Y-88159500D01*
X130227864Y-88159500D01*
X128132129Y-88159500D01*
X128132123Y-88159501D01*
X128072516Y-88165908D01*
X127937671Y-88216202D01*
X127937664Y-88216206D01*
X127822455Y-88302452D01*
X127822452Y-88302455D01*
X127736206Y-88417664D01*
X127736202Y-88417671D01*
X127685908Y-88552517D01*
X127679992Y-88607547D01*
X127679501Y-88612123D01*
X127679500Y-88612135D01*
X125720222Y-88612135D01*
X125713066Y-88592079D01*
X125728892Y-88524025D01*
X125736533Y-88512133D01*
X125832614Y-88379890D01*
X125913042Y-88222042D01*
X125967786Y-88053555D01*
X125995500Y-87878579D01*
X125995500Y-87701421D01*
X125967786Y-87526445D01*
X125932575Y-87418075D01*
X125913043Y-87357960D01*
X125913042Y-87357957D01*
X125872061Y-87277529D01*
X125832614Y-87200110D01*
X125736544Y-87067881D01*
X125713066Y-87002080D01*
X125728891Y-86934026D01*
X125736533Y-86922133D01*
X125832614Y-86789890D01*
X125913042Y-86632042D01*
X125967786Y-86463555D01*
X125995500Y-86288579D01*
X125995500Y-86111421D01*
X125989278Y-86072135D01*
X127679500Y-86072135D01*
X127679500Y-87167870D01*
X127679501Y-87167876D01*
X127685908Y-87227483D01*
X127736202Y-87362328D01*
X127736206Y-87362335D01*
X127822452Y-87477544D01*
X127822455Y-87477547D01*
X127937664Y-87563793D01*
X127937671Y-87563797D01*
X128072517Y-87614091D01*
X128072516Y-87614091D01*
X128079444Y-87614835D01*
X128132127Y-87620500D01*
X130227872Y-87620499D01*
X130287483Y-87614091D01*
X130422331Y-87563796D01*
X130537546Y-87477546D01*
X130623796Y-87362331D01*
X130674091Y-87227483D01*
X130680500Y-87167873D01*
X130680499Y-86072128D01*
X130674091Y-86012517D01*
X130645717Y-85936443D01*
X130623797Y-85877671D01*
X130623793Y-85877664D01*
X130537547Y-85762455D01*
X130537544Y-85762452D01*
X130422335Y-85676206D01*
X130422328Y-85676202D01*
X130287482Y-85625908D01*
X130287483Y-85625908D01*
X130227883Y-85619501D01*
X130227881Y-85619500D01*
X130227873Y-85619500D01*
X130227864Y-85619500D01*
X128132129Y-85619500D01*
X128132123Y-85619501D01*
X128072516Y-85625908D01*
X127937671Y-85676202D01*
X127937664Y-85676206D01*
X127822455Y-85762452D01*
X127822452Y-85762455D01*
X127736206Y-85877664D01*
X127736202Y-85877671D01*
X127685908Y-86012517D01*
X127679501Y-86072116D01*
X127679501Y-86072123D01*
X127679500Y-86072135D01*
X125989278Y-86072135D01*
X125967786Y-85936445D01*
X125913042Y-85767958D01*
X125913042Y-85767957D01*
X125840664Y-85625909D01*
X125832614Y-85610110D01*
X125728483Y-85466786D01*
X125603214Y-85341517D01*
X125459890Y-85237386D01*
X125302042Y-85156957D01*
X125302039Y-85156956D01*
X125133556Y-85102214D01*
X125046067Y-85088357D01*
X124958579Y-85074500D01*
X124781421Y-85074500D01*
X124723095Y-85083738D01*
X124606443Y-85102214D01*
X124437960Y-85156956D01*
X124437957Y-85156957D01*
X124280109Y-85237386D01*
X124210041Y-85288294D01*
X124136786Y-85341517D01*
X124136784Y-85341519D01*
X124136783Y-85341519D01*
X124011519Y-85466783D01*
X124011519Y-85466784D01*
X124011517Y-85466786D01*
X123966796Y-85528338D01*
X123907386Y-85610109D01*
X123826957Y-85767957D01*
X123826956Y-85767960D01*
X123772214Y-85936443D01*
X123744500Y-86111421D01*
X112680499Y-86111421D01*
X112680499Y-86072128D01*
X112674091Y-86012517D01*
X112645717Y-85936443D01*
X112623797Y-85877671D01*
X112623793Y-85877664D01*
X112537547Y-85762455D01*
X112537544Y-85762452D01*
X112422335Y-85676206D01*
X112422328Y-85676202D01*
X112287482Y-85625908D01*
X112287483Y-85625908D01*
X112227883Y-85619501D01*
X112227881Y-85619500D01*
X112227873Y-85619500D01*
X112227864Y-85619500D01*
X110132129Y-85619500D01*
X110132123Y-85619501D01*
X110072516Y-85625908D01*
X109937671Y-85676202D01*
X109937664Y-85676206D01*
X109822455Y-85762452D01*
X109822452Y-85762455D01*
X109736206Y-85877664D01*
X109736202Y-85877671D01*
X109685908Y-86012517D01*
X109679501Y-86072116D01*
X109679501Y-86072123D01*
X109679500Y-86072135D01*
X95922364Y-86072135D01*
X97366655Y-84627844D01*
X109680000Y-84627844D01*
X109686401Y-84687372D01*
X109686403Y-84687379D01*
X109736645Y-84822086D01*
X109736649Y-84822093D01*
X109822809Y-84937187D01*
X109822812Y-84937190D01*
X109937906Y-85023350D01*
X109937913Y-85023354D01*
X110072620Y-85073596D01*
X110072627Y-85073598D01*
X110132155Y-85079999D01*
X110132172Y-85080000D01*
X110930000Y-85080000D01*
X111430000Y-85080000D01*
X112227828Y-85080000D01*
X112227844Y-85079999D01*
X112287372Y-85073598D01*
X112287379Y-85073596D01*
X112422086Y-85023354D01*
X112422093Y-85023350D01*
X112537187Y-84937190D01*
X112537190Y-84937187D01*
X112623350Y-84822093D01*
X112623354Y-84822086D01*
X112673596Y-84687379D01*
X112673598Y-84687372D01*
X112679999Y-84627844D01*
X112680000Y-84627827D01*
X112680000Y-84330000D01*
X111430000Y-84330000D01*
X111430000Y-85080000D01*
X110930000Y-85080000D01*
X110930000Y-84330000D01*
X109680000Y-84330000D01*
X109680000Y-84627844D01*
X97366655Y-84627844D01*
X98462344Y-83532155D01*
X109680000Y-83532155D01*
X109680000Y-83830000D01*
X110930000Y-83830000D01*
X111430000Y-83830000D01*
X112680000Y-83830000D01*
X112680000Y-83532164D01*
X112679997Y-83532135D01*
X127679500Y-83532135D01*
X127679500Y-84627870D01*
X127679501Y-84627876D01*
X127685908Y-84687483D01*
X127736202Y-84822328D01*
X127736206Y-84822335D01*
X127822452Y-84937544D01*
X127822455Y-84937547D01*
X127937664Y-85023793D01*
X127937671Y-85023797D01*
X128072517Y-85074091D01*
X128072516Y-85074091D01*
X128076321Y-85074500D01*
X128132127Y-85080500D01*
X130227872Y-85080499D01*
X130287483Y-85074091D01*
X130422331Y-85023796D01*
X130537546Y-84937546D01*
X130623796Y-84822331D01*
X130674091Y-84687483D01*
X130680500Y-84627873D01*
X130680499Y-83532128D01*
X130674091Y-83472517D01*
X130644229Y-83392454D01*
X130623797Y-83337671D01*
X130623793Y-83337664D01*
X130537547Y-83222455D01*
X130537544Y-83222452D01*
X130422335Y-83136206D01*
X130422328Y-83136202D01*
X130287482Y-83085908D01*
X130287483Y-83085908D01*
X130227883Y-83079501D01*
X130227881Y-83079500D01*
X130227873Y-83079500D01*
X130227864Y-83079500D01*
X128132129Y-83079500D01*
X128132123Y-83079501D01*
X128072516Y-83085908D01*
X127937671Y-83136202D01*
X127937664Y-83136206D01*
X127822455Y-83222452D01*
X127822452Y-83222455D01*
X127736206Y-83337664D01*
X127736202Y-83337671D01*
X127685908Y-83472517D01*
X127682129Y-83507671D01*
X127679501Y-83532123D01*
X127679500Y-83532135D01*
X112679997Y-83532135D01*
X112673598Y-83472627D01*
X112673596Y-83472620D01*
X112623354Y-83337913D01*
X112623350Y-83337906D01*
X112537190Y-83222812D01*
X112537187Y-83222809D01*
X112422093Y-83136649D01*
X112422086Y-83136645D01*
X112287379Y-83086403D01*
X112287372Y-83086401D01*
X112227844Y-83080000D01*
X111430000Y-83080000D01*
X111430000Y-83830000D01*
X110930000Y-83830000D01*
X110930000Y-83080000D01*
X110132155Y-83080000D01*
X110072627Y-83086401D01*
X110072620Y-83086403D01*
X109937913Y-83136645D01*
X109937906Y-83136649D01*
X109822812Y-83222809D01*
X109822809Y-83222812D01*
X109736649Y-83337906D01*
X109736645Y-83337913D01*
X109686403Y-83472620D01*
X109686401Y-83472627D01*
X109680000Y-83532155D01*
X98462344Y-83532155D01*
X100034346Y-81960153D01*
X104942500Y-81960153D01*
X104942500Y-82117846D01*
X104973261Y-82272489D01*
X104973264Y-82272501D01*
X105033602Y-82418172D01*
X105033609Y-82418185D01*
X105121210Y-82549288D01*
X105121213Y-82549292D01*
X105232707Y-82660786D01*
X105232711Y-82660789D01*
X105363814Y-82748390D01*
X105363827Y-82748397D01*
X105509498Y-82808735D01*
X105509503Y-82808737D01*
X105664153Y-82839499D01*
X105664156Y-82839500D01*
X105664158Y-82839500D01*
X105821844Y-82839500D01*
X105821845Y-82839499D01*
X105976497Y-82808737D01*
X106122179Y-82748394D01*
X106253289Y-82660789D01*
X106537259Y-82376819D01*
X106598582Y-82343334D01*
X106624940Y-82340500D01*
X109717680Y-82340500D01*
X109784719Y-82360185D01*
X109816948Y-82390191D01*
X109822454Y-82397546D01*
X109822457Y-82397548D01*
X109937664Y-82483793D01*
X109937671Y-82483797D01*
X110072517Y-82534091D01*
X110072516Y-82534091D01*
X110079444Y-82534835D01*
X110132127Y-82540500D01*
X112227872Y-82540499D01*
X112287483Y-82534091D01*
X112422331Y-82483796D01*
X112537546Y-82397546D01*
X112623796Y-82282331D01*
X112674091Y-82147483D01*
X112680500Y-82087873D01*
X112680499Y-80992135D01*
X127679500Y-80992135D01*
X127679500Y-82087870D01*
X127679501Y-82087876D01*
X127685908Y-82147483D01*
X127736202Y-82282328D01*
X127736206Y-82282335D01*
X127822452Y-82397544D01*
X127822455Y-82397547D01*
X127937664Y-82483793D01*
X127937671Y-82483797D01*
X128072517Y-82534091D01*
X128072516Y-82534091D01*
X128079444Y-82534835D01*
X128132127Y-82540500D01*
X130227872Y-82540499D01*
X130287483Y-82534091D01*
X130422331Y-82483796D01*
X130537546Y-82397546D01*
X130623796Y-82282331D01*
X130674091Y-82147483D01*
X130680500Y-82087873D01*
X130680499Y-80992128D01*
X130674091Y-80932517D01*
X130668755Y-80918211D01*
X130623797Y-80797671D01*
X130623793Y-80797664D01*
X130537547Y-80682455D01*
X130537544Y-80682452D01*
X130422335Y-80596206D01*
X130422328Y-80596202D01*
X130287482Y-80545908D01*
X130287483Y-80545908D01*
X130227883Y-80539501D01*
X130227881Y-80539500D01*
X130227873Y-80539500D01*
X130227864Y-80539500D01*
X128132129Y-80539500D01*
X128132123Y-80539501D01*
X128072516Y-80545908D01*
X127937671Y-80596202D01*
X127937664Y-80596206D01*
X127822455Y-80682452D01*
X127822452Y-80682455D01*
X127736206Y-80797664D01*
X127736202Y-80797671D01*
X127685908Y-80932517D01*
X127679501Y-80992116D01*
X127679501Y-80992123D01*
X127679500Y-80992135D01*
X112680499Y-80992135D01*
X112680499Y-80992128D01*
X112674091Y-80932517D01*
X112668755Y-80918211D01*
X112623797Y-80797671D01*
X112623793Y-80797664D01*
X112537547Y-80682455D01*
X112537544Y-80682452D01*
X112422335Y-80596206D01*
X112422328Y-80596202D01*
X112287482Y-80545908D01*
X112287483Y-80545908D01*
X112227883Y-80539501D01*
X112227881Y-80539500D01*
X112227873Y-80539500D01*
X112227864Y-80539500D01*
X110132129Y-80539500D01*
X110132123Y-80539501D01*
X110072516Y-80545908D01*
X109937671Y-80596202D01*
X109937664Y-80596206D01*
X109822457Y-80682451D01*
X109822451Y-80682457D01*
X109816948Y-80689809D01*
X109761015Y-80731681D01*
X109717680Y-80739500D01*
X106163153Y-80739500D01*
X106008510Y-80770260D01*
X106008502Y-80770262D01*
X105862824Y-80830604D01*
X105862814Y-80830609D01*
X105731711Y-80918210D01*
X105731707Y-80918213D01*
X105121213Y-81528707D01*
X105121210Y-81528711D01*
X105033609Y-81659814D01*
X105033602Y-81659827D01*
X104973264Y-81805498D01*
X104973261Y-81805510D01*
X104942500Y-81960153D01*
X100034346Y-81960153D01*
X102057680Y-79936819D01*
X102119003Y-79903334D01*
X102145361Y-79900500D01*
X110019868Y-79900500D01*
X110084963Y-79918960D01*
X110110666Y-79934814D01*
X110277203Y-79989999D01*
X110379991Y-80000500D01*
X111980008Y-80000499D01*
X112082797Y-79989999D01*
X112249334Y-79934814D01*
X112398656Y-79842712D01*
X112522712Y-79718656D01*
X112614814Y-79569334D01*
X112669999Y-79402797D01*
X112680500Y-79300009D01*
X112680499Y-78699992D01*
X112669999Y-78597203D01*
X112621928Y-78452135D01*
X127679500Y-78452135D01*
X127679500Y-79547870D01*
X127679501Y-79547876D01*
X127685908Y-79607483D01*
X127736202Y-79742328D01*
X127736206Y-79742335D01*
X127822452Y-79857544D01*
X127822455Y-79857547D01*
X127937664Y-79943793D01*
X127937671Y-79943797D01*
X128072517Y-79994091D01*
X128072516Y-79994091D01*
X128079444Y-79994835D01*
X128132127Y-80000500D01*
X130227872Y-80000499D01*
X130287483Y-79994091D01*
X130422331Y-79943796D01*
X130537546Y-79857546D01*
X130623796Y-79742331D01*
X130674091Y-79607483D01*
X130680500Y-79547873D01*
X130680499Y-78452128D01*
X130674091Y-78392517D01*
X130639785Y-78300539D01*
X130623796Y-78257669D01*
X130623793Y-78257664D01*
X130537547Y-78142455D01*
X130537544Y-78142452D01*
X130422335Y-78056206D01*
X130422328Y-78056202D01*
X130287482Y-78005908D01*
X130287483Y-78005908D01*
X130227883Y-77999501D01*
X130227881Y-77999500D01*
X130227873Y-77999500D01*
X130227864Y-77999500D01*
X128132129Y-77999500D01*
X128132123Y-77999501D01*
X128072516Y-78005908D01*
X127937671Y-78056202D01*
X127937664Y-78056206D01*
X127822455Y-78142452D01*
X127822452Y-78142455D01*
X127736206Y-78257664D01*
X127736204Y-78257669D01*
X127685908Y-78392517D01*
X127681807Y-78430666D01*
X127679501Y-78452123D01*
X127679500Y-78452135D01*
X112621928Y-78452135D01*
X112614814Y-78430666D01*
X112522712Y-78281344D01*
X112398656Y-78157288D01*
X112249334Y-78065186D01*
X112082797Y-78010001D01*
X112082795Y-78010000D01*
X111980010Y-77999500D01*
X110379998Y-77999500D01*
X110379981Y-77999501D01*
X110277203Y-78010000D01*
X110277200Y-78010001D01*
X110110668Y-78065185D01*
X110110663Y-78065187D01*
X110094933Y-78074889D01*
X110084963Y-78081039D01*
X110019868Y-78099500D01*
X101632306Y-78099500D01*
X101458341Y-78134103D01*
X101458332Y-78134106D01*
X101294457Y-78201984D01*
X101294456Y-78201985D01*
X101211120Y-78257669D01*
X101146964Y-78300536D01*
X101146960Y-78300539D01*
X93026536Y-86420962D01*
X93022811Y-86426539D01*
X93022806Y-86426547D01*
X92927988Y-86568450D01*
X92927987Y-86568452D01*
X92906315Y-86620774D01*
X92906315Y-86620775D01*
X92860105Y-86732333D01*
X92860103Y-86732341D01*
X92833538Y-86865892D01*
X92833539Y-86865893D01*
X92833539Y-86865894D01*
X92826656Y-86900500D01*
X92825500Y-86906310D01*
X88209500Y-86906310D01*
X88209500Y-80881902D01*
X90499500Y-80881902D01*
X90499500Y-81118097D01*
X90536446Y-81351368D01*
X90609433Y-81575996D01*
X90716657Y-81786433D01*
X90855483Y-81977510D01*
X91022490Y-82144517D01*
X91213567Y-82283343D01*
X91312991Y-82334002D01*
X91424003Y-82390566D01*
X91424005Y-82390566D01*
X91424008Y-82390568D01*
X91508964Y-82418172D01*
X91648631Y-82463553D01*
X91881903Y-82500500D01*
X91881908Y-82500500D01*
X92118097Y-82500500D01*
X92351368Y-82463553D01*
X92575992Y-82390568D01*
X92786433Y-82283343D01*
X92977510Y-82144517D01*
X93144517Y-81977510D01*
X93283343Y-81786433D01*
X93390568Y-81575992D01*
X93463553Y-81351368D01*
X93478423Y-81257482D01*
X93500500Y-81118097D01*
X93500500Y-80881902D01*
X93463553Y-80648631D01*
X93390566Y-80424003D01*
X93283342Y-80213566D01*
X93144517Y-80022490D01*
X92977510Y-79855483D01*
X92786433Y-79716657D01*
X92575996Y-79609433D01*
X92351368Y-79536446D01*
X92118097Y-79499500D01*
X92118092Y-79499500D01*
X91881908Y-79499500D01*
X91881903Y-79499500D01*
X91648631Y-79536446D01*
X91424003Y-79609433D01*
X91213566Y-79716657D01*
X91178224Y-79742335D01*
X91022490Y-79855483D01*
X91022488Y-79855485D01*
X91022487Y-79855485D01*
X90855485Y-80022487D01*
X90855485Y-80022488D01*
X90855483Y-80022490D01*
X90795862Y-80104550D01*
X90716657Y-80213566D01*
X90609433Y-80424003D01*
X90536446Y-80648631D01*
X90499500Y-80881902D01*
X88209500Y-80881902D01*
X88209500Y-77129500D01*
X88229185Y-77062461D01*
X88281989Y-77016706D01*
X88333500Y-77005500D01*
X131132594Y-77005500D01*
X131199633Y-77025185D01*
G37*
%TD.AperFunction*%
%TD*%
M02*
