%TF.GenerationSoftware,KiCad,Pcbnew,9.0.7*%
%TF.CreationDate,2026-03-17T20:14:33-05:00*%
%TF.ProjectId,TrailCurrentBorealis,54726169-6c43-4757-9272-656e74426f72,rev?*%
%TF.SameCoordinates,Original*%
%TF.FileFunction,Legend,Top*%
%TF.FilePolarity,Positive*%
%FSLAX46Y46*%
G04 Gerber Fmt 4.6, Leading zero omitted, Abs format (unit mm)*
G04 Created by KiCad (PCBNEW 9.0.7) date 2026-03-17 20:14:33*
%MOMM*%
%LPD*%
G01*
G04 APERTURE LIST*
%ADD10C,0.150000*%
%ADD11C,0.254000*%
%ADD12C,0.120000*%
%ADD13C,0.360000*%
%ADD14C,0.200000*%
%ADD15C,0.127000*%
G04 APERTURE END LIST*
D10*
X128454380Y-116450726D02*
X128454380Y-117478821D01*
X128454380Y-117478821D02*
X128514857Y-117599773D01*
X128514857Y-117599773D02*
X128575333Y-117660250D01*
X128575333Y-117660250D02*
X128696285Y-117720726D01*
X128696285Y-117720726D02*
X128938190Y-117720726D01*
X128938190Y-117720726D02*
X129059142Y-117660250D01*
X129059142Y-117660250D02*
X129119619Y-117599773D01*
X129119619Y-117599773D02*
X129180095Y-117478821D01*
X129180095Y-117478821D02*
X129180095Y-116450726D01*
X129663904Y-116450726D02*
X130450095Y-116450726D01*
X130450095Y-116450726D02*
X130026761Y-116934535D01*
X130026761Y-116934535D02*
X130208190Y-116934535D01*
X130208190Y-116934535D02*
X130329142Y-116995011D01*
X130329142Y-116995011D02*
X130389618Y-117055488D01*
X130389618Y-117055488D02*
X130450095Y-117176440D01*
X130450095Y-117176440D02*
X130450095Y-117478821D01*
X130450095Y-117478821D02*
X130389618Y-117599773D01*
X130389618Y-117599773D02*
X130329142Y-117660250D01*
X130329142Y-117660250D02*
X130208190Y-117720726D01*
X130208190Y-117720726D02*
X129845333Y-117720726D01*
X129845333Y-117720726D02*
X129724380Y-117660250D01*
X129724380Y-117660250D02*
X129663904Y-117599773D01*
X107663726Y-95201619D02*
X108691821Y-95201619D01*
X108691821Y-95201619D02*
X108812773Y-95141142D01*
X108812773Y-95141142D02*
X108873250Y-95080666D01*
X108873250Y-95080666D02*
X108933726Y-94959714D01*
X108933726Y-94959714D02*
X108933726Y-94717809D01*
X108933726Y-94717809D02*
X108873250Y-94596857D01*
X108873250Y-94596857D02*
X108812773Y-94536380D01*
X108812773Y-94536380D02*
X108691821Y-94475904D01*
X108691821Y-94475904D02*
X107663726Y-94475904D01*
X108087059Y-93326857D02*
X108933726Y-93326857D01*
X107603250Y-93629238D02*
X108510392Y-93931619D01*
X108510392Y-93931619D02*
X108510392Y-93145428D01*
X151238095Y-78004819D02*
X151238095Y-77004819D01*
X151238095Y-77481009D02*
X151809523Y-77481009D01*
X151809523Y-78004819D02*
X151809523Y-77004819D01*
X152190476Y-77004819D02*
X152809523Y-77004819D01*
X152809523Y-77004819D02*
X152476190Y-77385771D01*
X152476190Y-77385771D02*
X152619047Y-77385771D01*
X152619047Y-77385771D02*
X152714285Y-77433390D01*
X152714285Y-77433390D02*
X152761904Y-77481009D01*
X152761904Y-77481009D02*
X152809523Y-77576247D01*
X152809523Y-77576247D02*
X152809523Y-77814342D01*
X152809523Y-77814342D02*
X152761904Y-77909580D01*
X152761904Y-77909580D02*
X152714285Y-77957200D01*
X152714285Y-77957200D02*
X152619047Y-78004819D01*
X152619047Y-78004819D02*
X152333333Y-78004819D01*
X152333333Y-78004819D02*
X152238095Y-77957200D01*
X152238095Y-77957200D02*
X152190476Y-77909580D01*
X151238095Y-117004819D02*
X151238095Y-116004819D01*
X151238095Y-116481009D02*
X151809523Y-116481009D01*
X151809523Y-117004819D02*
X151809523Y-116004819D01*
X152714285Y-116338152D02*
X152714285Y-117004819D01*
X152476190Y-115957200D02*
X152238095Y-116671485D01*
X152238095Y-116671485D02*
X152857142Y-116671485D01*
D11*
X142960237Y-93774318D02*
X142960237Y-92504318D01*
X144290714Y-93653365D02*
X144230238Y-93713842D01*
X144230238Y-93713842D02*
X144048809Y-93774318D01*
X144048809Y-93774318D02*
X143927857Y-93774318D01*
X143927857Y-93774318D02*
X143746428Y-93713842D01*
X143746428Y-93713842D02*
X143625476Y-93592889D01*
X143625476Y-93592889D02*
X143564999Y-93471937D01*
X143564999Y-93471937D02*
X143504523Y-93230032D01*
X143504523Y-93230032D02*
X143504523Y-93048603D01*
X143504523Y-93048603D02*
X143564999Y-92806699D01*
X143564999Y-92806699D02*
X143625476Y-92685746D01*
X143625476Y-92685746D02*
X143746428Y-92564794D01*
X143746428Y-92564794D02*
X143927857Y-92504318D01*
X143927857Y-92504318D02*
X144048809Y-92504318D01*
X144048809Y-92504318D02*
X144230238Y-92564794D01*
X144230238Y-92564794D02*
X144290714Y-92625270D01*
X145500238Y-93774318D02*
X144774523Y-93774318D01*
X145137380Y-93774318D02*
X145137380Y-92504318D01*
X145137380Y-92504318D02*
X145016428Y-92685746D01*
X145016428Y-92685746D02*
X144895476Y-92806699D01*
X144895476Y-92806699D02*
X144774523Y-92867175D01*
D10*
X138454819Y-102316666D02*
X137978628Y-102649999D01*
X138454819Y-102888094D02*
X137454819Y-102888094D01*
X137454819Y-102888094D02*
X137454819Y-102507142D01*
X137454819Y-102507142D02*
X137502438Y-102411904D01*
X137502438Y-102411904D02*
X137550057Y-102364285D01*
X137550057Y-102364285D02*
X137645295Y-102316666D01*
X137645295Y-102316666D02*
X137788152Y-102316666D01*
X137788152Y-102316666D02*
X137883390Y-102364285D01*
X137883390Y-102364285D02*
X137931009Y-102411904D01*
X137931009Y-102411904D02*
X137978628Y-102507142D01*
X137978628Y-102507142D02*
X137978628Y-102888094D01*
X138454819Y-101364285D02*
X138454819Y-101935713D01*
X138454819Y-101649999D02*
X137454819Y-101649999D01*
X137454819Y-101649999D02*
X137597676Y-101745237D01*
X137597676Y-101745237D02*
X137692914Y-101840475D01*
X137692914Y-101840475D02*
X137740533Y-101935713D01*
X140266666Y-81654819D02*
X140266666Y-82369104D01*
X140266666Y-82369104D02*
X140219047Y-82511961D01*
X140219047Y-82511961D02*
X140123809Y-82607200D01*
X140123809Y-82607200D02*
X139980952Y-82654819D01*
X139980952Y-82654819D02*
X139885714Y-82654819D01*
X140695238Y-81750057D02*
X140742857Y-81702438D01*
X140742857Y-81702438D02*
X140838095Y-81654819D01*
X140838095Y-81654819D02*
X141076190Y-81654819D01*
X141076190Y-81654819D02*
X141171428Y-81702438D01*
X141171428Y-81702438D02*
X141219047Y-81750057D01*
X141219047Y-81750057D02*
X141266666Y-81845295D01*
X141266666Y-81845295D02*
X141266666Y-81940533D01*
X141266666Y-81940533D02*
X141219047Y-82083390D01*
X141219047Y-82083390D02*
X140647619Y-82654819D01*
X140647619Y-82654819D02*
X141266666Y-82654819D01*
X102664380Y-122355726D02*
X102664380Y-123383821D01*
X102664380Y-123383821D02*
X102724857Y-123504773D01*
X102724857Y-123504773D02*
X102785333Y-123565250D01*
X102785333Y-123565250D02*
X102906285Y-123625726D01*
X102906285Y-123625726D02*
X103148190Y-123625726D01*
X103148190Y-123625726D02*
X103269142Y-123565250D01*
X103269142Y-123565250D02*
X103329619Y-123504773D01*
X103329619Y-123504773D02*
X103390095Y-123383821D01*
X103390095Y-123383821D02*
X103390095Y-122355726D01*
X103934380Y-122476678D02*
X103994856Y-122416202D01*
X103994856Y-122416202D02*
X104115809Y-122355726D01*
X104115809Y-122355726D02*
X104418190Y-122355726D01*
X104418190Y-122355726D02*
X104539142Y-122416202D01*
X104539142Y-122416202D02*
X104599618Y-122476678D01*
X104599618Y-122476678D02*
X104660095Y-122597630D01*
X104660095Y-122597630D02*
X104660095Y-122718583D01*
X104660095Y-122718583D02*
X104599618Y-122900011D01*
X104599618Y-122900011D02*
X103873904Y-123625726D01*
X103873904Y-123625726D02*
X104660095Y-123625726D01*
X91238095Y-78004819D02*
X91238095Y-77004819D01*
X91238095Y-77481009D02*
X91809523Y-77481009D01*
X91809523Y-78004819D02*
X91809523Y-77004819D01*
X92809523Y-78004819D02*
X92238095Y-78004819D01*
X92523809Y-78004819D02*
X92523809Y-77004819D01*
X92523809Y-77004819D02*
X92428571Y-77147676D01*
X92428571Y-77147676D02*
X92333333Y-77242914D01*
X92333333Y-77242914D02*
X92238095Y-77290533D01*
X91238095Y-117004819D02*
X91238095Y-116004819D01*
X91238095Y-116481009D02*
X91809523Y-116481009D01*
X91809523Y-117004819D02*
X91809523Y-116004819D01*
X92238095Y-116100057D02*
X92285714Y-116052438D01*
X92285714Y-116052438D02*
X92380952Y-116004819D01*
X92380952Y-116004819D02*
X92619047Y-116004819D01*
X92619047Y-116004819D02*
X92714285Y-116052438D01*
X92714285Y-116052438D02*
X92761904Y-116100057D01*
X92761904Y-116100057D02*
X92809523Y-116195295D01*
X92809523Y-116195295D02*
X92809523Y-116290533D01*
X92809523Y-116290533D02*
X92761904Y-116433390D01*
X92761904Y-116433390D02*
X92190476Y-117004819D01*
X92190476Y-117004819D02*
X92809523Y-117004819D01*
X122730380Y-81478726D02*
X122730380Y-82506821D01*
X122730380Y-82506821D02*
X122790857Y-82627773D01*
X122790857Y-82627773D02*
X122851333Y-82688250D01*
X122851333Y-82688250D02*
X122972285Y-82748726D01*
X122972285Y-82748726D02*
X123214190Y-82748726D01*
X123214190Y-82748726D02*
X123335142Y-82688250D01*
X123335142Y-82688250D02*
X123395619Y-82627773D01*
X123395619Y-82627773D02*
X123456095Y-82506821D01*
X123456095Y-82506821D02*
X123456095Y-81478726D01*
X124726095Y-82748726D02*
X124000380Y-82748726D01*
X124363237Y-82748726D02*
X124363237Y-81478726D01*
X124363237Y-81478726D02*
X124242285Y-81660154D01*
X124242285Y-81660154D02*
X124121333Y-81781107D01*
X124121333Y-81781107D02*
X124000380Y-81841583D01*
D12*
%TO.C,U3*%
X144368000Y-124040000D02*
X114128000Y-124040000D01*
X114128000Y-124040000D02*
X114128000Y-122870000D01*
X114128000Y-120970000D02*
X114128000Y-120330000D01*
X114128000Y-118430000D02*
X114128000Y-111410000D01*
X114128000Y-109510000D02*
X114128000Y-108870000D01*
X114128000Y-106970000D02*
X114128000Y-105800000D01*
X114128000Y-105800000D02*
X132408000Y-105800000D01*
X134308000Y-105800000D02*
X144368000Y-105800000D01*
X144368000Y-105800000D02*
X144368000Y-106970000D01*
X144368000Y-108870000D02*
X144368000Y-109510000D01*
X144368000Y-111410000D02*
X144368000Y-118430000D01*
X144368000Y-120330000D02*
X144368000Y-120970000D01*
X144368000Y-122870000D02*
X144368000Y-124040000D01*
D13*
X145928000Y-124040000D02*
G75*
G02*
X145568000Y-124040000I-180000J0D01*
G01*
X145568000Y-124040000D02*
G75*
G02*
X145928000Y-124040000I180000J0D01*
G01*
D12*
%TO.C,U4*%
X107054000Y-86494000D02*
X107054000Y-101974000D01*
X107054000Y-101974000D02*
X96654000Y-101974000D01*
X96654000Y-101974000D02*
X96654000Y-86494000D01*
X96654000Y-86494000D02*
X107054000Y-86494000D01*
D13*
X107234000Y-85734000D02*
G75*
G02*
X106874000Y-85734000I-180000J0D01*
G01*
X106874000Y-85734000D02*
G75*
G02*
X107234000Y-85734000I180000J0D01*
G01*
D14*
%TO.C,IC1*%
X141275000Y-96460000D02*
X139525000Y-96460000D01*
X139175000Y-96357000D02*
X136525000Y-96357000D01*
X139175000Y-91453000D02*
X139175000Y-96357000D01*
X136525000Y-96357000D02*
X136525000Y-91453000D01*
X136525000Y-91453000D02*
X139175000Y-91453000D01*
D12*
%TO.C,R1*%
X134290000Y-101527064D02*
X134290000Y-100072936D01*
X136110000Y-101527064D02*
X136110000Y-100072936D01*
D15*
%TO.C,J2*%
X147100000Y-82950000D02*
X145875000Y-82950000D01*
X147100000Y-81470000D02*
X147100000Y-82950000D01*
X145875000Y-85280000D02*
X144320000Y-85280000D01*
X145875000Y-82950000D02*
X145875000Y-85280000D01*
X145330000Y-77450000D02*
X133870000Y-77450000D01*
X134880000Y-85280000D02*
X133325000Y-85280000D01*
X133325000Y-85280000D02*
X133325000Y-82950000D01*
X133325000Y-82950000D02*
X132100000Y-82950000D01*
X132100000Y-82950000D02*
X132100000Y-81470000D01*
D14*
X143450000Y-88950000D02*
G75*
G02*
X143250000Y-88950000I-100000J0D01*
G01*
X143250000Y-88950000D02*
G75*
G02*
X143450000Y-88950000I100000J0D01*
G01*
D12*
%TO.C,U2*%
X108752000Y-121666000D02*
X98512000Y-121666000D01*
X98512000Y-121666000D02*
X98512000Y-106426000D01*
X98512000Y-106426000D02*
X108752000Y-106426000D01*
X108752000Y-106426000D02*
X108752000Y-121666000D01*
D13*
X109312000Y-108046000D02*
G75*
G02*
X108952000Y-108046000I-180000J0D01*
G01*
X108952000Y-108046000D02*
G75*
G02*
X109312000Y-108046000I180000J0D01*
G01*
D12*
%TO.C,U1*%
X111060000Y-77290000D02*
X111060000Y-78300000D01*
X111060000Y-77290000D02*
X129300000Y-77290000D01*
X111060000Y-79700000D02*
X111060000Y-80840000D01*
X111060000Y-82240000D02*
X111060000Y-83380000D01*
X111060000Y-84780000D02*
X111060000Y-85920000D01*
X111060000Y-87320000D02*
X111060000Y-88460000D01*
X111060000Y-89860000D02*
X111060000Y-91000000D01*
X111060000Y-92400000D02*
X111060000Y-93540000D01*
X111060000Y-94940000D02*
X111060000Y-96080000D01*
X111060000Y-97480000D02*
X111060000Y-98620000D01*
X111060000Y-100020000D02*
X111060000Y-101030000D01*
X129300000Y-77290000D02*
X129300000Y-78300000D01*
X129300000Y-79700000D02*
X129300000Y-80840000D01*
X129300000Y-82240000D02*
X129300000Y-83380000D01*
X129300000Y-84780000D02*
X129300000Y-85920000D01*
X129300000Y-87320000D02*
X129300000Y-88460000D01*
X129300000Y-89860000D02*
X129300000Y-91000000D01*
X129300000Y-92400000D02*
X129300000Y-93540000D01*
X129300000Y-94940000D02*
X129300000Y-96080000D01*
X129300000Y-97480000D02*
X129300000Y-98620000D01*
X129300000Y-100020000D02*
X129300000Y-101030000D01*
X129300000Y-101030000D02*
X111060000Y-101030000D01*
D13*
X109860000Y-79000000D02*
G75*
G02*
X109500000Y-79000000I-180000J0D01*
G01*
X109500000Y-79000000D02*
G75*
G02*
X109860000Y-79000000I180000J0D01*
G01*
%TD*%
M02*
