M48
; DRILL file {KiCad 9.0.7} date 2026-03-17T20:14:29-0500
; FORMAT={-:-/ absolute / metric / decimal}
; #@! TF.CreationDate,2026-03-17T20:14:29-05:00
; #@! TF.GenerationSoftware,Kicad,Pcbnew,9.0.7
; #@! TF.FileFunction,Plated,1,2,PTH
FMAT,2
METRIC
; #@! TA.AperFunction,Plated,PTH,ViaDrill
T1C0.300
; #@! TA.AperFunction,Plated,PTH,ComponentDrill
T2C1.000
%
G90
G05
T1
X105.743Y-82.039
X138.001Y-102.994
X143.081Y-90.294
X143.716Y-96.263
T2
X98.044Y-87.884
X99.822Y-108.046
X100.584Y-87.884
X102.362Y-108.046
X103.124Y-87.884
X104.902Y-108.046
X105.664Y-87.884
X107.442Y-108.046
X115.748Y-107.92
X115.748Y-110.46
X115.748Y-119.38
X115.748Y-121.92
X133.358Y-105.92
X142.748Y-107.92
X142.748Y-110.46
X142.748Y-119.38
X142.748Y-121.92
M30
