%TF.GenerationSoftware,KiCad,Pcbnew,9.0.7*%
%TF.CreationDate,2026-03-17T20:14:33-05:00*%
%TF.ProjectId,TrailCurrentBorealis,54726169-6c43-4757-9272-656e74426f72,rev?*%
%TF.SameCoordinates,Original*%
%TF.FileFunction,Soldermask,Top*%
%TF.FilePolarity,Negative*%
%FSLAX46Y46*%
G04 Gerber Fmt 4.6, Leading zero omitted, Abs format (unit mm)*
G04 Created by KiCad (PCBNEW 9.0.7) date 2026-03-17 20:14:33*
%MOMM*%
%LPD*%
G01*
G04 APERTURE LIST*
G04 Aperture macros list*
%AMRoundRect*
0 Rectangle with rounded corners*
0 $1 Rounding radius*
0 $2 $3 $4 $5 $6 $7 $8 $9 X,Y pos of 4 corners*
0 Add a 4 corners polygon primitive as box body*
4,1,4,$2,$3,$4,$5,$6,$7,$8,$9,$2,$3,0*
0 Add four circle primitives for the rounded corners*
1,1,$1+$1,$2,$3*
1,1,$1+$1,$4,$5*
1,1,$1+$1,$6,$7*
1,1,$1+$1,$8,$9*
0 Add four rect primitives between the rounded corners*
20,1,$1+$1,$2,$3,$4,$5,0*
20,1,$1+$1,$4,$5,$6,$7,0*
20,1,$1+$1,$6,$7,$8,$9,0*
20,1,$1+$1,$8,$9,$2,$3,0*%
G04 Aperture macros list end*
%ADD10RoundRect,0.250000X0.600000X0.600000X-0.600000X0.600000X-0.600000X-0.600000X0.600000X-0.600000X0*%
%ADD11O,1.700000X1.700000*%
%ADD12R,2.000000X1.500000*%
%ADD13R,1.500000X2.000000*%
%ADD14RoundRect,0.250000X-0.600000X0.600000X-0.600000X-0.600000X0.600000X-0.600000X0.600000X0.600000X0*%
%ADD15C,2.500000*%
%ADD16R,1.750000X0.600000*%
%ADD17RoundRect,0.250000X0.625000X-0.400000X0.625000X0.400000X-0.625000X0.400000X-0.625000X-0.400000X0*%
%ADD18RoundRect,0.102000X0.650000X2.250000X-0.650000X2.250000X-0.650000X-2.250000X0.650000X-2.250000X0*%
%ADD19RoundRect,0.102000X0.900000X1.950000X-0.900000X1.950000X-0.900000X-1.950000X0.900000X-1.950000X0*%
%ADD20RoundRect,0.250000X-0.750000X-0.250000X0.750000X-0.250000X0.750000X0.250000X-0.750000X0.250000X0*%
%ADD21R,2.000000X1.000000*%
%ADD22C,1.250000*%
G04 APERTURE END LIST*
D10*
%TO.C,U3*%
X142748000Y-121920000D03*
D11*
X142748000Y-119380000D03*
X142748000Y-110460000D03*
X142748000Y-107920000D03*
X133358000Y-105920000D03*
X115748000Y-107920000D03*
X115748000Y-110460000D03*
X115748000Y-119380000D03*
X115748000Y-121920000D03*
D12*
X144248000Y-121920000D03*
X144248000Y-119380000D03*
X144248000Y-110460000D03*
X144248000Y-107920000D03*
D13*
X133358000Y-105920000D03*
D12*
X114248000Y-107920000D03*
X114248000Y-110460000D03*
X114248000Y-119380000D03*
X114248000Y-121920000D03*
%TD*%
D14*
%TO.C,U4*%
X105664000Y-87884000D03*
D11*
X103124000Y-87884000D03*
X100584000Y-87884000D03*
X98044000Y-87884000D03*
%TD*%
D15*
%TO.C,H3*%
X152000000Y-81000000D03*
%TD*%
%TO.C,H4*%
X152000000Y-120000000D03*
%TD*%
D16*
%TO.C,IC1*%
X140400000Y-95810000D03*
X140400000Y-94540000D03*
X140400000Y-93270000D03*
X140400000Y-92000000D03*
X135300000Y-92000000D03*
X135300000Y-93270000D03*
X135300000Y-94540000D03*
X135300000Y-95810000D03*
%TD*%
D17*
%TO.C,R1*%
X135200000Y-102350000D03*
X135200000Y-99250000D03*
%TD*%
D18*
%TO.C,J2*%
X143350000Y-86000000D03*
X140850000Y-86000000D03*
X138350000Y-86000000D03*
X135850000Y-86000000D03*
D19*
X146550000Y-79200000D03*
X132650000Y-79200000D03*
%TD*%
D11*
%TO.C,U2*%
X99822000Y-108046000D03*
X102362000Y-108046000D03*
X104902000Y-108046000D03*
D10*
X107442000Y-108046000D03*
%TD*%
D15*
%TO.C,H1*%
X92000000Y-81000000D03*
%TD*%
%TO.C,H2*%
X92000000Y-120000000D03*
%TD*%
D20*
%TO.C,U1*%
X111180000Y-79000000D03*
D21*
X111180000Y-81540000D03*
X111180000Y-84080000D03*
X111180000Y-86620000D03*
X111180000Y-89160000D03*
X111180000Y-91700000D03*
X111180000Y-94240000D03*
X111180000Y-96780000D03*
X111180000Y-99320000D03*
X129180000Y-99320000D03*
X129180000Y-96780000D03*
X129180000Y-94240000D03*
X129180000Y-91700000D03*
X129180000Y-89160000D03*
X129180000Y-86620000D03*
X129180000Y-84080000D03*
X129180000Y-81540000D03*
X129180000Y-79000000D03*
D22*
X124870000Y-86200000D03*
X124870000Y-87790000D03*
X124870000Y-89380000D03*
X124870000Y-90970000D03*
X124870000Y-92560000D03*
X124870000Y-94150000D03*
X124870000Y-95740000D03*
X124870000Y-97330000D03*
%TD*%
M02*
